<?xml version="1.0" encoding="utf-8"?>
<!-- Generator: Adobe Illustrator 27.5.0, SVG Export Plug-In . SVG Version: 6.00 Build 0)  -->
<svg version="1.1" id="Layer_1" xmlns="http://www.w3.org/2000/svg" xmlns:xlink="http://www.w3.org/1999/xlink" x="0px" y="0px"
	 viewBox="0 0 127.3 100" style="enable-background:new 0 0 127.3 100;" xml:space="preserve">
<style type="text/css">
	.st0{fill:#02BBF8;}
	.st1{fill:none;stroke:#02BBF8;stroke-width:5;stroke-linecap:round;stroke-linejoin:round;stroke-miterlimit:10;}
	.st2{fill:url(#SVGID_1_);}
	.st3{fill:url(#SVGID_00000163074630416598705350000018218223505265199281_);}
	.st4{fill:none;stroke:#02BBF8;stroke-width:2.5041;stroke-linecap:round;stroke-linejoin:round;stroke-miterlimit:10;}
	.st5{fill:none;stroke:#02BBF8;stroke-width:2.7646;stroke-linecap:round;stroke-linejoin:round;stroke-miterlimit:10;}
	.st6{fill:none;stroke:#02BBF8;stroke-width:2.6868;stroke-linecap:round;stroke-linejoin:round;stroke-miterlimit:10;}
	.st7{fill:url(#SVGID_00000119834687960488971130000017166942378745082800_);}
	.st8{fill:url(#SVGID_00000125590617513377599920000006951430681171497132_);}
	
		.st9{fill:none;stroke:url(#SVGID_00000108292857471523960250000004217563430242791563_);stroke-width:3;stroke-linecap:round;stroke-linejoin:round;stroke-miterlimit:10;}
	
		.st10{fill:none;stroke:url(#SVGID_00000058553623453266854930000008456362633257796250_);stroke-width:3;stroke-linecap:round;stroke-linejoin:round;stroke-miterlimit:10;}
	
		.st11{fill:none;stroke:url(#SVGID_00000023280070048192245290000003872813492824268959_);stroke-width:3;stroke-linecap:round;stroke-linejoin:round;stroke-miterlimit:10;}
	
		.st12{fill:none;stroke:url(#SVGID_00000148653835012384871230000009740407433582161558_);stroke-width:3;stroke-linecap:round;stroke-linejoin:round;stroke-miterlimit:10;}
	.st13{fill:none;stroke:#01AEF7;stroke-width:3;stroke-linecap:round;stroke-linejoin:round;stroke-miterlimit:10;}
	.st14{fill:url(#SVGID_00000070829085033932019670000010911226133880846762_);}
	.st15{fill:url(#SVGID_00000089532509437808787110000015238971028143428523_);}
	.st16{fill:url(#SVGID_00000014593893228119865790000014680508866450293408_);}
	
		.st17{fill:none;stroke:url(#SVGID_00000083804413870896228880000002765582180700588462_);stroke-width:2;stroke-linecap:round;stroke-linejoin:round;stroke-miterlimit:10;}
	
		.st18{fill:none;stroke:url(#SVGID_00000079469496363455036000000010527455395951724213_);stroke-width:2;stroke-linecap:round;stroke-linejoin:round;stroke-miterlimit:10;}
	
		.st19{fill:none;stroke:url(#SVGID_00000065045924851148391010000006367941508809440691_);stroke-width:2;stroke-linecap:round;stroke-linejoin:round;stroke-miterlimit:10;}
	
		.st20{fill:none;stroke:url(#SVGID_00000001664720047856156970000017508100633839393204_);stroke-width:2;stroke-linecap:round;stroke-linejoin:round;stroke-miterlimit:10;}
	.st21{fill:url(#SVGID_00000121274643870334062010000017812524175475058109_);}
	.st22{fill:url(#SVGID_00000067938892172889247800000011861655854402800257_);}
	.st23{fill:url(#SVGID_00000127032334486322283520000003736542855879251388_);}
	.st24{fill:url(#SVGID_00000135672794511466431840000014263186354518069401_);}
	.st25{fill:none;stroke:#02BBF8;stroke-width:3.1188;stroke-linecap:round;stroke-linejoin:round;stroke-miterlimit:10;}
</style>
<g>
	<path class="st0" d="M-38.2,163.5c24.8,0,45,20.2,45,45c0,24.8-20.2,45-45,45s-45-20.2-45-45C-83.2,183.7-63,163.5-38.2,163.5
		 M-38.2,158.5c-27.6,0-50,22.4-50,50c0,27.6,22.4,50,50,50c27.6,0,50-22.4,50-50C11.8,180.9-10.6,158.5-38.2,158.5L-38.2,158.5z"/>
</g>
<g>
	<path class="st0" d="M222.7,5c24.8,0,45,20.2,45,45s-20.2,45-45,45s-45-20.2-45-45S197.9,5,222.7,5 M222.7,0c-27.6,0-50,22.4-50,50
		s22.4,50,50,50c27.6,0,50-22.4,50-50S250.4,0,222.7,0L222.7,0z"/>
</g>
<g>
	<line class="st1" x1="-38.2" y1="229.5" x2="-38.2" y2="177.7"/>
	<polyline class="st1" points="-56,195.5 -38.2,177.7 -20.4,195.5 	"/>
</g>
<polyline class="st1" points="248.3,33.3 215,66.7 197.2,48.8 "/>
<image style="overflow:visible;" width="250" height="253" xlink:href="9A3DD6F9.jpg"  transform="matrix(1 0 0 1 -530.5618 -33.0295)">
</image>
<g>
	<linearGradient id="SVGID_1_" gradientUnits="userSpaceOnUse" x1="69.658" y1="193.8892" x2="89.9328" y2="193.8892">
		<stop  offset="0" style="stop-color:#00DCC4"/>
		<stop  offset="1" style="stop-color:#01AEF7"/>
	</linearGradient>
	<path class="st2" d="M88,190.2c-0.5,0-0.9,0.2-1.1,0.7c-0.6,1.3-1.5,2-2.2,2.4c1.1-3.4,1-8.3-4.1-11.7c-0.4-0.2-0.9-0.3-1.3,0
		c-0.4,0.2-0.6,0.6-0.6,1.1c0,1.8-2.9,4.4-4.5,5.8c-0.5,0.5-1,0.9-1.4,1.2c-1.4,1.4-3.7,5.1-2.9,9.3c0.8,4.5,4.7,7.5,9.8,7.5
		c5.1,0,9.1-3.2,10.1-8.1c0.3-2,0.3-5.1-0.7-7.3C88.9,190.5,88.5,190.2,88,190.2z M87.4,197.9c-0.7,3.7-3.7,6.1-7.7,6.1
		c-4,0-6.8-2.1-7.4-5.5c-0.6-2.9,1.1-5.9,2.3-7.1c0.3-0.3,0.7-0.7,1.2-1.1c1.6-1.4,3.9-3.4,4.9-5.6c4.1,4,1.1,9.4,0.9,9.7
		c-0.2,0.4-0.2,0.8,0,1.2c0.2,0.4,0.6,0.6,1,0.6c0.1,0,2.7,0.2,4.9-1.9C87.6,195.5,87.5,196.9,87.4,197.9z"/>
	
		<linearGradient id="SVGID_00000008116101451959942060000008488127608735713418_" gradientUnits="userSpaceOnUse" x1="44.284" y1="184.4829" x2="112.4382" y2="184.4829">
		<stop  offset="0" style="stop-color:#00DCC4"/>
		<stop  offset="1" style="stop-color:#01AEF7"/>
	</linearGradient>
	<path style="fill:url(#SVGID_00000008116101451959942060000008488127608735713418_);" d="M111.6,155.7l-22.9-7.6
		c0.1-0.5,0.1-1,0.1-1.5c0-0.5-0.1-1-0.1-1.5l22.9-7.6c0.6-0.2,1-0.9,0.7-1.5c-0.2-0.6-0.9-1-1.5-0.7l-22.8,7.5
		c-1.5-3.4-4.8-5.8-8.8-5.8c-3.3,0-6.2,1.7-7.9,4.2l-25.8-4.3c-0.3-0.1-0.7,0-1,0.3c-0.3,0.2-0.4,0.6-0.4,0.9V155
		c0,0.3,0.2,0.7,0.4,0.9c0.2,0.2,0.5,0.3,0.8,0.3c0.1,0,0.1,0,0.2,0l25.8-4.3c0.9,1.3,2.1,2.4,3.6,3.2c-7.8,1.9-13.6,8.9-13.6,17.2
		c0,0.1,0,0.1,0,0.2v52c0,5.1,4.2,9.3,9.3,9.3h16.8c5.1,0,9.3-4.2,9.3-9.3v-52.2c0,0,0,0,0,0c0-8.3-5.7-15.2-13.3-17.2
		c2-1,3.7-2.7,4.6-4.8l22.8,7.5c0.1,0,0.2,0.1,0.4,0.1c0.5,0,1-0.3,1.1-0.8C112.6,156.5,112.2,155.9,111.6,155.7z M46.6,153.6v-14.2
		l23.7,4c-0.3,1-0.5,2-0.5,3.1c0,1.1,0.2,2.1,0.5,3.1L46.6,153.6z M87.6,231.6H70.8c-3.9,0-7.1-3.2-7.1-7.1v-51h31v51
		C94.7,228.4,91.5,231.6,87.6,231.6z M94.4,171.1H63.9c0.6-7.9,7.2-14.1,15.3-14.1S93.8,163.2,94.4,171.1z M79.4,153.7
		c-3.9,0-7.1-3.2-7.1-7.1s3.2-7.1,7.1-7.1c3.9,0,7.1,3.2,7.1,7.1S83.3,153.7,79.4,153.7z"/>
</g>
<g>
	<path class="st4" d="M-268.3-64.6h-19.1c-5.2,0-9.3-4.2-9.3-9.3v-59.4h37.8V-74C-258.9-68.8-263.1-64.6-268.3-64.6z"/>
	<path class="st5" d="M-277.9-152.2c-10.4,0-18.8,8.4-18.8,18.8h37.6C-259.1-143.8-267.5-152.2-277.9-152.2z"/>
	<path class="st5" d="M-274-107.6c0,0,5.2-8.7-3.1-14.1c0.1,3.5-5.5,7.3-7.1,9c-1.6,1.7-3.7,5.5-3,9.3c0.8,4.2,4.3,7.4,9.8,7.4
		s9.2-3.5,10.1-8.1c0.4-2.2,0.3-5.4-0.7-7.6C-270-107.3-274-107.6-274-107.6z"/>
	<g>
		<circle class="st5" cx="-277.6" cy="-162.7" r="9.5"/>
		<polyline class="st6" points="-286.2,-158 -316.2,-153 -316.2,-172.3 -286.2,-167.3 		"/>
		<g>
			<line class="st6" x1="-241.3" y1="-151" x2="-267.5" y2="-159.7"/>
			<line class="st6" x1="-267.5" y1="-165.6" x2="-241.3" y2="-174.3"/>
		</g>
	</g>
</g>
<g>
	<g>
		
			<linearGradient id="SVGID_00000032608114091827887820000004678467829423976127_" gradientUnits="userSpaceOnUse" x1="-69.0551" y1="-115.4924" x2="3.7093" y2="-115.4924">
			<stop  offset="0" style="stop-color:#00DCC4"/>
			<stop  offset="1" style="stop-color:#01AEF7"/>
		</linearGradient>
		<path style="fill:url(#SVGID_00000032608114091827887820000004678467829423976127_);" d="M-32.7-79.1c-20.1,0-36.4-16.3-36.4-36.4
			c0-20.1,16.3-36.4,36.4-36.4s36.4,16.3,36.4,36.4C3.7-95.4-12.6-79.1-32.7-79.1z M-32.7-148.3c-18.1,0-32.8,14.7-32.8,32.8
			s14.7,32.8,32.8,32.8S0.1-97.4,0.1-115.5S-14.6-148.3-32.7-148.3z"/>
	</g>
	<g>
		
			<linearGradient id="SVGID_00000000945453590579112980000008117318154605131146_" gradientUnits="userSpaceOnUse" x1="-55.9918" y1="-121.5816" x2="-9.354" y2="-121.5816">
			<stop  offset="0" style="stop-color:#00DCC4"/>
			<stop  offset="1" style="stop-color:#01AEF7"/>
		</linearGradient>
		<path style="fill:url(#SVGID_00000000945453590579112980000008117318154605131146_);" d="M-9.4-102.8H-56l23.3-37.7L-9.4-102.8z
			 M-49.5-106.3h33.7l-16.9-27.2L-49.5-106.3z"/>
	</g>
</g>
<linearGradient id="SVGID_00000085230173660440928200000014306644140613591716_" gradientUnits="userSpaceOnUse" x1="-218.8968" y1="41.8483" x2="-98.284" y2="41.8483">
	<stop  offset="0" style="stop-color:#00DCC4"/>
	<stop  offset="1" style="stop-color:#01AEF7"/>
</linearGradient>
<path style="fill:none;stroke:url(#SVGID_00000085230173660440928200000014306644140613591716_);stroke-width:3;stroke-linecap:round;stroke-linejoin:round;stroke-miterlimit:10;" d="
	M-217.1,81.6h87.9c7.5,0,13.7-6.1,13.7-13.7V32.5c0-7.7,6.3-14,14-14h1.8c0,0-0.2-16.4-15.6-16.4s-14.9,15.3-14.9,15.3v29.8
	c0,10.9-8.8,19.7-19.7,19.7h-55.3c-6.8,0-12.4,5.7-12.1,12.5C-217.3,80.9-217.3,81.8-217.1,81.6z"/>
<linearGradient id="SVGID_00000031175958367345841950000001560779654322747558_" gradientUnits="userSpaceOnUse" x1="-219.284" y1="30.85" x2="-128.8371" y2="30.85">
	<stop  offset="0" style="stop-color:#00DCC4"/>
	<stop  offset="1" style="stop-color:#01AEF7"/>
</linearGradient>
<path style="fill:none;stroke:url(#SVGID_00000031175958367345841950000001560779654322747558_);stroke-width:3;stroke-linecap:round;stroke-linejoin:round;stroke-miterlimit:10;" d="
	M-208,67c-6.1-7.6-9.8-17.3-9.8-27.8c0-24.5,19.9-44.4,44.4-44.4c20.7,0,38,14.1,43,33.2"/>
<linearGradient id="SVGID_00000135667031643412415720000004392570199368461734_" gradientUnits="userSpaceOnUse" x1="-204.1729" y1="32.0644" x2="-142.5062" y2="32.0644">
	<stop  offset="0" style="stop-color:#00DCC4"/>
	<stop  offset="1" style="stop-color:#01AEF7"/>
</linearGradient>
<path style="fill:none;stroke:url(#SVGID_00000135667031643412415720000004392570199368461734_);stroke-width:3;stroke-linecap:round;stroke-linejoin:round;stroke-miterlimit:10;" d="
	M-148.2,54.3c2.7-4.4,4.2-9.6,4.2-15.1c0-16.2-13.1-29.3-29.3-29.3c-16.2,0-29.3,13.1-29.3,29.3c0,5.5,1.5,10.7,4.2,15.1H-148.2z"/>
<linearGradient id="SVGID_00000123407317343471519070000005516826313896248993_" gradientUnits="userSpaceOnUse" x1="-185.5803" y1="33.4705" x2="-171.0248" y2="33.4705">
	<stop  offset="0" style="stop-color:#00DCC4"/>
	<stop  offset="1" style="stop-color:#01AEF7"/>
</linearGradient>
<line style="fill:none;stroke:url(#SVGID_00000123407317343471519070000005516826313896248993_);stroke-width:3;stroke-linecap:round;stroke-linejoin:round;stroke-miterlimit:10;" x1="-172.5" y1="39.2" x2="-184.1" y2="27.7"/>
<path class="st13" d="M-114.1,1.7c0,0-0.4-11.1,11.7-11.3"/>
<g>
	
		<linearGradient id="SVGID_00000122692835306603105960000001311915178671751053_" gradientUnits="userSpaceOnUse" x1="16.1418" y1="45.863" x2="80.6139" y2="45.863">
		<stop  offset="0" style="stop-color:#00DCC4"/>
		<stop  offset="1" style="stop-color:#01AEF7"/>
	</linearGradient>
	<path style="fill:url(#SVGID_00000122692835306603105960000001311915178671751053_);" d="M74.7,70.6H22c-0.5,0-1-0.3-1.3-0.7
		c-3-5-4.6-10.7-4.6-16.6c0-17.8,14.5-32.2,32.2-32.2c17.8,0,32.2,14.5,32.2,32.2c0,5.9-1.6,11.6-4.6,16.6
		C75.7,70.4,75.2,70.6,74.7,70.6z M22.9,67.6h51c2.5-4.4,3.8-9.3,3.8-14.3c0-16.1-13.1-29.2-29.2-29.2c-16.1,0-29.2,13.1-29.2,29.2
		C19.1,58.3,20.4,63.3,22.9,67.6z"/>
</g>
<linearGradient id="SVGID_00000072258904074806166840000003640154660328472200_" gradientUnits="userSpaceOnUse" x1="37.9769" y1="45.1929" x2="67.3149" y2="45.1929">
	<stop  offset="0" style="stop-color:#00DCC4"/>
	<stop  offset="1" style="stop-color:#01AEF7"/>
</linearGradient>
<path style="fill:url(#SVGID_00000072258904074806166840000003640154660328472200_);" d="M66.9,35.9c-0.6-0.6-1.5-0.6-2.1,0
	L49.3,51.4l-8.8-8.8C40,42,39,42,38.4,42.6c-0.6,0.6-0.6,1.5,0,2.1l9.8,9.8c0.3,0.3,0.7,0.4,1.1,0.4c0,0,0.1,0,0.1,0
	c0,0,0.1,0,0.1,0c0.4,0,0.8-0.1,1.1-0.4l16.4-16.4C67.5,37.5,67.5,36.5,66.9,35.9z"/>
<linearGradient id="SVGID_00000125564145944970677600000014748253194059638194_" gradientUnits="userSpaceOnUse" x1="0.3083" y1="50" x2="126.951" y2="50">
	<stop  offset="0" style="stop-color:#00DCC4"/>
	<stop  offset="1" style="stop-color:#01AEF7"/>
</linearGradient>
<path style="fill:url(#SVGID_00000125564145944970677600000014748253194059638194_);" d="M112,13.1c0.1-1.4,0.6-4.3,2.7-6.4
	c1.8-1.9,4.5-2.9,8-3c0.8,0,1.5-0.7,1.5-1.5c0-0.8-0.7-1.5-1.5-1.5c0,0,0,0,0,0c-4.3,0.1-7.8,1.4-10.2,4c-2.7,2.8-3.3,6.4-3.5,8.3
	c-5.1,0-9.1,1.6-12.1,4.6c-5,5.2-4.9,12.7-4.8,12.9v2.7c-7.7-16.8-24.7-28-43.7-28C21.9,5.2,0.3,26.8,0.3,53.3
	c0,10.3,3.3,20.4,9.4,28.6c-1.9,0.7-3.6,1.9-5,3.3C2,88,0.6,91.7,0.7,95.6c0.1,2.1,0.1,3.2,1.2,3.6c0.2,0.1,0.4,0.1,0.5,0.1
	c0.1,0,0.1,0,0.2,0h92c8.7,0,15.8-7.1,15.8-15.8V46.3c0-7.3,5.9-13.2,13.2-13.2h1.9c0.4,0,0.8-0.2,1.1-0.4c0.3-0.3,0.4-0.7,0.4-1.1
	C126.9,31.5,126.5,15,112,13.1z M3.3,53.3c0-24.9,20.2-45.1,45.1-45.1c20.5,0,38.4,13.8,43.6,33.6c0,0.1,0,0.1,0.1,0.2v19.7
	c0,10.6-8.6,19.2-19.2,19.2H14.9c-0.7,0-1.4,0.1-2,0.2C6.6,73.1,3.3,63.5,3.3,53.3z M123.6,30.2c-8.9,0-16.2,7.3-16.2,16.2v37.1
	c0,7.1-5.8,12.8-12.8,12.8H3.8c0-0.2,0-0.5,0-0.8c-0.1-3,1-5.9,3.1-8.1c2.1-2.2,5-3.4,8.1-3.4h57.9c12.2,0,22.2-10,22.2-22.2l0-31.3
	c0-0.1-0.1-6.6,4-10.8c2.4-2.5,5.8-3.7,10.1-3.7c11.8,0,14.2,10.3,14.7,14.2H123.6z"/>
<image style="overflow:visible;" width="225" height="225" xlink:href="9A3DD6FB.jpg"  transform="matrix(0.4472 0 0 0.4472 -304.6544 115.7668)">
</image>
<linearGradient id="SVGID_00000093864868157774519810000002819429458549597826_" gradientUnits="userSpaceOnUse" x1="-187.2285" y1="146.1743" x2="-148.1174" y2="146.1743">
	<stop  offset="0" style="stop-color:#00DCC4"/>
	<stop  offset="1" style="stop-color:#01AEF7"/>
</linearGradient>
<path style="fill:none;stroke:url(#SVGID_00000093864868157774519810000002819429458549597826_);stroke-width:2;stroke-linecap:round;stroke-linejoin:round;stroke-miterlimit:10;" d="
	M-149.1,177H-179c-4,0-7.2-3.2-7.2-7.2v0c0-4,3.3-7.3,7.3-7.3h6.3v-33.4v-13.7h-7.2c-3.5,0-6.4,2.8-6.4,6.4v47.5"/>
<linearGradient id="SVGID_00000050621911718783701380000009099641176863877253_" gradientUnits="userSpaceOnUse" x1="-159.1544" y1="165.4104" x2="-113.4507" y2="165.4104">
	<stop  offset="0" style="stop-color:#00DCC4"/>
	<stop  offset="1" style="stop-color:#01AEF7"/>
</linearGradient>
<polygon style="fill:none;stroke:url(#SVGID_00000050621911718783701380000009099641176863877253_);stroke-width:2;stroke-linecap:round;stroke-linejoin:round;stroke-miterlimit:10;" points="
	-114.5,143.4 -158.2,187.4 -114.5,187.4 "/>
<linearGradient id="SVGID_00000129887974987092010770000010594697432218308286_" gradientUnits="userSpaceOnUse" x1="-140.8502" y1="170.9659" x2="-120.7116" y2="170.9659">
	<stop  offset="0" style="stop-color:#00DCC4"/>
	<stop  offset="1" style="stop-color:#01AEF7"/>
</linearGradient>
<polygon style="fill:none;stroke:url(#SVGID_00000129887974987092010770000010594697432218308286_);stroke-width:2;stroke-linecap:round;stroke-linejoin:round;stroke-miterlimit:10;" points="
	-121.7,161.8 -139.9,180.1 -121.7,180.1 "/>
<g>
	<path d="M-141.1,156.6c-2.1,0-4.2-0.4-6.2-1.1s-3.6-1.8-4.9-3.4c-1.3-1.6-2-3.6-2.1-6l2.6-0.2c0,0.1,0,0.4,0.1,1
		c0.1,0.6,0.2,1.3,0.6,2.1c0.3,0.8,0.9,1.6,1.6,2.4c0.8,0.8,1.8,1.5,3.2,2c1.4,0.5,3.1,0.8,5.3,0.8c2,0,3.5-0.2,4.7-0.7
		c1.2-0.5,2.1-1.1,2.7-1.8c0.6-0.7,1-1.4,1.2-2c0.2-0.7,0.3-1.1,0.3-1.4c0-1.5-0.3-2.7-1.1-3.5s-1.7-1.6-3-2.2
		c-1.3-0.5-2.7-1-4.2-1.4c-1.5-0.4-3-0.8-4.5-1.2c-1.5-0.4-2.9-1-4.2-1.6c-1.3-0.7-2.3-1.6-3-2.7c-0.7-1.1-1.1-2.6-1-4.3
		c0.1-1.7,0.6-3.1,1.7-4.3c1.1-1.2,2.5-2.1,4.3-2.8c1.8-0.6,3.7-1,5.9-1c2.1,0,4.1,0.4,5.8,1.2c1.7,0.8,3.1,1.9,4.1,3.4
		c1,1.5,1.5,3.4,1.5,5.7l-2.6,0.2c0.1-1.7-0.2-3-0.9-4.1c-0.7-1-1.5-1.8-2.5-2.4c-1-0.6-2-1-3.1-1.2c-1.1-0.2-2-0.3-2.7-0.3
		c-2.5,0-4.6,0.5-6.2,1.6c-1.7,1.1-2.5,2.5-2.6,4.1c0,1.4,0.3,2.6,1.1,3.5c0.8,0.9,1.8,1.6,3,2.1c1.2,0.5,2.6,1,4.1,1.3
		c1.5,0.4,3,0.8,4.5,1.2c1.5,0.4,2.9,1,4.1,1.6c1.2,0.7,2.2,1.6,3,2.7c0.7,1.2,1.1,2.6,1,4.5c0,1.7-0.6,3.2-1.7,4.4
		c-1.1,1.2-2.5,2.1-4.2,2.8C-137.1,156.3-139,156.6-141.1,156.6z M-142.1,124l-0.1-6.4h2.6l-0.1,6.4H-142.1z M-142.2,162.1l0.1-6.3
		h2.3l0.1,6.3H-142.2z"/>
</g>
<linearGradient id="SVGID_00000004504757306072844120000015194794457011766150_" gradientUnits="userSpaceOnUse" x1="-173.5248" y1="141.2483" x2="-122.8581" y2="141.2483">
	<stop  offset="0" style="stop-color:#00DCC4"/>
	<stop  offset="1" style="stop-color:#01AEF7"/>
</linearGradient>
<polyline style="fill:none;stroke:url(#SVGID_00000004504757306072844120000015194794457011766150_);stroke-width:2;stroke-linecap:round;stroke-linejoin:round;stroke-miterlimit:10;" points="
	-172.5,129.8 -123.9,129.8 -123.9,152.7 "/>
<g>
	
		<linearGradient id="SVGID_00000143606781454517107140000001233246151827015576_" gradientUnits="userSpaceOnUse" x1="45.0124" y1="-86.6037" x2="142.9778" y2="-86.6037">
		<stop  offset="0" style="stop-color:#00DCC4"/>
		<stop  offset="1" style="stop-color:#01AEF7"/>
	</linearGradient>
	<path style="fill:url(#SVGID_00000143606781454517107140000001233246151827015576_);" d="M142.1-98.5c-0.6-0.2-1.2-0.1-1.6,0.3
		l-9.9,9.9v-27c0-0.8-0.7-1.5-1.5-1.5h-16.5c-0.4-1-0.8-1.9-1.4-2.7c-1.6-2.4-3.8-4.1-6.5-5.4c-2.1-1-4.5-1.5-7-1.7l0.2-9h-4l0.2,9
		c-2.8,0.1-5.4,0.6-7.8,1.5c-2.8,1-5,2.5-6.7,4.3c-1.1,1.2-1.8,2.5-2.2,4H65.9v-17.5c0-0.8-0.7-1.5-1.5-1.5H55
		c-5.5,0-9.9,4.4-9.9,9.9V-63c0,0.2,0,0.5,0,0.7c0,6.1,4.9,11,11,11h37.8L82.6-40c-0.4,0.4-0.6,1.1-0.3,1.6c0.2,0.6,0.8,0.9,1.4,0.9
		h57.8c0.8,0,1.5-0.7,1.5-1.5v-58.2C143-97.8,142.6-98.3,142.1-98.5z M48-125.8c0-3.8,3.1-6.9,6.9-6.9h8v59.3h-6.8
		c-3.2,0-6.1,1.3-8.1,3.5V-125.8z M95.6-54.3H56c-4.4,0-8-3.6-8-8c0-0.2,0-0.3,0-0.5c0,0,0-0.1,0-0.1c0.3-4.2,3.8-7.5,8.1-7.5h8.3
		c0.8,0,1.5-0.7,1.5-1.5v-41.8h10.9c0,2.7,0.5,4.9,1.6,6.6c1.1,1.8,2.7,3.2,4.7,4.2c2,1,4.2,1.9,6.6,2.6c2.4,0.7,4.8,1.3,7.2,1.9
		c2.4,0.6,4.6,1.3,6.6,2.2c2,0.9,3.6,2,4.7,3.4c1.2,1.4,1.7,3.3,1.7,5.6c0,0.5-0.2,1.2-0.5,2.3c-0.3,1-1,2.1-1.9,3.2
		c-1,1.1-2.4,2-4.2,2.8c-1.8,0.8-4.3,1.2-7.4,1.2c-3.4,0-6.2-0.4-8.3-1.3c-2.1-0.8-3.8-1.9-5-3.1c-1.2-1.3-2-2.5-2.6-3.8
		c-0.5-1.3-0.8-2.4-0.9-3.4c-0.1-0.9-0.1-1.4-0.1-1.6l-4,0.4c0.2,3.9,1.3,7,3.3,9.5c2,2.4,4.6,4.2,7.7,5.3c2.6,0.9,5.3,1.4,8.1,1.6
		l-0.2,8.7h4l-0.2-8.8c2.5-0.2,4.8-0.6,6.9-1.4c2.7-1,4.9-2.5,6.7-4.4c1.7-1.9,2.6-4.2,2.7-7c0.1-2.9-0.5-5.2-1.6-7
		c-1.1-1.8-2.7-3.3-4.7-4.3c-2-1-4.1-1.9-6.5-2.6c-2.4-0.7-4.8-1.3-7.2-1.9c-2.4-0.6-4.6-1.3-6.5-2.1c-2-0.8-3.6-1.9-4.7-3.3
		c-1.2-1.4-1.8-3.2-1.7-5.5c0.1-2.6,1.5-4.8,4.1-6.5c2.6-1.7,5.9-2.6,9.8-2.6c1.2,0,2.6,0.2,4.3,0.5c1.7,0.4,3.3,1,4.9,1.9
		c1.6,0.9,2.9,2.2,3.9,3.8c1,1.6,1.5,3.8,1.4,6.4l4-0.3c0-1.1-0.1-2.2-0.2-3.2h14.2v28.5L96.5-54C96.2-54.2,95.9-54.3,95.6-54.3z
		 M140-40.5H87.3l52.7-53V-40.5z"/>
	
		<linearGradient id="SVGID_00000092442035963797522220000012442647341069152655_" gradientUnits="userSpaceOnUse" x1="106.3735" y1="-60.7121" x2="133.3713" y2="-60.7121">
		<stop  offset="0" style="stop-color:#00DCC4"/>
		<stop  offset="1" style="stop-color:#01AEF7"/>
	</linearGradient>
	<path style="fill:url(#SVGID_00000092442035963797522220000012442647341069152655_);" d="M106.5-48.1c0.2,0.6,0.8,0.9,1.4,0.9h24
		c0.8,0,1.5-0.7,1.5-1.5v-24.1c0-0.6-0.4-1.2-0.9-1.4c-0.6-0.2-1.2-0.1-1.6,0.3l-24,24.1C106.4-49.3,106.3-48.6,106.5-48.1z
		 M130.4-69.1v19h-18.9L130.4-69.1z"/>
</g>
<g>
	
		<linearGradient id="SVGID_00000150819986782924548430000005925558816550505600_" gradientUnits="userSpaceOnUse" x1="229.7859" y1="-79.7038" x2="256.9713" y2="-79.7038">
		<stop  offset="0" style="stop-color:#00DCC4"/>
		<stop  offset="1" style="stop-color:#01AEF7"/>
	</linearGradient>
	<path style="fill:url(#SVGID_00000150819986782924548430000005925558816550505600_);" d="M242.4-62c0.1,0,0.2,0,0.3,0c0,0,0,0,0,0
		c0,0,0,0,0,0s0,0,0,0c0.1,0,0.2,0,0.3,0c0,0,0,0,0,0c0.1,0,0.2,0,0.3-0.1c0,0,0,0,0.1,0c0.1,0,0.1-0.1,0.2-0.1
		c0.1-0.1,0.2-0.1,0.2-0.2l12.7-12.7c0.6-0.6,0.6-1.6,0-2.2c-0.6-0.6-1.6-0.6-2.2,0l-10,10v-28.5c0-0.9-0.7-1.6-1.6-1.6
		s-1.6,0.7-1.6,1.6v28.5l-8.7-8.7c-0.6-0.6-1.6-0.6-2.2,0c-0.6,0.6-0.6,1.6,0,2.2l11.4,11.4c0,0,0,0,0.1,0.1c0,0,0.1,0,0.1,0.1
		c0.1,0.1,0.2,0.2,0.3,0.2c0,0,0,0,0,0c0,0,0,0,0,0C242.2-62.1,242.3-62.1,242.4-62C242.4-62,242.4-62,242.4-62z"/>
	
		<linearGradient id="SVGID_00000038398542753193457170000007645010090825925516_" gradientUnits="userSpaceOnUse" x1="214.6111" y1="-80.6667" x2="312.6482" y2="-80.6667">
		<stop  offset="0" style="stop-color:#00DCC4"/>
		<stop  offset="1" style="stop-color:#01AEF7"/>
	</linearGradient>
	<path style="fill:url(#SVGID_00000038398542753193457170000007645010090825925516_);" d="M312.5-106.6
		C312.5-106.6,312.5-106.7,312.5-106.6c-0.1-0.2-0.2-0.3-0.3-0.4l-22.9-22.9c-0.1-0.1-0.2-0.2-0.3-0.2c0,0-0.1,0-0.1,0
		c-0.2-0.1-0.4-0.2-0.7-0.2h-37.1c-5.7,0-10.3,4.6-10.3,10.3v12.3c-14.6,1-26.2,13.2-26.2,28.1s11.6,27.1,26.2,28.1v9.9
		c0,5.9,4.8,10.7,10.7,10.7h59.5c0.9,0,1.6-0.7,1.6-1.6v-73.4C312.6-106.2,312.6-106.4,312.5-106.6z M307.3-107.5h-17.5V-125
		L307.3-107.5z M217.7-79.7c0-13.8,11.2-25,25-25c13.8,0,25,11.2,25,25s-11.2,25-25,25C228.9-54.7,217.7-65.9,217.7-79.7z
		 M251.6-34.1c-4.2,0-7.6-3.4-7.6-7.6v-9.9c9-0.4,16.8-5,21.7-11.9c0.1,0,0.2,0,0.2,0h30.5c0.9,0,1.6-0.7,1.6-1.6s-0.7-1.6-1.6-1.6
		h-28.8c1.3-2.5,2.3-5.3,2.8-8.2h30.2c0.9,0,1.6-0.7,1.6-1.6s-0.7-1.6-1.6-1.6h-29.8c0-0.6,0.1-1.2,0.1-1.8c0-2.2-0.3-4.3-0.7-6.4
		h30c0.9,0,1.6-0.7,1.6-1.6s-0.7-1.6-1.6-1.6h-30.5c-0.1,0-0.3,0-0.4,0.1c-3.8-10.5-13.6-18.1-25.3-18.6V-120c0-4,3.2-7.2,7.2-7.2
		h35.5v21.3c0,0.9,0.7,1.6,1.6,1.6h21.3v70.2H251.6z"/>
</g>
<g>
	<polyline class="st25" points="253.3,123 253.3,155.3 266,142.6 	"/>
	<line class="st25" x1="241.9" y1="143.9" x2="253.3" y2="155.3"/>
</g>
<path class="st25" d="M253,166.1v11c0,5.1,4.1,9.2,9.2,9.2h59.5v-73.4l-22.9-22.9h-37.1c-4.8,0-8.8,3.9-8.8,8.8v13.4"/>
<polygon class="st25" points="321.6,112.9 298.8,90.1 298.8,112.9 "/>
<circle class="st25" cx="253.3" cy="139.1" r="26.6"/>
<line class="st25" x1="310.7" y1="131.2" x2="280.2" y2="131.2"/>
<line class="st25" x1="311.1" y1="142.5" x2="280.6" y2="142.5"/>
<line class="st25" x1="307" y1="153.8" x2="276.5" y2="153.8"/>
<g>
	<polyline class="st25" points="304.6,39.7 327.4,62.5 327.4,44.6 	"/>
	<line class="st25" x1="311.3" y1="62.5" x2="327.4" y2="62.5"/>
</g>
<path class="st25" d="M315.7,78.1v11c0,5.1,4.1,9.2,9.2,9.2h59.5V24.9L361.5,2.1h-37.1c-4.8,0-8.8,3.9-8.8,8.8v13.4"/>
<polygon class="st25" points="384.3,24.9 361.5,2.1 361.5,24.9 "/>
<circle class="st25" cx="316" cy="51.1" r="26.6"/>
<line class="st25" x1="373.4" y1="43.2" x2="342.9" y2="43.2"/>
<line class="st25" x1="373.8" y1="54.5" x2="343.3" y2="54.5"/>
<line class="st25" x1="369.7" y1="65.8" x2="339.2" y2="65.8"/>
</svg>
