<?xml version="1.0" encoding="utf-8"?>
<!-- Generator: Adobe Illustrator 27.5.0, SVG Export Plug-In . SVG Version: 6.00 Build 0)  -->
<svg version="1.1" id="Layer_1" xmlns="http://www.w3.org/2000/svg" xmlns:xlink="http://www.w3.org/1999/xlink" x="0px" y="0px"
	 viewBox="0 0 126.6 98.6" style="enable-background:new 0 0 126.6 98.6;" xml:space="preserve">
<style type="text/css">
	.st0{fill:#02BBF8;}
	.st1{fill:none;stroke:#02BBF8;stroke-width:5;stroke-linecap:round;stroke-linejoin:round;stroke-miterlimit:10;}
	.st2{fill:url(#SVGID_1_);}
	.st3{fill:url(#SVGID_00000057838038272954733830000012855966357191901348_);}
	.st4{fill:none;stroke:#02BBF8;stroke-width:2.5041;stroke-linecap:round;stroke-linejoin:round;stroke-miterlimit:10;}
	.st5{fill:none;stroke:#02BBF8;stroke-width:2.7646;stroke-linecap:round;stroke-linejoin:round;stroke-miterlimit:10;}
	.st6{fill:none;stroke:#02BBF8;stroke-width:2.6868;stroke-linecap:round;stroke-linejoin:round;stroke-miterlimit:10;}
	.st7{fill:url(#SVGID_00000036958879478702223400000015687563261390723715_);}
	.st8{fill:url(#SVGID_00000162342592864778997710000010767551363461234824_);}
	
		.st9{fill:none;stroke:url(#SVGID_00000165199679595131708720000001928331393832525961_);stroke-width:3;stroke-linecap:round;stroke-linejoin:round;stroke-miterlimit:10;}
	
		.st10{fill:none;stroke:url(#SVGID_00000032617087454585376630000005352473609254735787_);stroke-width:3;stroke-linecap:round;stroke-linejoin:round;stroke-miterlimit:10;}
	
		.st11{fill:none;stroke:url(#SVGID_00000020364296687442626020000011377497580610580885_);stroke-width:3;stroke-linecap:round;stroke-linejoin:round;stroke-miterlimit:10;}
	
		.st12{fill:none;stroke:url(#SVGID_00000067947204423387600560000015829614113201850503_);stroke-width:3;stroke-linecap:round;stroke-linejoin:round;stroke-miterlimit:10;}
	.st13{fill:none;stroke:#01AEF7;stroke-width:3;stroke-linecap:round;stroke-linejoin:round;stroke-miterlimit:10;}
	.st14{fill:url(#SVGID_00000182524085072682278410000018192530979218736565_);}
	.st15{fill:url(#SVGID_00000154388321214975258290000002562056013880915344_);}
	.st16{fill:url(#SVGID_00000127033111009614453280000017479344036169491353_);}
	.st17{fill:url(#SVGID_00000124862266454338674400000010013303559272937617_);}
	.st18{fill:#01AEF7;}
</style>
<g>
	<path class="st0" d="M-51.3,163.9c24.8,0,45,20.2,45,45c0,24.8-20.2,45-45,45s-45-20.2-45-45C-96.3,184-76.2,163.9-51.3,163.9
		 M-51.3,158.9c-27.6,0-50,22.4-50,50c0,27.6,22.4,50,50,50c27.6,0,50-22.4,50-50C-1.3,181.2-23.7,158.9-51.3,158.9L-51.3,158.9z"/>
</g>
<g>
	<line class="st1" x1="-51.3" y1="229.8" x2="-51.3" y2="178.1"/>
	<polyline class="st1" points="-69.2,195.9 -51.3,178.1 -33.5,195.9 	"/>
</g>
<image style="overflow:visible;" width="250" height="253" xlink:href="21B5DB59.jpg"  transform="matrix(1 0 0 1 -543.7347 -32.6597)">
</image>
<g>
	<linearGradient id="SVGID_1_" gradientUnits="userSpaceOnUse" x1="25.3739" y1="58.7034" x2="45.6488" y2="58.7034">
		<stop  offset="0" style="stop-color:#00DCC4"/>
		<stop  offset="1" style="stop-color:#01AEF7"/>
	</linearGradient>
	<path class="st2" d="M43.7,55c-0.5,0-0.9,0.2-1.1,0.7c-0.6,1.3-1.5,2-2.2,2.4c1.1-3.4,1-8.3-4.1-11.7c-0.4-0.2-0.9-0.3-1.3,0
		c-0.4,0.2-0.6,0.6-0.6,1.1c0,1.8-2.9,4.4-4.5,5.8c-0.5,0.5-1,0.9-1.4,1.2c-1.4,1.4-3.7,5.1-2.9,9.3c0.8,4.5,4.7,7.5,9.8,7.5
		c5.1,0,9.1-3.2,10.1-8.1c0.3-2,0.3-5.1-0.7-7.3C44.6,55.3,44.2,55.1,43.7,55z M43.1,62.7c-0.7,3.7-3.7,6.1-7.7,6.1
		c-4,0-6.8-2.1-7.4-5.5c-0.6-2.9,1.1-5.9,2.3-7.1c0.3-0.3,0.7-0.7,1.2-1.1c1.6-1.4,3.9-3.4,4.9-5.6c4.1,4,1.1,9.4,0.9,9.7
		c-0.2,0.4-0.2,0.8,0,1.2c0.2,0.4,0.6,0.6,1,0.6c0.1,0,2.7,0.2,4.9-1.9C43.3,60.3,43.2,61.7,43.1,62.7z"/>
	
		<linearGradient id="SVGID_00000081616999244087396330000017811521831826449285_" gradientUnits="userSpaceOnUse" x1="0" y1="49.2971" x2="68.1542" y2="49.2971">
		<stop  offset="0" style="stop-color:#00DCC4"/>
		<stop  offset="1" style="stop-color:#01AEF7"/>
	</linearGradient>
	<path style="fill:url(#SVGID_00000081616999244087396330000017811521831826449285_);" d="M67.3,20.5l-22.9-7.6
		c0.1-0.5,0.1-1,0.1-1.5c0-0.5-0.1-1-0.1-1.5l22.9-7.6c0.6-0.2,1-0.9,0.7-1.5c-0.2-0.6-0.9-1-1.5-0.7L43.8,7.6
		c-1.5-3.4-4.8-5.8-8.8-5.8c-3.3,0-6.2,1.7-7.9,4.2L1.4,1.7C1,1.7,0.7,1.8,0.4,2C0.2,2.2,0,2.6,0,2.9v16.9c0,0.3,0.2,0.7,0.4,0.9
		C0.6,20.9,0.9,21,1.2,21c0.1,0,0.1,0,0.2,0l25.8-4.3c0.9,1.3,2.1,2.4,3.6,3.2c-7.8,1.9-13.6,8.9-13.6,17.2c0,0.1,0,0.1,0,0.2v52
		c0,5.1,4.2,9.3,9.3,9.3h16.8c5.1,0,9.3-4.2,9.3-9.3V37.1c0,0,0,0,0,0c0-8.3-5.7-15.2-13.3-17.2c2-1,3.7-2.7,4.6-4.8l22.8,7.5
		c0.1,0,0.2,0.1,0.4,0.1c0.5,0,1-0.3,1.1-0.8C68.3,21.3,68,20.7,67.3,20.5z M2.4,18.5V4.3l23.7,4c-0.3,1-0.5,2-0.5,3.1
		c0,1.1,0.2,2.1,0.5,3.1L2.4,18.5z M43.3,96.4H26.5c-3.9,0-7.1-3.2-7.1-7.1v-51h31v51C50.4,93.2,47.2,96.4,43.3,96.4z M50.1,35.9
		H19.6c0.6-7.9,7.2-14.1,15.3-14.1S49.5,28,50.1,35.9z M35.1,18.5c-3.9,0-7.1-3.2-7.1-7.1s3.2-7.1,7.1-7.1s7.1,3.2,7.1,7.1
		S39,18.5,35.1,18.5z"/>
</g>
<g>
	<path class="st4" d="M-281.5-64.2h-19.1c-5.2,0-9.3-4.2-9.3-9.3V-133h37.8v59.4C-272.1-68.4-276.3-64.2-281.5-64.2z"/>
	<path class="st5" d="M-291.1-151.8c-10.4,0-18.8,8.4-18.8,18.8h37.6C-272.3-143.4-280.7-151.8-291.1-151.8z"/>
	<path class="st5" d="M-287.1-107.2c0,0,5.2-8.7-3.1-14.1c0.1,3.5-5.5,7.3-7.1,9c-1.6,1.7-3.7,5.5-3,9.3c0.8,4.2,4.3,7.4,9.8,7.4
		c5.5,0,9.2-3.5,10.1-8.1c0.4-2.2,0.3-5.4-0.7-7.6C-283.2-106.9-287.1-107.2-287.1-107.2z"/>
	<g>
		<circle class="st5" cx="-290.8" cy="-162.3" r="9.5"/>
		<polyline class="st6" points="-299.4,-157.7 -329.4,-152.6 -329.4,-171.9 -299.4,-166.9 		"/>
		<g>
			<line class="st6" x1="-254.5" y1="-150.7" x2="-280.7" y2="-159.3"/>
			<line class="st6" x1="-280.7" y1="-165.2" x2="-254.5" y2="-173.9"/>
		</g>
	</g>
</g>
<g>
	<g>
		
			<linearGradient id="SVGID_00000178927481030513498200000017914320741751373490_" gradientUnits="userSpaceOnUse" x1="-82.228" y1="-115.1227" x2="-9.4636" y2="-115.1227">
			<stop  offset="0" style="stop-color:#00DCC4"/>
			<stop  offset="1" style="stop-color:#01AEF7"/>
		</linearGradient>
		<path style="fill:url(#SVGID_00000178927481030513498200000017914320741751373490_);" d="M-45.8-78.7c-20.1,0-36.4-16.3-36.4-36.4
			c0-20.1,16.3-36.4,36.4-36.4s36.4,16.3,36.4,36.4C-9.5-95.1-25.8-78.7-45.8-78.7z M-45.8-147.9c-18.1,0-32.8,14.7-32.8,32.8
			s14.7,32.8,32.8,32.8s32.8-14.7,32.8-32.8S-27.8-147.9-45.8-147.9z"/>
	</g>
	<g>
		
			<linearGradient id="SVGID_00000007419665973334775280000003418205185379581097_" gradientUnits="userSpaceOnUse" x1="-69.1647" y1="-121.2118" x2="-22.5269" y2="-121.2118">
			<stop  offset="0" style="stop-color:#00DCC4"/>
			<stop  offset="1" style="stop-color:#01AEF7"/>
		</linearGradient>
		<path style="fill:url(#SVGID_00000007419665973334775280000003418205185379581097_);" d="M-22.5-102.4h-46.6l23.3-37.7
			L-22.5-102.4z M-62.7-106H-29l-16.9-27.2L-62.7-106z"/>
	</g>
</g>
<linearGradient id="SVGID_00000030478030828495329530000007921995658226035895_" gradientUnits="userSpaceOnUse" x1="-232.0697" y1="42.2181" x2="-111.4569" y2="42.2181">
	<stop  offset="0" style="stop-color:#00DCC4"/>
	<stop  offset="1" style="stop-color:#01AEF7"/>
</linearGradient>
<path style="fill:none;stroke:url(#SVGID_00000030478030828495329530000007921995658226035895_);stroke-width:3;stroke-linecap:round;stroke-linejoin:round;stroke-miterlimit:10;" d="
	M-230.3,82h87.9c7.5,0,13.7-6.1,13.7-13.7V32.9c0-7.7,6.3-14,14-14h1.8c0,0-0.2-16.4-15.6-16.4s-14.9,15.3-14.9,15.3v29.8
	c0,10.9-8.8,19.7-19.7,19.7h-55.3c-6.8,0-12.4,5.7-12.1,12.5C-230.5,81.2-230.4,82.1-230.3,82z"/>
<linearGradient id="SVGID_00000016784744902626449910000003972760566271578781_" gradientUnits="userSpaceOnUse" x1="-232.4569" y1="31.2197" x2="-142.01" y2="31.2197">
	<stop  offset="0" style="stop-color:#00DCC4"/>
	<stop  offset="1" style="stop-color:#01AEF7"/>
</linearGradient>
<path style="fill:none;stroke:url(#SVGID_00000016784744902626449910000003972760566271578781_);stroke-width:3;stroke-linecap:round;stroke-linejoin:round;stroke-miterlimit:10;" d="
	M-221.2,67.3c-6.1-7.6-9.8-17.3-9.8-27.8c0-24.5,19.9-44.4,44.4-44.4c20.7,0,38,14.1,43,33.2"/>
<linearGradient id="SVGID_00000094578247325396428350000001847403767417039273_" gradientUnits="userSpaceOnUse" x1="-217.3458" y1="32.4341" x2="-155.6791" y2="32.4341">
	<stop  offset="0" style="stop-color:#00DCC4"/>
	<stop  offset="1" style="stop-color:#01AEF7"/>
</linearGradient>
<path style="fill:none;stroke:url(#SVGID_00000094578247325396428350000001847403767417039273_);stroke-width:3;stroke-linecap:round;stroke-linejoin:round;stroke-miterlimit:10;" d="
	M-161.4,54.7c2.7-4.4,4.2-9.6,4.2-15.1c0-16.2-13.1-29.3-29.3-29.3c-16.2,0-29.3,13.1-29.3,29.3c0,5.5,1.5,10.7,4.2,15.1H-161.4z"/>
<linearGradient id="SVGID_00000082368683253986127360000012781586656284383406_" gradientUnits="userSpaceOnUse" x1="-198.7532" y1="33.8403" x2="-184.1977" y2="33.8403">
	<stop  offset="0" style="stop-color:#00DCC4"/>
	<stop  offset="1" style="stop-color:#01AEF7"/>
</linearGradient>
<line style="fill:none;stroke:url(#SVGID_00000082368683253986127360000012781586656284383406_);stroke-width:3;stroke-linecap:round;stroke-linejoin:round;stroke-miterlimit:10;" x1="-185.7" y1="39.6" x2="-197.3" y2="28.1"/>
<path class="st13" d="M-127.3,2.1c0,0-0.4-11.1,11.7-11.3"/>
<g>
	<g>
		
			<linearGradient id="SVGID_00000179609919041804108450000003363183785850311812_" gradientUnits="userSpaceOnUse" x1="-151.372" y1="55.4092" x2="-25.1351" y2="55.4092">
			<stop  offset="0" style="stop-color:#00DCC4"/>
			<stop  offset="1" style="stop-color:#01AEF7"/>
		</linearGradient>
		<path style="fill:url(#SVGID_00000179609919041804108450000003363183785850311812_);" d="M-149.6,98.6c-0.2,0-0.4,0-0.5-0.1
			c-1.1-0.4-1.1-1.5-1.2-3.6c-0.1-3.9,1.3-7.5,4-10.3c2.7-2.8,6.3-4.3,10.2-4.3h57.9C-68.6,80.2-60,71.6-60,61V29.8
			c0-0.3-0.2-7.8,4.8-12.9c3-3.1,7.1-4.6,12.3-4.6c17.3,0,17.8,18.5,17.8,18.7c0,0.4-0.2,0.8-0.4,1.1c-0.3,0.3-0.7,0.4-1.1,0.4h-1.9
			c-7.3,0-13.2,5.9-13.2,13.2v37.1c0,8.7-7.1,15.8-15.8,15.8h-92C-149.5,98.6-149.6,98.6-149.6,98.6z M-148.3,95.6h90.8
			c7.1,0,12.8-5.8,12.8-12.8V45.6c0-8.9,7.3-16.2,16.2-16.2h0.2c-0.5-4-2.8-14.2-14.7-14.2c-4.3,0-7.7,1.2-10.1,3.7
			c-4.1,4.2-4,10.8-4,10.8l0,31.3c0,12.2-10,22.2-22.2,22.2h-57.9c-3.1,0-5.9,1.2-8.1,3.4c-2.1,2.2-3.2,5.1-3.1,8.1
			C-148.4,95.1-148.3,95.4-148.3,95.6z"/>
	</g>
	<g>
		
			<linearGradient id="SVGID_00000116195061490953559660000015910403195687550896_" gradientUnits="userSpaceOnUse" x1="-151.7778" y1="43.8875" x2="-57.1494" y2="43.8875">
			<stop  offset="0" style="stop-color:#00DCC4"/>
			<stop  offset="1" style="stop-color:#01AEF7"/>
		</linearGradient>
		<path style="fill:url(#SVGID_00000116195061490953559660000015910403195687550896_);" d="M-140.1,83.2c-0.4,0-0.9-0.2-1.2-0.6
			c-6.8-8.5-10.6-19.2-10.6-30.1c0-26.5,21.6-48.1,48.1-48.1c21.9,0,41,14.8,46.5,35.9c0.2,0.8-0.3,1.6-1.1,1.8
			c-0.8,0.2-1.6-0.3-1.8-1.1c-5.2-19.8-23.1-33.6-43.6-33.6c-24.9,0-45.1,20.2-45.1,45.1c0,10.4,3.4,20.1,9.9,28.2
			c0.5,0.6,0.4,1.6-0.2,2.1C-139.4,83.1-139.7,83.2-140.1,83.2z"/>
	</g>
	<g>
		
			<linearGradient id="SVGID_00000056391693499494500600000016760898311984123041_" gradientUnits="userSpaceOnUse" x1="-135.9443" y1="45.1602" x2="-71.4721" y2="45.1602">
			<stop  offset="0" style="stop-color:#00DCC4"/>
			<stop  offset="1" style="stop-color:#01AEF7"/>
		</linearGradient>
		<path style="fill:url(#SVGID_00000056391693499494500600000016760898311984123041_);" d="M-77.4,69.9H-130c-0.5,0-1-0.3-1.3-0.7
			c-3-5-4.6-10.7-4.6-16.6c0-17.8,14.5-32.2,32.2-32.2c17.8,0,32.2,14.5,32.2,32.2c0,5.9-1.6,11.6-4.6,16.6
			C-76.4,69.7-76.8,69.9-77.4,69.9z M-129.2,66.9h51c2.5-4.4,3.8-9.3,3.8-14.3c0-16.1-13.1-29.2-29.2-29.2
			c-16.1,0-29.2,13.1-29.2,29.2C-132.9,57.6-131.6,62.6-129.2,66.9z"/>
	</g>
	<g>
		
			<linearGradient id="SVGID_00000058569117042268419410000000276600700517321377_" gradientUnits="userSpaceOnUse" x1="-116.4623" y1="46.6335" x2="-101.3544" y2="46.6335">
			<stop  offset="0" style="stop-color:#00DCC4"/>
			<stop  offset="1" style="stop-color:#01AEF7"/>
		</linearGradient>
		<path style="fill:url(#SVGID_00000058569117042268419410000000276600700517321377_);" d="M-102.9,54.2c-0.4,0-0.8-0.1-1.1-0.4
			L-116,41.6c-0.6-0.6-0.6-1.5,0-2.1c0.6-0.6,1.5-0.6,2.1,0l12.1,12.1c0.6,0.6,0.6,1.5,0,2.1C-102.1,54-102.5,54.2-102.9,54.2z"/>
	</g>
	<g>
		<path class="st18" d="M-41.7,14.9c-0.8,0-1.5-0.6-1.5-1.4c0-0.2-0.2-5.6,3.5-9.5c2.4-2.5,5.8-3.9,10.2-4c0,0,0,0,0,0
			c0.8,0,1.5,0.7,1.5,1.5c0,0.8-0.6,1.5-1.5,1.5c-3.5,0.1-6.2,1.1-8,3c-2.8,3-2.7,7.3-2.7,7.3C-40.1,14.1-40.8,14.8-41.7,14.9
			C-41.6,14.9-41.6,14.9-41.7,14.9z"/>
	</g>
</g>
</svg>
