<?xml version="1.0" encoding="utf-8"?>
<!-- Generator: Adobe Illustrator 27.5.0, SVG Export Plug-In . SVG Version: 6.00 Build 0)  -->
<svg version="1.1" id="Layer_1" xmlns="http://www.w3.org/2000/svg" xmlns:xlink="http://www.w3.org/1999/xlink" x="0px" y="0px"
	 viewBox="0 0 206.2 237" style="enable-background:new 0 0 206.2 237;" xml:space="preserve">
<style type="text/css">
	.st0{fill:#FFFFFF;}
	.st1{fill:#CCCCCC;}
	.st2{fill:#F2DFEE;}
	.st3{fill:#C13ABB;}
	.st4{fill:#ED1C24;}
	.st5{fill:#FBB03B;}
	.st6{fill:#39B54A;}
	.st7{fill:#E8CFE7;}
	.st8{fill:#DD80D2;}
	.st9{fill:#DFF2E8;}
	.st10{fill:#3AC13D;}
	.st11{fill:#D2E8CF;}
	.st12{fill:#85DD80;}
	.st13{fill:#EFEEDF;}
	.st14{fill:#BFB83C;}
	.st15{fill:#E4E5CF;}
	.st16{fill:#DBD882;}
	.st17{fill:url(#SVGID_1_);}
	.st18{fill:#CCCCCC;stroke:#132241;stroke-width:0.75;stroke-miterlimit:10;}
	.st19{fill:#EDEDED;stroke:#132241;stroke-width:0.75;stroke-miterlimit:10;}
	.st20{fill:#F2F6FC;}
	.st21{fill:#396DC4;}
	.st22{fill:#EDEDED;}
	.st23{fill:#D2E5FE;}
	.st24{fill:#CCCCCC;stroke:#132241;stroke-width:0.8297;stroke-miterlimit:10;}
	.st25{fill:#EDEDED;stroke:#132241;stroke-width:0.8297;stroke-miterlimit:10;}
	.st26{fill:#02BBF8;}
	.st27{fill:none;stroke:#02BBF8;stroke-width:5;stroke-linecap:round;stroke-linejoin:round;stroke-miterlimit:10;}
	.st28{fill:url(#SVGID_00000090253205398774048990000013316265015729804732_);}
	.st29{fill:url(#SVGID_00000060713065987410384690000012293421003192025225_);}
	.st30{fill:none;stroke:#02BBF8;stroke-width:2.5041;stroke-linecap:round;stroke-linejoin:round;stroke-miterlimit:10;}
	.st31{fill:none;stroke:#02BBF8;stroke-width:2.7646;stroke-linecap:round;stroke-linejoin:round;stroke-miterlimit:10;}
	.st32{fill:none;stroke:#02BBF8;stroke-width:2.6868;stroke-linecap:round;stroke-linejoin:round;stroke-miterlimit:10;}
	.st33{fill:url(#SVGID_00000057132287109451464550000013843267258408787858_);}
	.st34{fill:url(#SVGID_00000109025357130511941520000012724344828117051026_);}
	
		.st35{fill:none;stroke:url(#SVGID_00000036253108735691315050000001551753395918166164_);stroke-width:3;stroke-linecap:round;stroke-linejoin:round;stroke-miterlimit:10;}
	
		.st36{fill:none;stroke:url(#SVGID_00000097458283277431332540000006695593704698972089_);stroke-width:3;stroke-linecap:round;stroke-linejoin:round;stroke-miterlimit:10;}
	
		.st37{fill:none;stroke:url(#SVGID_00000116236712682557347300000013825334145477515395_);stroke-width:3;stroke-linecap:round;stroke-linejoin:round;stroke-miterlimit:10;}
	
		.st38{fill:none;stroke:url(#SVGID_00000097472464570348433410000010868044268269436052_);stroke-width:3;stroke-linecap:round;stroke-linejoin:round;stroke-miterlimit:10;}
	.st39{fill:none;stroke:#01AEF7;stroke-width:3;stroke-linecap:round;stroke-linejoin:round;stroke-miterlimit:10;}
	.st40{fill:url(#SVGID_00000150066547793961655140000012580657699433930638_);}
	.st41{fill:url(#SVGID_00000118355278541450589260000010340558260165631646_);}
	.st42{fill:url(#SVGID_00000013896589896401713900000016799427543017544629_);}
	
		.st43{fill:none;stroke:url(#SVGID_00000049199569062731401580000001336589664135481245_);stroke-width:2;stroke-linecap:round;stroke-linejoin:round;stroke-miterlimit:10;}
	
		.st44{fill:none;stroke:url(#SVGID_00000044884178948877819220000012048633559733692290_);stroke-width:2;stroke-linecap:round;stroke-linejoin:round;stroke-miterlimit:10;}
	
		.st45{fill:none;stroke:url(#SVGID_00000173839043606023303560000008915360129512875653_);stroke-width:2;stroke-linecap:round;stroke-linejoin:round;stroke-miterlimit:10;}
	
		.st46{fill:none;stroke:url(#SVGID_00000059991915677216106300000010334066720369717407_);stroke-width:2;stroke-linecap:round;stroke-linejoin:round;stroke-miterlimit:10;}
	.st47{fill:url(#SVGID_00000156588362923499809510000007336721826187492264_);}
	.st48{fill:url(#SVGID_00000181065030685735212970000008334549734077842837_);}
	.st49{fill:url(#SVGID_00000054227170065200540240000002248464885485396389_);}
	.st50{fill:url(#SVGID_00000173144816341546590510000017827441129580193966_);}
	.st51{fill:none;stroke:#02BBF8;stroke-width:3.1188;stroke-linecap:round;stroke-linejoin:round;stroke-miterlimit:10;}
	.st52{fill:url(#SVGID_00000096017103692170710470000014025978877083575452_);}
	.st53{fill:url(#SVGID_00000152226907394580073260000003883189448181897111_);}
	.st54{fill:url(#SVGID_00000124840062819419603730000011937232672694336653_);}
	.st55{fill:url(#SVGID_00000075848719043004086450000015521322875885822908_);}
	.st56{fill:url(#SVGID_00000131362544241998230540000002624675224160601478_);}
	.st57{fill:url(#SVGID_00000121277514453475249410000017152979304522789765_);}
	.st58{fill:url(#SVGID_00000036208998365448216260000005746703922848612239_);}
	
		.st59{fill:none;stroke:url(#SVGID_00000035504693337644170050000003311311924910360204_);stroke-width:2.9411;stroke-miterlimit:10;}
	
		.st60{fill:none;stroke:url(#SVGID_00000028292398445679161300000005880293300436542888_);stroke-width:2.9411;stroke-miterlimit:10;}
	
		.st61{fill:none;stroke:url(#SVGID_00000009563018175904707640000001073385831284209311_);stroke-width:2.9411;stroke-miterlimit:10;}
	
		.st62{fill:none;stroke:url(#SVGID_00000102508439045297957000000002040130769000220293_);stroke-width:2.9411;stroke-linecap:round;stroke-linejoin:round;stroke-miterlimit:10;}
	
		.st63{fill:none;stroke:url(#SVGID_00000109017025374916828750000016174082813615505050_);stroke-width:2.9411;stroke-linecap:round;stroke-linejoin:round;stroke-miterlimit:10;}
	
		.st64{fill:none;stroke:url(#SVGID_00000008132050398739586260000006774645772102446248_);stroke-width:2.9411;stroke-linecap:round;stroke-linejoin:round;stroke-miterlimit:10;}
	
		.st65{fill:none;stroke:url(#SVGID_00000067933961042948704550000015293059992384017563_);stroke-width:2.9411;stroke-linecap:round;stroke-linejoin:round;stroke-miterlimit:10;}
	.st66{fill:none;stroke:url(#SVGID_00000105427041101367476470000013769388258893387410_);stroke-width:3;stroke-miterlimit:10;}
	.st67{fill:none;stroke:url(#SVGID_00000049943364376246229180000011440922547261413271_);stroke-width:3;stroke-miterlimit:10;}
	.st68{fill:none;stroke:url(#SVGID_00000018238002860944365440000000030846476814988171_);stroke-width:3;stroke-miterlimit:10;}
	.st69{fill:none;stroke:url(#SVGID_00000114762833397772882550000004377155586157377679_);stroke-width:3;stroke-miterlimit:10;}
	.st70{fill:none;stroke:url(#SVGID_00000176728145209748343250000006171008634306342320_);stroke-width:3;stroke-miterlimit:10;}
	.st71{fill:url(#SVGID_00000090998779362950750520000010075939732281088692_);}
	.st72{fill:url(#SVGID_00000042704943385053527790000006365435571266197671_);}
	.st73{fill:url(#SVGID_00000149349795720331758990000002903318182509272466_);}
	.st74{fill:url(#SVGID_00000036963795783283239770000011549016821628071337_);}
	.st75{fill:url(#SVGID_00000078747929318448310670000000789381976676011675_);}
	.st76{fill:url(#SVGID_00000119099828544689369330000002223484068651664316_);}
	.st77{fill:url(#SVGID_00000049203992897185580550000009720497032267617465_);}
	
		.st78{fill:none;stroke:url(#SVGID_00000060024073207733999140000014124085976958186373_);stroke-width:3;stroke-linecap:round;stroke-linejoin:round;stroke-miterlimit:10;}
	
		.st79{fill:none;stroke:url(#SVGID_00000039104652438183968510000012550924918385339012_);stroke-width:3;stroke-linecap:round;stroke-linejoin:round;stroke-miterlimit:10;}
	
		.st80{fill:none;stroke:url(#SVGID_00000121249114927853644050000009411826841440725427_);stroke-width:3;stroke-linecap:round;stroke-linejoin:round;stroke-miterlimit:10;}
	
		.st81{fill:none;stroke:url(#SVGID_00000119814662107990781750000015926065685354897578_);stroke-width:3;stroke-linecap:round;stroke-linejoin:round;stroke-miterlimit:10;}
	
		.st82{fill:none;stroke:url(#SVGID_00000143617003877684737340000001416461830537327508_);stroke-width:3;stroke-linecap:round;stroke-linejoin:round;stroke-miterlimit:10;}
	
		.st83{fill:none;stroke:url(#SVGID_00000018938331161691902490000012536253054518826158_);stroke-width:2.8668;stroke-linecap:round;stroke-linejoin:round;stroke-miterlimit:10;}
	
		.st84{fill:none;stroke:url(#SVGID_00000116202302651336789510000004100167674762426519_);stroke-width:2.8668;stroke-linecap:round;stroke-linejoin:round;stroke-miterlimit:10;}
	
		.st85{fill:none;stroke:url(#SVGID_00000143594633459238928210000002603953653163154332_);stroke-width:2.8668;stroke-linecap:round;stroke-linejoin:round;stroke-miterlimit:10;}
	.st86{opacity:0.38;fill:none;stroke:#FFFFFF;stroke-width:1.158;stroke-miterlimit:10;}
	.st87{opacity:0.38;fill:none;stroke:#FFFFFF;stroke-width:0.9345;stroke-miterlimit:10;}
	.st88{fill:#DFE8F4;}
	.st89{fill:#CED9EA;}
	.st90{fill:#80A7E0;}
	.st91{fill:#CCCCCC;stroke:#132241;stroke-width:1.466;stroke-miterlimit:10;}
	.st92{fill:#EDEDED;stroke:#132241;stroke-width:1.3457;stroke-miterlimit:10;}
	.st93{fill:#132241;}
	.st94{fill:none;stroke:#FFFFFF;stroke-width:6;stroke-miterlimit:10;}
</style>
<g>
	<g>
		
			<image style="overflow:visible;opacity:0.35;" width="135" height="197" xlink:href="4B4D302D.png"  transform="matrix(1 0 0 1 -7.835174e-02 46.4367)">
		</image>
		<g>
			<path class="st0" d="M109.8,54.7H11.3c-1.7,0-3,1.3-3,3v160c0,1.7,1.3,3,3,3h98.4c1.7,0,3-1.3,3-3v-160
				C112.8,56,111.4,54.7,109.8,54.7z"/>
		</g>
	</g>
	<path class="st1" d="M112.8,65.6H8.3v-7.9c0-1.7,1.3-3,3-3h98.4c1.7,0,3,1.3,3,3V65.6z"/>
	<rect x="8.3" y="65.5" class="st2" width="104.4" height="37.9"/>
	<path class="st1" d="M54.8,75.1H16.7c-1.2,0-2.1,0.9-2.1,2.1v0c0,1.2,0.9,2.1,2.1,2.1h38.1c1.2,0,2.1-0.9,2.1-2.1v0
		C56.9,76.1,56,75.1,54.8,75.1z"/>
	<path class="st1" d="M45.8,82H16.5c-1,0-1.9,0.8-1.9,1.9v0.5c0,1,0.8,1.9,1.9,1.9h29.3c1,0,1.9-0.8,1.9-1.9v-0.5
		C47.6,82.8,46.8,82,45.8,82z"/>
	<path class="st3" d="M35.9,89.4H17.4c-1.5,0-2.8,1.2-2.8,2.8v0c0,1.5,1.2,2.8,2.8,2.8h18.5c1.5,0,2.8-1.2,2.8-2.8v0
		C38.6,90.6,37.4,89.4,35.9,89.4z"/>
	<g>
		<path class="st1" d="M40.3,153.5h-24c-1.2,0-2.1,0.9-2.1,2.1l0,0c0,1.2,0.9,2.1,2.1,2.1h24c1.2,0,2.1-0.9,2.1-2.1l0,0
			C42.4,154.5,41.5,153.5,40.3,153.5z"/>
		<path class="st1" d="M40.3,160.8h-24c-1.2,0-2.1,0.9-2.1,2.1v0c0,1.2,0.9,2.1,2.1,2.1h24c1.2,0,2.1-0.9,2.1-2.1v0
			C42.4,161.7,41.5,160.8,40.3,160.8z"/>
		<path class="st1" d="M40.3,168h-24c-1.2,0-2.1,0.9-2.1,2.1l0,0c0,1.2,0.9,2.1,2.1,2.1h24c1.2,0,2.1-0.9,2.1-2.1l0,0
			C42.4,168.9,41.5,168,40.3,168z"/>
	</g>
	<path class="st1" d="M104.4,109.7H16.7c-1.2,0-2.1,0.9-2.1,2.1l0,0c0,1.2,0.9,2.1,2.1,2.1h87.7c1.2,0,2.1-0.9,2.1-2.1l0,0
		C106.5,110.6,105.6,109.7,104.4,109.7z"/>
	<path class="st1" d="M88.2,116.9H16.5c-1,0-1.9,0.9-1.9,1.9v0.4c0,1,0.9,1.9,1.9,1.9h71.7c1,0,1.9-0.9,1.9-1.9v-0.4
		C90.1,117.8,89.3,116.9,88.2,116.9z"/>
	<g>
		<circle class="st4" cx="100.1" cy="60.2" r="1.3"/>
		<circle class="st5" cx="103.8" cy="60.2" r="1.3"/>
		<circle class="st6" cx="107.5" cy="60.2" r="1.3"/>
	</g>
	<path class="st0" d="M91.5,62.6H15.2c-1.4,0-2.5-1.1-2.5-2.5v0c0-1.4,1.1-2.5,2.5-2.5h76.3c1.4,0,2.5,1.1,2.5,2.5v0
		C94,61.5,92.9,62.6,91.5,62.6z"/>
	<rect x="64.2" y="71.6" class="st7" width="42.3" height="25.5"/>
	<circle class="st0" cx="95.4" cy="85.6" r="5.2"/>
	<polygon class="st0" points="79.3,85.6 88.1,97.1 70.6,97.1 	"/>
	<polygon class="st8" points="88.9,82.5 100.1,97.1 78,97.1 	"/>
	<rect x="14.2" y="126.9" class="st7" width="28.3" height="23.6"/>
	<circle class="st0" cx="35.7" cy="140.8" r="3.9"/>
	<polygon class="st0" points="23.2,140.7 30.7,150.5 15.7,150.5 	"/>
	<polygon class="st8" points="31.4,138 41,150.5 22,150.5 	"/>
	<g>
		<path class="st1" d="M72.6,153.5h-24c-1.2,0-2.1,0.9-2.1,2.1l0,0c0,1.2,0.9,2.1,2.1,2.1h24c1.2,0,2.1-0.9,2.1-2.1l0,0
			C74.7,154.5,73.8,153.5,72.6,153.5z"/>
		<path class="st1" d="M72.6,160.8h-24c-1.2,0-2.1,0.9-2.1,2.1v0c0,1.2,0.9,2.1,2.1,2.1h24c1.2,0,2.1-0.9,2.1-2.1v0
			C74.7,161.7,73.8,160.8,72.6,160.8z"/>
		<path class="st1" d="M72.6,168h-24c-1.2,0-2.1,0.9-2.1,2.1l0,0c0,1.2,0.9,2.1,2.1,2.1h24c1.2,0,2.1-0.9,2.1-2.1l0,0
			C74.7,168.9,73.8,168,72.6,168z"/>
	</g>
	<rect x="46.5" y="126.9" class="st7" width="28.3" height="23.6"/>
	<circle class="st0" cx="68" cy="140.8" r="3.9"/>
	<polygon class="st0" points="55.5,140.7 63,150.5 48,150.5 	"/>
	<polygon class="st8" points="63.7,138 73.3,150.5 54.3,150.5 	"/>
	<g>
		<path class="st1" d="M104.9,153.5h-24c-1.2,0-2.1,0.9-2.1,2.1l0,0c0,1.2,0.9,2.1,2.1,2.1h24c1.2,0,2.1-0.9,2.1-2.1l0,0
			C107,154.5,106.1,153.5,104.9,153.5z"/>
		<path class="st1" d="M104.9,160.8h-24c-1.2,0-2.1,0.9-2.1,2.1v0c0,1.2,0.9,2.1,2.1,2.1h24c1.2,0,2.1-0.9,2.1-2.1v0
			C107,161.7,106.1,160.8,104.9,160.8z"/>
		<path class="st1" d="M104.9,168h-24c-1.2,0-2.1,0.9-2.1,2.1l0,0c0,1.2,0.9,2.1,2.1,2.1h24c1.2,0,2.1-0.9,2.1-2.1l0,0
			C107,168.9,106.1,168,104.9,168z"/>
	</g>
	<g>
		<path class="st1" d="M60.5,179H16.3c-1.2,0-2.1,0.9-2.1,2.1l0,0c0,1.2,0.9,2.1,2.1,2.1h44.2c1.2,0,2.1-0.9,2.1-2.1l0,0
			C62.6,180,61.7,179,60.5,179z"/>
		<path class="st1" d="M60.5,186.2H16.3c-1.2,0-2.1,0.9-2.1,2.1v0c0,1.2,0.9,2.1,2.1,2.1h44.2c1.2,0,2.1-0.9,2.1-2.1v0
			C62.6,187.1,61.7,186.2,60.5,186.2z"/>
		<path class="st1" d="M60.5,193.4H16.3c-1.2,0-2.1,0.9-2.1,2.1v0c0,1.2,0.9,2.1,2.1,2.1h44.2c1.2,0,2.1-0.9,2.1-2.1v0
			C62.6,194.3,61.7,193.4,60.5,193.4z"/>
		<path class="st1" d="M60.5,200.6H16.3c-1.2,0-2.1,0.9-2.1,2.1l0,0c0,1.2,0.9,2.1,2.1,2.1h44.2c1.2,0,2.1-0.9,2.1-2.1l0,0
			C62.6,201.5,61.7,200.6,60.5,200.6z"/>
		<path class="st1" d="M41.9,207.7H16.3c-1.2,0-2.1,0.9-2.1,2.1l0,0c0,1.2,0.9,2.1,2.1,2.1h25.5c1.2,0,2.1-0.9,2.1-2.1l0,0
			C44,208.7,43,207.7,41.9,207.7z"/>
	</g>
	<rect x="78.8" y="126.9" class="st7" width="28.3" height="23.6"/>
	<circle class="st0" cx="100.3" cy="140.8" r="3.9"/>
	<polygon class="st0" points="87.7,140.7 95.3,150.5 80.3,150.5 	"/>
	<polygon class="st8" points="96,138 105.6,150.5 86.6,150.5 	"/>
	<rect x="67.2" y="178.6" class="st7" width="39.9" height="33.3"/>
	<circle class="st0" cx="97.5" cy="198.1" r="5.6"/>
	<polygon class="st0" points="79.8,198 90.4,211.9 69.3,211.9 	"/>
	<polygon class="st8" points="91.5,194.3 105,211.9 78.2,211.9 	"/>
</g>
<g>
	<g>
		
			<image style="overflow:visible;opacity:0.35;" width="136" height="197" xlink:href="4B4D302F.png"  transform="matrix(1 0 0 1 73.6254 38.9552)">
		</image>
		<g>
			<path class="st0" d="M183.9,47.8H85.5c-1.7,0-3,1.3-3,3v160c0,1.7,1.3,3,3,3h98.4c1.7,0,3-1.3,3-3v-160
				C186.9,49.2,185.6,47.8,183.9,47.8z"/>
		</g>
	</g>
	<path class="st1" d="M186.9,58.8H82.5v-7.9c0-1.7,1.3-3,3-3h98.4c1.7,0,3,1.3,3,3V58.8z"/>
	<rect x="82.5" y="58.7" class="st9" width="104.4" height="37.9"/>
	<path class="st1" d="M129,68.3H90.9c-1.2,0-2.1,0.9-2.1,2.1l0,0c0,1.2,0.9,2.1,2.1,2.1H129c1.2,0,2.1-0.9,2.1-2.1l0,0
		C131.1,69.3,130.1,68.3,129,68.3z"/>
	<path class="st1" d="M119.9,75.1H90.6c-1,0-1.9,0.8-1.9,1.9v0.5c0,1,0.8,1.9,1.9,1.9h29.3c1,0,1.9-0.8,1.9-1.9V77
		C121.8,76,120.9,75.1,119.9,75.1z"/>
	<path class="st10" d="M110,82.6H91.6c-1.5,0-2.8,1.2-2.8,2.8v0c0,1.5,1.2,2.8,2.8,2.8H110c1.5,0,2.8-1.2,2.8-2.8v0
		C112.8,83.8,111.6,82.6,110,82.6z"/>
	<g>
		<path class="st1" d="M114.5,146.7h-24c-1.2,0-2.1,0.9-2.1,2.1v0c0,1.2,0.9,2.1,2.1,2.1h24c1.2,0,2.1-0.9,2.1-2.1v0
			C116.6,147.7,115.7,146.7,114.5,146.7z"/>
		<path class="st1" d="M114.5,154h-24c-1.2,0-2.1,0.9-2.1,2.1l0,0c0,1.2,0.9,2.1,2.1,2.1h24c1.2,0,2.1-0.9,2.1-2.1l0,0
			C116.6,154.9,115.7,154,114.5,154z"/>
		<path class="st1" d="M114.5,161.2h-24c-1.2,0-2.1,0.9-2.1,2.1l0,0c0,1.2,0.9,2.1,2.1,2.1h24c1.2,0,2.1-0.9,2.1-2.1l0,0
			C116.6,162.1,115.7,161.2,114.5,161.2z"/>
	</g>
	<path class="st1" d="M178.6,102.9H90.9c-1.2,0-2.1,0.9-2.1,2.1v0c0,1.2,0.9,2.1,2.1,2.1h87.7c1.2,0,2.1-0.9,2.1-2.1v0
		C180.7,103.8,179.7,102.9,178.6,102.9z"/>
	<path class="st1" d="M162.4,110.1H90.7c-1,0-1.9,0.9-1.9,1.9v0.4c0,1,0.9,1.9,1.9,1.9h71.7c1,0,1.9-0.9,1.9-1.9V112
		C164.3,110.9,163.4,110.1,162.4,110.1z"/>
	<g>
		<circle class="st4" cx="174.2" cy="53.4" r="1.3"/>
		<circle class="st5" cx="177.9" cy="53.4" r="1.3"/>
		<circle class="st6" cx="181.7" cy="53.4" r="1.3"/>
	</g>
	<path class="st0" d="M165.7,55.8H89.4c-1.4,0-2.5-1.1-2.5-2.5v0c0-1.4,1.1-2.5,2.5-2.5h76.3c1.4,0,2.5,1.1,2.5,2.5v0
		C168.1,54.7,167,55.8,165.7,55.8z"/>
	<rect x="138.4" y="64.8" class="st11" width="42.3" height="25.5"/>
	<circle class="st0" cx="169.6" cy="78.8" r="5.2"/>
	<polygon class="st0" points="153.4,78.8 162.2,90.3 144.8,90.3 	"/>
	<polygon class="st12" points="163.1,75.7 174.2,90.3 152.1,90.3 	"/>
	<rect x="88.4" y="120.1" class="st11" width="28.3" height="23.6"/>
	<circle class="st0" cx="109.9" cy="133.9" r="3.9"/>
	<polygon class="st0" points="97.3,133.8 104.9,143.7 89.9,143.7 	"/>
	<polygon class="st12" points="105.6,131.2 115.2,143.7 96.2,143.7 	"/>
	<g>
		<path class="st1" d="M146.8,146.7h-24c-1.2,0-2.1,0.9-2.1,2.1v0c0,1.2,0.9,2.1,2.1,2.1h24c1.2,0,2.1-0.9,2.1-2.1v0
			C148.9,147.7,148,146.7,146.8,146.7z"/>
		<path class="st1" d="M146.8,154h-24c-1.2,0-2.1,0.9-2.1,2.1l0,0c0,1.2,0.9,2.1,2.1,2.1h24c1.2,0,2.1-0.9,2.1-2.1l0,0
			C148.9,154.9,148,154,146.8,154z"/>
		<path class="st1" d="M146.8,161.2h-24c-1.2,0-2.1,0.9-2.1,2.1l0,0c0,1.2,0.9,2.1,2.1,2.1h24c1.2,0,2.1-0.9,2.1-2.1l0,0
			C148.9,162.1,148,161.2,146.8,161.2z"/>
	</g>
	<rect x="120.7" y="120.1" class="st11" width="28.3" height="23.6"/>
	<circle class="st0" cx="142.1" cy="133.9" r="3.9"/>
	<polygon class="st0" points="129.6,133.8 137.2,143.7 122.2,143.7 	"/>
	<polygon class="st12" points="137.9,131.2 147.5,143.7 128.5,143.7 	"/>
	<g>
		<path class="st1" d="M179.1,146.7h-24c-1.2,0-2.1,0.9-2.1,2.1v0c0,1.2,0.9,2.1,2.1,2.1h24c1.2,0,2.1-0.9,2.1-2.1v0
			C181.2,147.7,180.2,146.7,179.1,146.7z"/>
		<path class="st1" d="M179.1,154h-24c-1.2,0-2.1,0.9-2.1,2.1l0,0c0,1.2,0.9,2.1,2.1,2.1h24c1.2,0,2.1-0.9,2.1-2.1l0,0
			C181.2,154.9,180.2,154,179.1,154z"/>
		<path class="st1" d="M179.1,161.2h-24c-1.2,0-2.1,0.9-2.1,2.1l0,0c0,1.2,0.9,2.1,2.1,2.1h24c1.2,0,2.1-0.9,2.1-2.1l0,0
			C181.2,162.1,180.2,161.2,179.1,161.2z"/>
	</g>
	<g>
		<path class="st1" d="M134.7,172.2H90.5c-1.2,0-2.1,0.9-2.1,2.1v0c0,1.2,0.9,2.1,2.1,2.1h44.2c1.2,0,2.1-0.9,2.1-2.1v0
			C136.8,173.1,135.9,172.2,134.7,172.2z"/>
		<path class="st1" d="M134.7,179.4H90.5c-1.2,0-2.1,0.9-2.1,2.1l0,0c0,1.2,0.9,2.1,2.1,2.1h44.2c1.2,0,2.1-0.9,2.1-2.1l0,0
			C136.8,180.3,135.9,179.4,134.7,179.4z"/>
		<path class="st1" d="M134.7,186.6H90.5c-1.2,0-2.1,0.9-2.1,2.1l0,0c0,1.2,0.9,2.1,2.1,2.1h44.2c1.2,0,2.1-0.9,2.1-2.1l0,0
			C136.8,187.5,135.9,186.6,134.7,186.6z"/>
		<path class="st1" d="M134.7,193.8H90.5c-1.2,0-2.1,0.9-2.1,2.1l0,0c0,1.2,0.9,2.1,2.1,2.1h44.2c1.2,0,2.1-0.9,2.1-2.1l0,0
			C136.8,194.7,135.9,193.8,134.7,193.8z"/>
		<path class="st1" d="M116,200.9H90.5c-1.2,0-2.1,0.9-2.1,2.1l0,0c0,1.2,0.9,2.1,2.1,2.1H116c1.2,0,2.1-0.9,2.1-2.1l0,0
			C118.1,201.9,117.2,200.9,116,200.9z"/>
	</g>
	<rect x="153" y="120.1" class="st11" width="28.3" height="23.6"/>
	<circle class="st0" cx="174.4" cy="133.9" r="3.9"/>
	<polygon class="st0" points="161.9,133.8 169.5,143.7 154.5,143.7 	"/>
	<polygon class="st12" points="170.2,131.2 179.7,143.7 160.8,143.7 	"/>
	<rect x="141.4" y="171.8" class="st11" width="39.9" height="33.3"/>
	<circle class="st0" cx="171.6" cy="191.3" r="5.6"/>
	<polygon class="st0" points="154,191.2 164.6,205.1 143.5,205.1 	"/>
	<polygon class="st12" points="165.6,187.5 179.1,205.1 152.4,205.1 	"/>
</g>
<g>
	<g>
		
			<image style="overflow:visible;opacity:0.35;" width="136" height="197" xlink:href="4B4D302A.png"  transform="matrix(1 0 0 1 62.6254 -3.0448)">
		</image>
		<g>
			<path class="st0" d="M172.7,5.2H74.3c-1.7,0-3,1.3-3,3v160c0,1.7,1.3,3,3,3h98.4c1.7,0,3-1.3,3-3V8.2
				C175.7,6.5,174.3,5.2,172.7,5.2z"/>
		</g>
	</g>
	<path class="st1" d="M175.7,16.1H71.3V8.2c0-1.7,1.3-3,3-3h98.4c1.7,0,3,1.3,3,3V16.1z"/>
	<rect x="71.2" y="16" class="st13" width="104.4" height="37.9"/>
	<path class="st1" d="M117.7,25.6H79.6c-1.2,0-2.1,0.9-2.1,2.1v0c0,1.2,0.9,2.1,2.1,2.1h38.1c1.2,0,2.1-0.9,2.1-2.1v0
		C119.8,26.6,118.9,25.6,117.7,25.6z"/>
	<path class="st1" d="M108.7,32.5H79.4c-1,0-1.9,0.8-1.9,1.9v0.5c0,1,0.8,1.9,1.9,1.9h29.3c1,0,1.9-0.8,1.9-1.9v-0.5
		C110.5,33.3,109.7,32.5,108.7,32.5z"/>
	<path class="st14" d="M98.8,39.9H80.3c-1.5,0-2.8,1.2-2.8,2.8v0c0,1.5,1.2,2.8,2.8,2.8h18.5c1.5,0,2.8-1.2,2.8-2.8v0
		C101.5,41.1,100.3,39.9,98.8,39.9z"/>
	<g>
		<path class="st1" d="M103.3,104.1h-24c-1.2,0-2.1,0.9-2.1,2.1v0c0,1.2,0.9,2.1,2.1,2.1h24c1.2,0,2.1-0.9,2.1-2.1v0
			C105.3,105,104.4,104.1,103.3,104.1z"/>
		<path class="st1" d="M103.3,111.3h-24c-1.2,0-2.1,0.9-2.1,2.1v0c0,1.2,0.9,2.1,2.1,2.1h24c1.2,0,2.1-0.9,2.1-2.1v0
			C105.3,112.2,104.4,111.3,103.3,111.3z"/>
		<path class="st1" d="M103.3,118.5h-24c-1.2,0-2.1,0.9-2.1,2.1l0,0c0,1.2,0.9,2.1,2.1,2.1h24c1.2,0,2.1-0.9,2.1-2.1l0,0
			C105.3,119.4,104.4,118.5,103.3,118.5z"/>
	</g>
	<path class="st1" d="M167.3,60.2H79.6c-1.2,0-2.1,0.9-2.1,2.1v0c0,1.2,0.9,2.1,2.1,2.1h87.7c1.2,0,2.1-0.9,2.1-2.1v0
		C169.4,61.1,168.5,60.2,167.3,60.2z"/>
	<path class="st1" d="M151.1,67.4H79.4c-1,0-1.9,0.9-1.9,1.9v0.4c0,1,0.9,1.9,1.9,1.9h71.7c1,0,1.9-0.9,1.9-1.9v-0.4
		C153,68.3,152.2,67.4,151.1,67.4z"/>
	<g>
		<circle class="st4" cx="163" cy="10.7" r="1.3"/>
		<circle class="st5" cx="166.7" cy="10.7" r="1.3"/>
		<circle class="st6" cx="170.4" cy="10.7" r="1.3"/>
	</g>
	<path class="st0" d="M154.4,13.2H78.1c-1.4,0-2.5-1.1-2.5-2.5v0c0-1.4,1.1-2.5,2.5-2.5h76.3c1.4,0,2.5,1.1,2.5,2.5v0
		C156.9,12,155.8,13.2,154.4,13.2z"/>
	<rect x="127.1" y="22.1" class="st15" width="42.3" height="25.5"/>
	<circle class="st0" cx="158.4" cy="36.1" r="5.2"/>
	<polygon class="st0" points="142.2,36.1 151,47.6 133.5,47.6 	"/>
	<polygon class="st16" points="151.8,33.1 163,47.6 140.9,47.6 	"/>
	<rect x="77.2" y="77.4" class="st15" width="28.3" height="23.6"/>
	<circle class="st0" cx="98.6" cy="91.3" r="3.9"/>
	<polygon class="st0" points="86.1,91.2 93.6,101.1 78.7,101.1 	"/>
	<polygon class="st16" points="94.3,88.5 103.9,101.1 84.9,101.1 	"/>
	<g>
		<path class="st1" d="M135.5,104.1h-24c-1.2,0-2.1,0.9-2.1,2.1v0c0,1.2,0.9,2.1,2.1,2.1h24c1.2,0,2.1-0.9,2.1-2.1v0
			C137.6,105,136.7,104.1,135.5,104.1z"/>
		<path class="st1" d="M135.5,111.3h-24c-1.2,0-2.1,0.9-2.1,2.1v0c0,1.2,0.9,2.1,2.1,2.1h24c1.2,0,2.1-0.9,2.1-2.1v0
			C137.6,112.2,136.7,111.3,135.5,111.3z"/>
		<path class="st1" d="M135.5,118.5h-24c-1.2,0-2.1,0.9-2.1,2.1l0,0c0,1.2,0.9,2.1,2.1,2.1h24c1.2,0,2.1-0.9,2.1-2.1l0,0
			C137.6,119.4,136.7,118.5,135.5,118.5z"/>
	</g>
	<rect x="109.4" y="77.4" class="st15" width="28.3" height="23.6"/>
	<circle class="st0" cx="130.9" cy="91.3" r="3.9"/>
	<polygon class="st0" points="118.4,91.2 125.9,101.1 110.9,101.1 	"/>
	<polygon class="st16" points="126.6,88.5 136.2,101.1 117.2,101.1 	"/>
	<g>
		<path class="st1" d="M167.8,104.1h-24c-1.2,0-2.1,0.9-2.1,2.1v0c0,1.2,0.9,2.1,2.1,2.1h24c1.2,0,2.1-0.9,2.1-2.1v0
			C169.9,105,169,104.1,167.8,104.1z"/>
		<path class="st1" d="M167.8,111.3h-24c-1.2,0-2.1,0.9-2.1,2.1v0c0,1.2,0.9,2.1,2.1,2.1h24c1.2,0,2.1-0.9,2.1-2.1v0
			C169.9,112.2,169,111.3,167.8,111.3z"/>
		<path class="st1" d="M167.8,118.5h-24c-1.2,0-2.1,0.9-2.1,2.1l0,0c0,1.2,0.9,2.1,2.1,2.1h24c1.2,0,2.1-0.9,2.1-2.1l0,0
			C169.9,119.4,169,118.5,167.8,118.5z"/>
	</g>
	<g>
		<path class="st1" d="M123.5,129.5H79.2c-1.2,0-2.1,0.9-2.1,2.1l0,0c0,1.2,0.9,2.1,2.1,2.1h44.2c1.2,0,2.1-0.9,2.1-2.1l0,0
			C125.5,130.5,124.6,129.5,123.5,129.5z"/>
		<path class="st1" d="M123.5,136.7H79.2c-1.2,0-2.1,0.9-2.1,2.1l0,0c0,1.2,0.9,2.1,2.1,2.1h44.2c1.2,0,2.1-0.9,2.1-2.1l0,0
			C125.5,137.7,124.6,136.7,123.5,136.7z"/>
		<path class="st1" d="M123.5,143.9H79.2c-1.2,0-2.1,0.9-2.1,2.1l0,0c0,1.2,0.9,2.1,2.1,2.1h44.2c1.2,0,2.1-0.9,2.1-2.1l0,0
			C125.5,144.8,124.6,143.9,123.5,143.9z"/>
		<path class="st1" d="M123.5,151.1H79.2c-1.2,0-2.1,0.9-2.1,2.1v0c0,1.2,0.9,2.1,2.1,2.1h44.2c1.2,0,2.1-0.9,2.1-2.1v0
			C125.5,152,124.6,151.1,123.5,151.1z"/>
		<path class="st1" d="M104.8,158.3H79.2c-1.2,0-2.1,0.9-2.1,2.1v0c0,1.2,0.9,2.1,2.1,2.1h25.5c1.2,0,2.1-0.9,2.1-2.1v0
			C106.9,159.2,105.9,158.3,104.8,158.3z"/>
	</g>
	<rect x="141.7" y="77.4" class="st15" width="28.3" height="23.6"/>
	<circle class="st0" cx="163.2" cy="91.3" r="3.9"/>
	<polygon class="st0" points="150.6,91.2 158.2,101.1 143.2,101.1 	"/>
	<polygon class="st16" points="158.9,88.5 168.5,101.1 149.5,101.1 	"/>
	<rect x="130.1" y="129.1" class="st15" width="39.9" height="33.3"/>
	<circle class="st0" cx="160.4" cy="148.7" r="5.6"/>
	<polygon class="st0" points="142.7,148.5 153.4,162.5 132.2,162.5 	"/>
	<polygon class="st16" points="154.4,144.8 167.9,162.5 141.1,162.5 	"/>
</g>
<g>
	<g>
		
			<image style="overflow:visible;opacity:0.35;" width="136" height="197" xlink:href="4B4D302B.png"  transform="matrix(1 0 0 1 13.6254 13.9552)">
		</image>
		<g>
			<path class="st0" d="M123.7,22.1H25.3c-1.7,0-3,1.3-3,3v160c0,1.7,1.3,3,3,3h98.4c1.7,0,3-1.3,3-3v-160
				C126.7,23.4,125.4,22.1,123.7,22.1z"/>
		</g>
	</g>
	<path class="st1" d="M126.7,33H22.3v-7.9c0-1.7,1.3-3,3-3h98.4c1.7,0,3,1.3,3,3V33z"/>
	<rect x="22.3" y="32.9" class="st88" width="104.4" height="37.9"/>
	<path class="st1" d="M68.7,42.5H30.6c-1.2,0-2.1,0.9-2.1,2.1v0c0,1.2,0.9,2.1,2.1,2.1h38.1c1.2,0,2.1-0.9,2.1-2.1v0
		C70.8,43.5,69.9,42.5,68.7,42.5z"/>
	<path class="st1" d="M59.7,49.4H30.4c-1,0-1.9,0.8-1.9,1.9v0.5c0,1,0.8,1.9,1.9,1.9h29.3c1,0,1.9-0.8,1.9-1.9v-0.5
		C61.5,50.2,60.7,49.4,59.7,49.4z"/>
	<path class="st21" d="M49.8,56.8H31.3c-1.5,0-2.8,1.2-2.8,2.8v0c0,1.5,1.2,2.8,2.8,2.8h18.5c1.5,0,2.8-1.2,2.8-2.8v0
		C52.6,58,51.3,56.8,49.8,56.8z"/>
	<g>
		<path class="st1" d="M54.3,120.9h-24c-1.2,0-2.1,0.9-2.1,2.1l0,0c0,1.2,0.9,2.1,2.1,2.1h24c1.2,0,2.1-0.9,2.1-2.1l0,0
			C56.4,121.9,55.4,120.9,54.3,120.9z"/>
		<path class="st1" d="M54.3,128.2h-24c-1.2,0-2.1,0.9-2.1,2.1l0,0c0,1.2,0.9,2.1,2.1,2.1h24c1.2,0,2.1-0.9,2.1-2.1l0,0
			C56.4,129.1,55.4,128.2,54.3,128.2z"/>
		<path class="st1" d="M54.3,135.4h-24c-1.2,0-2.1,0.9-2.1,2.1v0c0,1.2,0.9,2.1,2.1,2.1h24c1.2,0,2.1-0.9,2.1-2.1v0
			C56.4,136.3,55.4,135.4,54.3,135.4z"/>
	</g>
	<path class="st1" d="M118.3,77.1H30.6c-1.2,0-2.1,0.9-2.1,2.1v0c0,1.2,0.9,2.1,2.1,2.1h87.7c1.2,0,2.1-0.9,2.1-2.1v0
		C120.4,78,119.5,77.1,118.3,77.1z"/>
	<path class="st1" d="M102.2,84.3H30.4c-1,0-1.9,0.9-1.9,1.9v0.4c0,1,0.9,1.9,1.9,1.9h71.7c1,0,1.9-0.9,1.9-1.9v-0.4
		C104.1,85.2,103.2,84.3,102.2,84.3z"/>
	<g>
		<circle class="st4" cx="114" cy="27.6" r="1.3"/>
		<circle class="st5" cx="117.7" cy="27.6" r="1.3"/>
		<circle class="st6" cx="121.4" cy="27.6" r="1.3"/>
	</g>
	<path class="st0" d="M105.4,30H29.1c-1.4,0-2.5-1.1-2.5-2.5v0c0-1.4,1.1-2.5,2.5-2.5h76.3c1.4,0,2.5,1.1,2.5,2.5v0
		C107.9,28.9,106.8,30,105.4,30z"/>
	<rect x="78.1" y="39" class="st89" width="42.3" height="25.5"/>
	<circle class="st0" cx="109.4" cy="53" r="5.2"/>
	<polygon class="st0" points="93.2,53 102,64.5 84.6,64.5 	"/>
	<polygon class="st90" points="102.8,49.9 114,64.5 91.9,64.5 	"/>
	<rect x="28.2" y="94.3" class="st89" width="28.3" height="23.6"/>
	<circle class="st0" cx="49.6" cy="108.2" r="3.9"/>
	<polygon class="st0" points="37.1,108.1 44.6,117.9 29.7,117.9 	"/>
	<polygon class="st90" points="45.4,105.4 54.9,117.9 36,117.9 	"/>
	<g>
		<path class="st1" d="M86.6,120.9h-24c-1.2,0-2.1,0.9-2.1,2.1l0,0c0,1.2,0.9,2.1,2.1,2.1h24c1.2,0,2.1-0.9,2.1-2.1l0,0
			C88.7,121.9,87.7,120.9,86.6,120.9z"/>
		<path class="st1" d="M86.6,128.2h-24c-1.2,0-2.1,0.9-2.1,2.1l0,0c0,1.2,0.9,2.1,2.1,2.1h24c1.2,0,2.1-0.9,2.1-2.1l0,0
			C88.7,129.1,87.7,128.2,86.6,128.2z"/>
		<path class="st1" d="M86.6,135.4h-24c-1.2,0-2.1,0.9-2.1,2.1v0c0,1.2,0.9,2.1,2.1,2.1h24c1.2,0,2.1-0.9,2.1-2.1v0
			C88.7,136.3,87.7,135.4,86.6,135.4z"/>
	</g>
	<rect x="60.5" y="94.3" class="st89" width="28.3" height="23.6"/>
	<circle class="st0" cx="81.9" cy="108.2" r="3.9"/>
	<polygon class="st0" points="69.4,108.1 76.9,117.9 62,117.9 	"/>
	<polygon class="st90" points="77.6,105.4 87.2,117.9 68.3,117.9 	"/>
	<g>
		<path class="st1" d="M118.8,120.9h-24c-1.2,0-2.1,0.9-2.1,2.1l0,0c0,1.2,0.9,2.1,2.1,2.1h24c1.2,0,2.1-0.9,2.1-2.1l0,0
			C120.9,121.9,120,120.9,118.8,120.9z"/>
		<path class="st1" d="M118.8,128.2h-24c-1.2,0-2.1,0.9-2.1,2.1l0,0c0,1.2,0.9,2.1,2.1,2.1h24c1.2,0,2.1-0.9,2.1-2.1l0,0
			C120.9,129.1,120,128.2,118.8,128.2z"/>
		<path class="st1" d="M118.8,135.4h-24c-1.2,0-2.1,0.9-2.1,2.1v0c0,1.2,0.9,2.1,2.1,2.1h24c1.2,0,2.1-0.9,2.1-2.1v0
			C120.9,136.3,120,135.4,118.8,135.4z"/>
	</g>
	<g>
		<path class="st1" d="M74.5,146.4H30.3c-1.2,0-2.1,0.9-2.1,2.1l0,0c0,1.2,0.9,2.1,2.1,2.1h44.2c1.2,0,2.1-0.9,2.1-2.1l0,0
			C76.6,147.4,75.6,146.4,74.5,146.4z"/>
		<path class="st1" d="M74.5,153.6H30.3c-1.2,0-2.1,0.9-2.1,2.1l0,0c0,1.2,0.9,2.1,2.1,2.1h44.2c1.2,0,2.1-0.9,2.1-2.1l0,0
			C76.6,154.6,75.6,153.6,74.5,153.6z"/>
		<path class="st1" d="M74.5,160.8H30.3c-1.2,0-2.1,0.9-2.1,2.1v0c0,1.2,0.9,2.1,2.1,2.1h44.2c1.2,0,2.1-0.9,2.1-2.1v0
			C76.6,161.7,75.6,160.8,74.5,160.8z"/>
		<path class="st1" d="M74.5,168H30.3c-1.2,0-2.1,0.9-2.1,2.1l0,0c0,1.2,0.9,2.1,2.1,2.1h44.2c1.2,0,2.1-0.9,2.1-2.1l0,0
			C76.6,168.9,75.6,168,74.5,168z"/>
		<path class="st1" d="M55.8,175.2H30.3c-1.2,0-2.1,0.9-2.1,2.1l0,0c0,1.2,0.9,2.1,2.1,2.1h25.5c1.2,0,2.1-0.9,2.1-2.1l0,0
			C57.9,176.1,56.9,175.2,55.8,175.2z"/>
	</g>
	<rect x="92.7" y="94.3" class="st89" width="28.3" height="23.6"/>
	<circle class="st0" cx="114.2" cy="108.2" r="3.9"/>
	<polygon class="st0" points="101.7,108.1 109.2,117.9 94.3,117.9 	"/>
	<polygon class="st90" points="109.9,105.4 119.5,117.9 100.5,117.9 	"/>
	<rect x="81.1" y="146" class="st89" width="39.9" height="33.3"/>
	<circle class="st0" cx="111.4" cy="165.6" r="5.6"/>
	<polygon class="st0" points="93.7,165.4 104.4,179.3 83.2,179.3 	"/>
	<polygon class="st90" points="105.4,161.7 118.9,179.3 92.1,179.3 	"/>
</g>
</svg>
