<?xml version="1.0" encoding="utf-8"?>
<!-- Generator: Adobe Illustrator 27.5.0, SVG Export Plug-In . SVG Version: 6.00 Build 0)  -->
<svg version="1.1" id="Layer_1" xmlns="http://www.w3.org/2000/svg" xmlns:xlink="http://www.w3.org/1999/xlink" x="0px" y="0px"
	 viewBox="0 0 70 70" style="enable-background:new 0 0 70 70;" xml:space="preserve">
<style type="text/css">
	.st0{fill:url(#SVGID_1_);}
	.st1{fill:url(#SVGID_00000021835240372383398710000001184789530754968503_);}
	.st2{fill:url(#SVGID_00000168117579728522958010000002491428061835695244_);}
	.st3{fill:url(#SVGID_00000085211244113329899100000002818018484844063153_);}
	
		.st4{fill:none;stroke:url(#SVGID_00000092445022758428820360000000115517845083203256_);stroke-width:3.6531;stroke-linecap:round;stroke-linejoin:round;stroke-miterlimit:10;}
	
		.st5{fill:none;stroke:url(#SVGID_00000030485655151091436630000018359862624502586504_);stroke-width:3.5942;stroke-linecap:round;stroke-linejoin:round;stroke-miterlimit:10;}
	.st6{fill:url(#SVGID_00000159439999526297512240000008918056571847103423_);}
	.st7{fill:url(#SVGID_00000161632189257937754920000003246710916970255528_);}
	
		.st8{fill:none;stroke:url(#SVGID_00000053516938048264678180000015510680539498765232_);stroke-width:3.5889;stroke-linecap:round;stroke-linejoin:round;stroke-miterlimit:10;}
	
		.st9{fill:none;stroke:url(#SVGID_00000080193051024641228960000002744695758857456308_);stroke-width:3.5889;stroke-linecap:round;stroke-linejoin:round;stroke-miterlimit:10;}
</style>
<g>
	<g>
		<g>
			<linearGradient id="SVGID_1_" gradientUnits="userSpaceOnUse" x1="10.3199" y1="34.5436" x2="26.6278" y2="34.5436">
				<stop  offset="0" style="stop-color:#00DCC4"/>
				<stop  offset="1" style="stop-color:#01AEF7"/>
			</linearGradient>
			<path class="st0" d="M26.6,28.7L26.6,28.7L26.6,28.7z M26.6,28.7h-3.1l-1.7,6.7l-2.3-6.7h-2.1l-2.3,6.7l-1.7-6.7h-3.1l3.6,11.7
				h2.2l2.3-6.6l2.3,6.6H23L26.6,28.7L26.6,28.7z"/>
		</g>
		<g>
			
				<linearGradient id="SVGID_00000034775433953444740540000008348484330783937969_" gradientUnits="userSpaceOnUse" x1="26.8486" y1="34.5436" x2="43.1566" y2="34.5436">
				<stop  offset="0" style="stop-color:#00DCC4"/>
				<stop  offset="1" style="stop-color:#01AEF7"/>
			</linearGradient>
			<path style="fill:url(#SVGID_00000034775433953444740540000008348484330783937969_);" d="M43.2,28.7L43.2,28.7L43.2,28.7z
				 M43.2,28.7H40l-1.7,6.7L36,28.7H34l-2.3,6.7L30,28.7h-3.1l3.6,11.7h2.2l2.3-6.6l2.3,6.6h2.2L43.2,28.7L43.2,28.7z"/>
		</g>
		<g>
			
				<linearGradient id="SVGID_00000153681831454050728830000015654219683622408848_" gradientUnits="userSpaceOnUse" x1="43.3774" y1="34.5436" x2="59.6853" y2="34.5436">
				<stop  offset="0" style="stop-color:#00DCC4"/>
				<stop  offset="1" style="stop-color:#01AEF7"/>
			</linearGradient>
			<path style="fill:url(#SVGID_00000153681831454050728830000015654219683622408848_);" d="M59.7,28.7L59.7,28.7L59.7,28.7z
				 M59.7,28.7h-3.1l-1.7,6.7l-2.3-6.7h-2.1l-2.3,6.7l-1.7-6.7h-3.1L47,40.4h2.2l2.3-6.6l2.3,6.6h2.2L59.7,28.7L59.7,28.7z"/>
		</g>
	</g>
	<g>
		
			<linearGradient id="SVGID_00000057829239109907637790000011043603488831976612_" gradientUnits="userSpaceOnUse" x1="0.6667" y1="35" x2="69.3333" y2="35">
			<stop  offset="0" style="stop-color:#00DCC4"/>
			<stop  offset="1" style="stop-color:#01AEF7"/>
		</linearGradient>
		<path style="fill:url(#SVGID_00000057829239109907637790000011043603488831976612_);" d="M35,4.3c16.9,0,30.7,13.8,30.7,30.7
			S51.9,65.7,35,65.7S4.3,51.9,4.3,35S18.1,4.3,35,4.3 M35,0.7C16,0.7,0.7,16,0.7,35S16,69.3,35,69.3S69.3,54,69.3,35S54,0.7,35,0.7
			L35,0.7z"/>
	</g>
	
		<linearGradient id="SVGID_00000098925584386585490760000008212392738741389716_" gradientUnits="userSpaceOnUse" x1="33.1735" y1="55.5985" x2="36.8265" y2="55.5985">
		<stop  offset="0" style="stop-color:#00DCC4"/>
		<stop  offset="1" style="stop-color:#01AEF7"/>
	</linearGradient>
	
		<line style="fill:none;stroke:url(#SVGID_00000098925584386585490760000008212392738741389716_);stroke-width:3.6531;stroke-linecap:round;stroke-linejoin:round;stroke-miterlimit:10;" x1="35" y1="43.6" x2="35" y2="67.6"/>
	
		<linearGradient id="SVGID_00000065038662216933932100000005058813785391360896_" gradientUnits="userSpaceOnUse" x1="33.2029" y1="13.9517" x2="36.7971" y2="13.9517">
		<stop  offset="0" style="stop-color:#00DCC4"/>
		<stop  offset="1" style="stop-color:#01AEF7"/>
	</linearGradient>
	
		<line style="fill:none;stroke:url(#SVGID_00000065038662216933932100000005058813785391360896_);stroke-width:3.5942;stroke-linecap:round;stroke-linejoin:round;stroke-miterlimit:10;" x1="35" y1="2.9" x2="35" y2="25"/>
	<g>
		
			<linearGradient id="SVGID_00000096053005493947246360000001461551626429188504_" gradientUnits="userSpaceOnUse" x1="7.3558" y1="10.8547" x2="62.6442" y2="10.8547">
			<stop  offset="0" style="stop-color:#00DCC4"/>
			<stop  offset="1" style="stop-color:#01AEF7"/>
		</linearGradient>
		<path style="fill:url(#SVGID_00000096053005493947246360000001461551626429188504_);" d="M35,4.3c8.1,0,16,3.3,21.7,9
			C49.8,16,42.5,17.4,35,17.4c-7.5,0-14.8-1.4-21.7-4.1C19,7.6,26.9,4.3,35,4.3 M35,0.7c-11.3,0-21.4,5.5-27.6,14
			C15.7,18.7,25.1,21,35,21c9.9,0,19.3-2.3,27.6-6.4C56.4,6.2,46.3,0.7,35,0.7L35,0.7z"/>
	</g>
	<g>
		
			<linearGradient id="SVGID_00000173840896163669867040000006749088563869455277_" gradientUnits="userSpaceOnUse" x1="7.2369" y1="59.0313" x2="62.7631" y2="59.0313">
			<stop  offset="0" style="stop-color:#00DCC4"/>
			<stop  offset="1" style="stop-color:#01AEF7"/>
		</linearGradient>
		<path style="fill:url(#SVGID_00000173840896163669867040000006749088563869455277_);" d="M35,52.4c7.6,0,14.9,1.4,21.8,4.2
			c-5.7,5.8-13.6,9.1-21.8,9.1c-8.2,0-16.1-3.4-21.8-9.1C20.1,53.8,27.4,52.4,35,52.4 M35,48.7c-10,0-19.4,2.3-27.8,6.5
			c6.2,8.6,16.3,14.1,27.8,14.1c11.4,0,21.5-5.6,27.8-14.1C54.4,51.1,45,48.7,35,48.7L35,48.7z"/>
	</g>
	<g>
		
			<linearGradient id="SVGID_00000018195865335650328450000013170202355350842790_" gradientUnits="userSpaceOnUse" x1="16.9125" y1="14.269" x2="53.0875" y2="14.269">
			<stop  offset="0" style="stop-color:#00DCC4"/>
			<stop  offset="1" style="stop-color:#01AEF7"/>
		</linearGradient>
		
			<path style="fill:none;stroke:url(#SVGID_00000018195865335650328450000013170202355350842790_);stroke-width:3.5889;stroke-linecap:round;stroke-linejoin:round;stroke-miterlimit:10;" d="
			M51.3,25.9C49.2,12.5,42.7,2.6,35,2.6c-7.7,0-14.2,9.8-16.3,23.3"/>
		
			<linearGradient id="SVGID_00000140001510137840304160000015487941815612882355_" gradientUnits="userSpaceOnUse" x1="16.8123" y1="55.3946" x2="53.1877" y2="55.3946">
			<stop  offset="0" style="stop-color:#00DCC4"/>
			<stop  offset="1" style="stop-color:#01AEF7"/>
		</linearGradient>
		
			<path style="fill:none;stroke:url(#SVGID_00000140001510137840304160000015487941815612882355_);stroke-width:3.5889;stroke-linecap:round;stroke-linejoin:round;stroke-miterlimit:10;" d="
			M18.6,43.4c1.9,13.8,8.5,24,16.4,24s14.4-10.2,16.4-24"/>
	</g>
</g>
</svg>
