<?xml version="1.0" encoding="utf-8"?>
<!-- Generator: Adobe Illustrator 27.5.0, SVG Export Plug-In . SVG Version: 6.00 Build 0)  -->
<svg version="1.1" id="Layer_1" xmlns="http://www.w3.org/2000/svg" xmlns:xlink="http://www.w3.org/1999/xlink" x="0px" y="0px"
	 viewBox="0 0 70 70" style="enable-background:new 0 0 70 70;" xml:space="preserve">
<style type="text/css">
	.st0{fill:url(#SVGID_1_);}
	.st1{fill:url(#SVGID_00000027597689880780090120000009445173265333774223_);}
	.st2{fill:url(#SVGID_00000119107815908009247180000014627079200372521888_);}
	.st3{fill:url(#SVGID_00000050633235296575542990000001380291119602273214_);}
	.st4{fill:url(#SVGID_00000099629815302064141740000007512967655253097625_);}
</style>
<g>
	<linearGradient id="SVGID_1_" gradientUnits="userSpaceOnUse" x1="8" y1="42.9489" x2="62" y2="42.9489">
		<stop  offset="0" style="stop-color:#00DCC4"/>
		<stop  offset="1" style="stop-color:#01AEF7"/>
	</linearGradient>
	<path class="st0" d="M62,44.6c-0.1,1.2-0.2,2.8-0.5,4.4c-0.4,3.1-1.1,6.1-2,9c-0.7,2.4-1.5,4.7-2.7,6.9c-0.8,1.4-1.6,2.8-3,3.7
		c-2.1,1.4-3.3,1.3-5.3-0.5c-1.5-1.3-2.4-2.9-3-4.7c-0.4-1.2-1-1.9-2.3-2.1c-2.6-0.5-5.2-1.2-7.8-1.9c-1.9-0.5-3.9-0.8-5.8-1.4
		c-3.2-0.9-6.3-2-8.5-4.7C19.8,51.7,19,50,19,48c0-1-0.3-1.7-0.8-2.4c-1.5-2.3-1.5-4.7-0.4-7.2c0.2-0.5,0.8-1.1,0.5-1.6
		c-0.2-0.5-1-0.5-1.5-0.7c-2.5-0.9-4.9-2.1-6.7-4.1c-1.2-1.3-1.9-2.7-2-4.5c-0.3-3.3,2-6.5,4.4-7.6c2-0.9,4-1.3,6.2-1
		c3.6,0.5,7,1.6,10.2,3.1c1.4,0.6,2.8,1.3,4.2,1.9c0.4,0.2,0.5-0.1,0.7-0.4c1.1-1.7,2.1-3.4,3.6-4.8c1.6-1.5,3.6-2.4,5.8-2.4
		c1.3,0,2.7-0.1,3.9,0.5c2.1,1,3.4,2.6,4.1,4.8c0.6,1.8,0.1,3.6-0.4,5.3c-0.2,1-0.5,2-0.7,3c-0.1,0.4,0.2,0.7,0.4,1
		c0.8,1.3,1.8,2.4,2.4,3.8c0.7,1.4,1,3,1.1,4.5c0,0.4,0.1,0.8,0.1,1.2c0,0.1,0,0.2,0.2,0.2c0.2,0.1,0.3,0.2,0.5,0.2
		c1,0.5,1.7,0.2,2.4-0.7c1.1-1.3,3-0.9,4,0.6C61.8,41.9,62.1,43,62,44.6z M29,30.8c0.9-0.1,1.7,0.1,2.5,0.2c1.5,0.2,2.9,0.6,4.3,1.1
		c1.9,0.8,3.4,1.9,4.7,3.4c1.6,2.1,2.6,4.5,2.8,7.2c0.1,1.6,0.1,3.2-0.4,4.7c-0.9,2.9-3,4.2-5.4,4.5c-2.5,0.3-4.8-0.4-6.9-1.7
		c-1.5-0.9-1.7-3.1-0.1-4.3c0.9-0.7,1.9-0.6,2.8-0.2c1.1,0.5,2.2,0.9,3.4,0.8c0.8,0,1.2-0.4,1.3-1.2c0.3-1.7,0.2-3.4-0.5-5
		c-0.7-1.6-1.7-2.9-3.5-3.6c-1.1-0.4-2.2-0.7-3.4-0.9c-1.4-0.2-2.9-0.2-4.2,0.2c-2,0.6-3.2,2.1-3.9,4c-0.6,1.5,0.3,3.7,2.3,3.8
		c0.2,0,0.3,0.1,0.2,0.3c-0.2,0.8-0.3,1.6-0.5,2.5c-0.3,1.4,0.3,3,1.3,3.8c1,0.7,2.2,1.3,3.4,1.7c2.9,1,6,1.4,8.9,2.3
		c1.1,0.3,2.2,0.5,3.2,0.8c2.2,0.6,4.3,1.1,6.5,0.8c2.6-0.4,4.2-1.8,5.1-4.2c0.6-1.6,1-3.3,1.6-5c0.2-0.6,0-0.8-0.5-1
		c-1.4-0.5-2.8-0.9-4.1-1.7c-0.8-0.5-1.3-1.1-1.2-2c0-0.9,0-1.8,0-2.7c0-1-0.3-2-0.7-3c-0.5-1.1-1.3-1.9-1.9-3
		c-0.6-1.1-1.2-2.3-1.3-3.6c0-1.6,0.4-3.1,0.8-4.6c0.2-0.9,0.5-1.7,0.4-2.6c-0.1-0.6-0.6-1.3-1.1-1.4c-0.8-0.1-1.5,0-2.3,0.2
		c-1.3,0.3-2.1,1.4-2.8,2.4c-1.2,1.7-2.1,3.5-3.4,5.2c-1,1.3-0.9,1.3-2.4,0.8c-0.2-0.1-0.4-0.1-0.6-0.2c-1.7-0.8-3.5-1.7-5.2-2.5
		c-2.8-1.2-5.6-2.6-8.6-3c-1.3-0.2-2.6-0.3-3.9-0.1c-1.3,0.3-2.4,1.7-2.4,2.9c0.1,1,0.8,1.7,1.6,2.2c2,1.4,4.4,2.1,6.8,2.8
		c0.3,0.1,0.8,0.1,1.1-0.1C24.8,31.1,26.9,30.8,29,30.8z"/>
	
		<linearGradient id="SVGID_00000155109438118538519190000013612088779808038062_" gradientUnits="userSpaceOnUse" x1="9.6417" y1="11.6679" x2="21.071" y2="11.6679">
		<stop  offset="0" style="stop-color:#00DCC4"/>
		<stop  offset="1" style="stop-color:#01AEF7"/>
	</linearGradient>
	<path style="fill:url(#SVGID_00000155109438118538519190000013612088779808038062_);" d="M18.4,16.5c-0.6,0.1-1.1-0.1-1.5-0.4
		c-1.7-2-4-3.2-6.2-4.5c-0.8-0.5-1.3-1.7-1-2.7c0.3-0.9,0.8-1.6,1.8-1.9c0.8-0.2,1.5-0.1,2.2,0.3c1.9,1,3.8,2,5.4,3.4
		c0.7,0.7,1.4,1.4,1.8,2.3c0.6,1.2-0.3,2.7-1.1,3.1C19.4,16.3,19,16.6,18.4,16.5z"/>
	
		<linearGradient id="SVGID_00000137834710902878103250000011624227513189133220_" gradientUnits="userSpaceOnUse" x1="33.3771" y1="7.7842" x2="41.2409" y2="7.7842">
		<stop  offset="0" style="stop-color:#00DCC4"/>
		<stop  offset="1" style="stop-color:#01AEF7"/>
	</linearGradient>
	<path style="fill:url(#SVGID_00000137834710902878103250000011624227513189133220_);" d="M36,13.8c-1.7,0-3-1.7-2.5-3.5
		C34.1,8,34.8,5.8,36,3.7c0.6-1,1.3-1.9,2.6-1.9c2,0,3.2,2,2.4,3.7c-0.4,0.8-0.8,1.6-1.2,2.4c-0.5,1.2-0.9,2.5-1.2,3.8
		C38.3,12.9,37.2,13.9,36,13.8z"/>
	
		<linearGradient id="SVGID_00000127749122068867617430000008192534507351724690_" gradientUnits="userSpaceOnUse" x1="22.4835" y1="6.6487" x2="29.5261" y2="6.6487">
		<stop  offset="0" style="stop-color:#00DCC4"/>
		<stop  offset="1" style="stop-color:#01AEF7"/>
	</linearGradient>
	<path style="fill:url(#SVGID_00000127749122068867617430000008192534507351724690_);" d="M24.3,10.6c-0.2-1.4-0.6-2.8-1-4.2
		c-0.3-1-0.6-2.1-0.8-3.1c-0.2-0.9,0.6-2.4,2-2.7c1.5-0.3,2.7,0.5,3.1,2c0.7,2.2,1.3,4.5,1.7,6.8c0.4,2.2-0.5,3.5-2.8,3.6
		c-0.9,0-1.4-0.7-1.9-1.3c-0.1-0.2-0.2-0.4-0.3-0.6C24.4,10.8,24.5,10.6,24.3,10.6z"/>
	
		<linearGradient id="SVGID_00000156584058114108973040000003060755311433770679_" gradientUnits="userSpaceOnUse" x1="24.1798" y1="10.745" x2="24.4297" y2="10.745">
		<stop  offset="0" style="stop-color:#00DCC4"/>
		<stop  offset="1" style="stop-color:#01AEF7"/>
	</linearGradient>
	<path style="fill:url(#SVGID_00000156584058114108973040000003060755311433770679_);" d="M24.3,10.6c0.2,0.1,0.1,0.2,0.1,0.4
		C24.1,10.9,24.1,10.7,24.3,10.6z"/>
</g>
</svg>
