<?xml version="1.0" encoding="utf-8"?>
<!-- Generator: Adobe Illustrator 27.5.0, SVG Export Plug-In . SVG Version: 6.00 Build 0)  -->
<svg version="1.1" id="Layer_1" xmlns="http://www.w3.org/2000/svg" xmlns:xlink="http://www.w3.org/1999/xlink" x="0px" y="0px"
	 viewBox="0 0 107.3 100" style="enable-background:new 0 0 107.3 100;" xml:space="preserve">
<style type="text/css">
	.st0{fill:#02BBF8;}
	.st1{fill:none;stroke:#02BBF8;stroke-width:5;stroke-linecap:round;stroke-linejoin:round;stroke-miterlimit:10;}
	.st2{fill:url(#SVGID_1_);}
	.st3{fill:url(#SVGID_00000161613762152623720890000009110584672995403452_);}
	.st4{fill:none;stroke:#02BBF8;stroke-width:2.5041;stroke-linecap:round;stroke-linejoin:round;stroke-miterlimit:10;}
	.st5{fill:none;stroke:#02BBF8;stroke-width:2.7646;stroke-linecap:round;stroke-linejoin:round;stroke-miterlimit:10;}
	.st6{fill:none;stroke:#02BBF8;stroke-width:2.6868;stroke-linecap:round;stroke-linejoin:round;stroke-miterlimit:10;}
	.st7{fill:url(#SVGID_00000127724425066513986080000005770388608853172908_);}
	.st8{fill:url(#SVGID_00000130612083341048946430000002999351487601833113_);}
	
		.st9{fill:none;stroke:url(#SVGID_00000013872896585751273740000005353513457964930232_);stroke-width:3;stroke-linecap:round;stroke-linejoin:round;stroke-miterlimit:10;}
	
		.st10{fill:none;stroke:url(#SVGID_00000062183358176427643700000011599577730222740409_);stroke-width:3;stroke-linecap:round;stroke-linejoin:round;stroke-miterlimit:10;}
	
		.st11{fill:none;stroke:url(#SVGID_00000011749815386919916480000011323895978557604487_);stroke-width:3;stroke-linecap:round;stroke-linejoin:round;stroke-miterlimit:10;}
	
		.st12{fill:none;stroke:url(#SVGID_00000014606501616348899960000000515804805283437748_);stroke-width:3;stroke-linecap:round;stroke-linejoin:round;stroke-miterlimit:10;}
	.st13{fill:none;stroke:#01AEF7;stroke-width:3;stroke-linecap:round;stroke-linejoin:round;stroke-miterlimit:10;}
	.st14{fill:url(#SVGID_00000168817228787533437790000004939154988074633907_);}
	.st15{fill:url(#SVGID_00000093176201600325404150000012334584317766556069_);}
	.st16{fill:url(#SVGID_00000136403643862806077850000016046000936621977473_);}
	
		.st17{fill:none;stroke:url(#SVGID_00000034804174418796864550000009024576089607140798_);stroke-width:2;stroke-linecap:round;stroke-linejoin:round;stroke-miterlimit:10;}
	
		.st18{fill:none;stroke:url(#SVGID_00000128445354838180082110000010607242895635934354_);stroke-width:2;stroke-linecap:round;stroke-linejoin:round;stroke-miterlimit:10;}
	
		.st19{fill:none;stroke:url(#SVGID_00000108304767286583707500000012557869977273825437_);stroke-width:2;stroke-linecap:round;stroke-linejoin:round;stroke-miterlimit:10;}
	
		.st20{fill:none;stroke:url(#SVGID_00000075157453996781032660000014581722282436676244_);stroke-width:2;stroke-linecap:round;stroke-linejoin:round;stroke-miterlimit:10;}
	.st21{fill:url(#SVGID_00000137122785786052136930000005802290567405926050_);}
	.st22{fill:url(#SVGID_00000054254551760491042390000013763703927100972209_);}
	.st23{fill:url(#SVGID_00000080914140544795240550000007929893045089850037_);}
	.st24{fill:url(#SVGID_00000011722481292572060100000009593941318103397049_);}
	.st25{fill:none;stroke:#02BBF8;stroke-width:3.1188;stroke-linecap:round;stroke-linejoin:round;stroke-miterlimit:10;}
	.st26{fill:url(#SVGID_00000009562886342850892030000012597799608770350754_);}
	.st27{fill:url(#SVGID_00000066500875443882804620000017070868237961689986_);}
	.st28{fill:url(#SVGID_00000010292818001878236230000005421808546438309052_);}
	.st29{fill:url(#SVGID_00000119082139657768787560000015539790267578227850_);}
	.st30{fill:url(#SVGID_00000027582328636605515440000012961980988689351338_);}
	.st31{fill:url(#SVGID_00000044896654058643339270000009541501173542839482_);}
	.st32{fill:url(#SVGID_00000108292336381323041300000010676961404857617812_);}
	
		.st33{fill:none;stroke:url(#SVGID_00000041989535791906894360000005510507478411678085_);stroke-width:2.9411;stroke-miterlimit:10;}
	
		.st34{fill:none;stroke:url(#SVGID_00000039852626111849417780000004591584879238095017_);stroke-width:2.9411;stroke-miterlimit:10;}
	
		.st35{fill:none;stroke:url(#SVGID_00000096756521536531153850000017810885938889034406_);stroke-width:2.9411;stroke-miterlimit:10;}
	
		.st36{fill:none;stroke:url(#SVGID_00000127746939121039498380000015186981994146577849_);stroke-width:2.9411;stroke-linecap:round;stroke-linejoin:round;stroke-miterlimit:10;}
	
		.st37{fill:none;stroke:url(#SVGID_00000100346094532052615750000005129595549493780887_);stroke-width:2.9411;stroke-linecap:round;stroke-linejoin:round;stroke-miterlimit:10;}
	
		.st38{fill:none;stroke:url(#SVGID_00000181790434906097613050000008201619721230034107_);stroke-width:2.9411;stroke-linecap:round;stroke-linejoin:round;stroke-miterlimit:10;}
	
		.st39{fill:none;stroke:url(#SVGID_00000057143109750298822530000018201850251326180514_);stroke-width:2.9411;stroke-linecap:round;stroke-linejoin:round;stroke-miterlimit:10;}
	.st40{fill:none;stroke:url(#SVGID_00000137126135447073759730000009241759427955732358_);stroke-width:3;stroke-miterlimit:10;}
	.st41{fill:none;stroke:url(#SVGID_00000050657072969160545870000015909972176377975203_);stroke-width:3;stroke-miterlimit:10;}
	.st42{fill:none;stroke:url(#SVGID_00000021828152198175941790000001852334220130858371_);stroke-width:3;stroke-miterlimit:10;}
	.st43{fill:none;stroke:url(#SVGID_00000154415937049765722250000009345770155448658311_);stroke-width:3;stroke-miterlimit:10;}
	.st44{fill:none;stroke:url(#SVGID_00000107570151565156312710000005746178281095946142_);stroke-width:3;stroke-miterlimit:10;}
	.st45{fill:url(#SVGID_00000139285650422651352780000017208672521667007378_);}
	.st46{fill:url(#SVGID_00000021109844781507127890000007394753686175556024_);}
	.st47{fill:url(#SVGID_00000161591278530053780930000001881257344948120236_);}
	.st48{fill:url(#SVGID_00000173865460580259854320000014545458587239873168_);}
</style>
<g>
	<path class="st0" d="M-42.4,163.5c24.8,0,45,20.2,45,45c0,24.8-20.2,45-45,45s-45-20.2-45-45C-87.4,183.7-67.2,163.5-42.4,163.5
		 M-42.4,158.5c-27.6,0-50,22.4-50,50c0,27.6,22.4,50,50,50c27.6,0,50-22.4,50-50C7.6,180.9-14.8,158.5-42.4,158.5L-42.4,158.5z"/>
</g>
<g>
	<path class="st0" d="M218.5,5c24.8,0,45,20.2,45,45s-20.2,45-45,45s-45-20.2-45-45S193.7,5,218.5,5 M218.5,0c-27.6,0-50,22.4-50,50
		s22.4,50,50,50c27.6,0,50-22.4,50-50S246.1,0,218.5,0L218.5,0z"/>
</g>
<g>
	<line class="st1" x1="-42.4" y1="229.5" x2="-42.4" y2="177.7"/>
	<polyline class="st1" points="-60.2,195.5 -42.4,177.7 -24.6,195.5 	"/>
</g>
<polyline class="st1" points="244.1,33.3 210.8,66.7 192.9,48.8 "/>
<image style="overflow:visible;" width="250" height="253" xlink:href="3EFFDFB9.jpg"  transform="matrix(1 0 0 1 -534.784 -33.0295)">
</image>
<g>
	<linearGradient id="SVGID_1_" gradientUnits="userSpaceOnUse" x1="65.4357" y1="193.8892" x2="85.7105" y2="193.8892">
		<stop  offset="0" style="stop-color:#00DCC4"/>
		<stop  offset="1" style="stop-color:#01AEF7"/>
	</linearGradient>
	<path class="st2" d="M83.8,190.2c-0.5,0-0.9,0.2-1.1,0.7c-0.6,1.3-1.5,2-2.2,2.4c1.1-3.4,1-8.3-4.1-11.7c-0.4-0.2-0.9-0.3-1.3,0
		c-0.4,0.2-0.6,0.6-0.6,1.1c0,1.8-2.9,4.4-4.5,5.8c-0.5,0.5-1,0.9-1.4,1.2c-1.4,1.4-3.7,5.1-2.9,9.3c0.8,4.5,4.7,7.5,9.8,7.5
		c5.1,0,9.1-3.2,10.1-8.1c0.3-2,0.3-5.1-0.7-7.3C84.7,190.5,84.2,190.2,83.8,190.2z M83.1,197.9c-0.7,3.7-3.7,6.1-7.7,6.1
		c-4,0-6.8-2.1-7.4-5.5c-0.6-2.9,1.1-5.9,2.3-7.1c0.3-0.3,0.7-0.7,1.2-1.1c1.6-1.4,3.9-3.4,4.9-5.6c4.1,4,1.1,9.4,0.9,9.7
		c-0.2,0.4-0.2,0.8,0,1.2c0.2,0.4,0.6,0.6,1,0.6c0.1,0,2.7,0.2,4.9-1.9C83.3,195.5,83.3,196.9,83.1,197.9z"/>
	
		<linearGradient id="SVGID_00000005243221359508914040000017536457404495079096_" gradientUnits="userSpaceOnUse" x1="40.0618" y1="184.4829" x2="108.216" y2="184.4829">
		<stop  offset="0" style="stop-color:#00DCC4"/>
		<stop  offset="1" style="stop-color:#01AEF7"/>
	</linearGradient>
	<path style="fill:url(#SVGID_00000005243221359508914040000017536457404495079096_);" d="M107.4,155.7l-22.9-7.6
		c0.1-0.5,0.1-1,0.1-1.5c0-0.5-0.1-1-0.1-1.5l22.9-7.6c0.6-0.2,1-0.9,0.7-1.5c-0.2-0.6-0.9-1-1.5-0.7l-22.8,7.5
		c-1.5-3.4-4.8-5.8-8.8-5.8c-3.3,0-6.2,1.7-7.9,4.2l-25.8-4.3c-0.3-0.1-0.7,0-1,0.3c-0.3,0.2-0.4,0.6-0.4,0.9V155
		c0,0.3,0.2,0.7,0.4,0.9c0.2,0.2,0.5,0.3,0.8,0.3c0.1,0,0.1,0,0.2,0l25.8-4.3c0.9,1.3,2.1,2.4,3.6,3.2c-7.8,1.9-13.6,8.9-13.6,17.2
		c0,0.1,0,0.1,0,0.2v52c0,5.1,4.2,9.3,9.3,9.3h16.8c5.1,0,9.3-4.2,9.3-9.3v-52.2c0,0,0,0,0,0c0-8.3-5.7-15.2-13.3-17.2
		c2-1,3.7-2.7,4.6-4.8l22.8,7.5c0.1,0,0.2,0.1,0.4,0.1c0.5,0,1-0.3,1.1-0.8C108.4,156.5,108,155.9,107.4,155.7z M42.4,153.6v-14.2
		l23.7,4c-0.3,1-0.5,2-0.5,3.1c0,1.1,0.2,2.1,0.5,3.1L42.4,153.6z M83.3,231.6H66.5c-3.9,0-7.1-3.2-7.1-7.1v-51h31v51
		C90.5,228.4,87.3,231.6,83.3,231.6z M90.2,171.1H59.7c0.6-7.9,7.2-14.1,15.3-14.1S89.6,163.2,90.2,171.1z M75.1,153.7
		c-3.9,0-7.1-3.2-7.1-7.1s3.2-7.1,7.1-7.1c3.9,0,7.1,3.2,7.1,7.1S79.1,153.7,75.1,153.7z"/>
</g>
<g>
	<path class="st4" d="M-272.5-64.6h-19.1c-5.2,0-9.3-4.2-9.3-9.3v-59.4h37.8V-74C-263.2-68.8-267.4-64.6-272.5-64.6z"/>
	<path class="st5" d="M-282.1-152.2c-10.4,0-18.8,8.4-18.8,18.8h37.6C-263.3-143.8-271.7-152.2-282.1-152.2z"/>
	<path class="st5" d="M-278.2-107.6c0,0,5.2-8.7-3.1-14.1c0.1,3.5-5.5,7.3-7.1,9c-1.6,1.7-3.7,5.5-3,9.3c0.8,4.2,4.3,7.4,9.8,7.4
		c5.5,0,9.2-3.5,10.1-8.1c0.4-2.2,0.3-5.4-0.7-7.6C-274.2-107.3-278.2-107.6-278.2-107.6z"/>
	<g>
		<circle class="st5" cx="-281.9" cy="-162.7" r="9.5"/>
		<polyline class="st6" points="-290.5,-158 -320.5,-153 -320.5,-172.3 -290.5,-167.3 		"/>
		<g>
			<line class="st6" x1="-245.6" y1="-151" x2="-271.8" y2="-159.7"/>
			<line class="st6" x1="-271.8" y1="-165.6" x2="-245.6" y2="-174.3"/>
		</g>
	</g>
</g>
<g>
	<g>
		
			<linearGradient id="SVGID_00000145021074574440622910000009968184600872006544_" gradientUnits="userSpaceOnUse" x1="-73.2774" y1="-115.4924" x2="-0.5129" y2="-115.4924">
			<stop  offset="0" style="stop-color:#00DCC4"/>
			<stop  offset="1" style="stop-color:#01AEF7"/>
		</linearGradient>
		<path style="fill:url(#SVGID_00000145021074574440622910000009968184600872006544_);" d="M-36.9-79.1c-20.1,0-36.4-16.3-36.4-36.4
			c0-20.1,16.3-36.4,36.4-36.4s36.4,16.3,36.4,36.4C-0.5-95.4-16.8-79.1-36.9-79.1z M-36.9-148.3c-18.1,0-32.8,14.7-32.8,32.8
			S-55-82.7-36.9-82.7s32.8-14.7,32.8-32.8S-18.8-148.3-36.9-148.3z"/>
	</g>
	<g>
		
			<linearGradient id="SVGID_00000133522107853080121210000012289515464586371746_" gradientUnits="userSpaceOnUse" x1="-60.214" y1="-121.5816" x2="-13.5763" y2="-121.5816">
			<stop  offset="0" style="stop-color:#00DCC4"/>
			<stop  offset="1" style="stop-color:#01AEF7"/>
		</linearGradient>
		<path style="fill:url(#SVGID_00000133522107853080121210000012289515464586371746_);" d="M-13.6-102.8h-46.6l23.3-37.7
			L-13.6-102.8z M-53.8-106.3H-20l-16.9-27.2L-53.8-106.3z"/>
	</g>
</g>
<linearGradient id="SVGID_00000136384803031760983410000017595402029864564608_" gradientUnits="userSpaceOnUse" x1="-223.119" y1="41.8483" x2="-102.5062" y2="41.8483">
	<stop  offset="0" style="stop-color:#00DCC4"/>
	<stop  offset="1" style="stop-color:#01AEF7"/>
</linearGradient>
<path style="fill:none;stroke:url(#SVGID_00000136384803031760983410000017595402029864564608_);stroke-width:3;stroke-linecap:round;stroke-linejoin:round;stroke-miterlimit:10;" d="
	M-221.3,81.6h87.9c7.5,0,13.7-6.1,13.7-13.7V32.5c0-7.7,6.3-14,14-14h1.8c0,0-0.2-16.4-15.6-16.4s-14.9,15.3-14.9,15.3v29.8
	c0,10.9-8.8,19.7-19.7,19.7h-55.3c-6.8,0-12.4,5.7-12.1,12.5C-221.6,80.9-221.5,81.8-221.3,81.6z"/>
<linearGradient id="SVGID_00000124876330735975008430000016068392168278167174_" gradientUnits="userSpaceOnUse" x1="-223.5062" y1="30.85" x2="-133.0593" y2="30.85">
	<stop  offset="0" style="stop-color:#00DCC4"/>
	<stop  offset="1" style="stop-color:#01AEF7"/>
</linearGradient>
<path style="fill:none;stroke:url(#SVGID_00000124876330735975008430000016068392168278167174_);stroke-width:3;stroke-linecap:round;stroke-linejoin:round;stroke-miterlimit:10;" d="
	M-212.2,67c-6.1-7.6-9.8-17.3-9.8-27.8c0-24.5,19.9-44.4,44.4-44.4c20.7,0,38,14.1,43,33.2"/>
<linearGradient id="SVGID_00000145045451807266368140000017247337322498112187_" gradientUnits="userSpaceOnUse" x1="-208.3951" y1="32.0644" x2="-146.7285" y2="32.0644">
	<stop  offset="0" style="stop-color:#00DCC4"/>
	<stop  offset="1" style="stop-color:#01AEF7"/>
</linearGradient>
<path style="fill:none;stroke:url(#SVGID_00000145045451807266368140000017247337322498112187_);stroke-width:3;stroke-linecap:round;stroke-linejoin:round;stroke-miterlimit:10;" d="
	M-152.4,54.3c2.7-4.4,4.2-9.6,4.2-15.1c0-16.2-13.1-29.3-29.3-29.3c-16.2,0-29.3,13.1-29.3,29.3c0,5.5,1.5,10.7,4.2,15.1H-152.4z"/>
<linearGradient id="SVGID_00000132792158624501709900000014775446905996531346_" gradientUnits="userSpaceOnUse" x1="-189.8025" y1="33.4705" x2="-175.247" y2="33.4705">
	<stop  offset="0" style="stop-color:#00DCC4"/>
	<stop  offset="1" style="stop-color:#01AEF7"/>
</linearGradient>
<line style="fill:none;stroke:url(#SVGID_00000132792158624501709900000014775446905996531346_);stroke-width:3;stroke-linecap:round;stroke-linejoin:round;stroke-miterlimit:10;" x1="-176.7" y1="39.2" x2="-188.3" y2="27.7"/>
<path class="st13" d="M-118.3,1.7c0,0-0.4-11.1,11.7-11.3"/>
<g>
	
		<linearGradient id="SVGID_00000031175913466023139890000015669402103990942635_" gradientUnits="userSpaceOnUse" x1="-197.2656" y1="-85.6925" x2="-132.7935" y2="-85.6925">
		<stop  offset="0" style="stop-color:#00DCC4"/>
		<stop  offset="1" style="stop-color:#01AEF7"/>
	</linearGradient>
	<path style="fill:url(#SVGID_00000031175913466023139890000015669402103990942635_);" d="M-138.7-60.9h-52.7c-0.5,0-1-0.3-1.3-0.7
		c-3-5-4.6-10.7-4.6-16.6c0-17.8,14.5-32.2,32.2-32.2c17.8,0,32.2,14.5,32.2,32.2c0,5.9-1.6,11.6-4.6,16.6
		C-137.7-61.2-138.2-60.9-138.7-60.9z M-190.5-63.9h51c2.5-4.4,3.8-9.3,3.8-14.3c0-16.1-13.1-29.2-29.2-29.2
		c-16.1,0-29.2,13.1-29.2,29.2C-194.3-73.2-193-68.3-190.5-63.9z"/>
</g>
<linearGradient id="SVGID_00000176025828658437003650000015079433851033725098_" gradientUnits="userSpaceOnUse" x1="-175.4305" y1="-86.3626" x2="-146.0925" y2="-86.3626">
	<stop  offset="0" style="stop-color:#00DCC4"/>
	<stop  offset="1" style="stop-color:#01AEF7"/>
</linearGradient>
<path style="fill:url(#SVGID_00000176025828658437003650000015079433851033725098_);" d="M-146.5-95.6c-0.6-0.6-1.5-0.6-2.1,0
	l-15.4,15.4l-8.8-8.8c-0.6-0.6-1.5-0.6-2.1,0c-0.6,0.6-0.6,1.5,0,2.1l9.8,9.8c0.3,0.3,0.7,0.4,1.1,0.4c0,0,0.1,0,0.1,0
	c0,0,0.1,0,0.1,0c0.4,0,0.8-0.1,1.1-0.4l16.4-16.4C-145.9-94.1-145.9-95-146.5-95.6z"/>
<linearGradient id="SVGID_00000050663851864270164420000013346965986163054231_" gradientUnits="userSpaceOnUse" x1="-213.0991" y1="-81.5555" x2="-86.4564" y2="-81.5555">
	<stop  offset="0" style="stop-color:#00DCC4"/>
	<stop  offset="1" style="stop-color:#01AEF7"/>
</linearGradient>
<path style="fill:url(#SVGID_00000050663851864270164420000013346965986163054231_);" d="M-101.4-118.4c0.1-1.4,0.6-4.3,2.7-6.4
	c1.8-1.9,4.5-2.9,8-3c0.8,0,1.5-0.7,1.5-1.5c0-0.8-0.7-1.5-1.5-1.5c0,0,0,0,0,0c-4.3,0.1-7.8,1.4-10.2,4c-2.7,2.8-3.3,6.4-3.5,8.3
	c-5.1,0-9.1,1.6-12.1,4.6c-5,5.2-4.9,12.7-4.8,12.9v2.7c-7.7-16.8-24.7-28-43.7-28c-26.5,0-48.1,21.6-48.1,48.1
	c0,10.3,3.3,20.4,9.4,28.6c-1.9,0.7-3.6,1.9-5,3.3c-2.7,2.8-4.1,6.4-4,10.3c0.1,2.1,0.1,3.2,1.2,3.6c0.2,0.1,0.4,0.1,0.5,0.1
	c0.1,0,0.1,0,0.2,0h92c8.7,0,15.8-7.1,15.8-15.8v-37.1c0-7.3,5.9-13.2,13.2-13.2h1.9c0.4,0,0.8-0.2,1.1-0.4c0.3-0.3,0.4-0.7,0.4-1.1
	C-86.5-100.1-86.9-116.6-101.4-118.4z M-210.1-78.2c0-24.9,20.2-45.1,45.1-45.1c20.5,0,38.4,13.8,43.6,33.6c0,0.1,0,0.1,0.1,0.2
	v19.7c0,10.6-8.6,19.2-19.2,19.2h-57.9c-0.7,0-1.4,0.1-2,0.2C-206.8-58.5-210.1-68-210.1-78.2z M-89.8-101.4
	c-8.9,0-16.2,7.3-16.2,16.2v37.1c0,7.1-5.8,12.8-12.8,12.8h-90.8c0-0.2,0-0.5,0-0.8c-0.1-3,1-5.9,3.1-8.1c2.1-2.2,5-3.4,8.1-3.4
	h57.9c12.2,0,22.2-10,22.2-22.2l0-31.3c0-0.1-0.1-6.6,4-10.8c2.4-2.5,5.8-3.7,10.1-3.7c11.8,0,14.2,10.3,14.7,14.2H-89.8z"/>
<image style="overflow:visible;" width="225" height="225" xlink:href="3EFFDFBB.jpg"  transform="matrix(0.4472 0 0 0.4472 -308.8766 115.7668)">
</image>
<linearGradient id="SVGID_00000049928047922911035580000008516903884822809239_" gradientUnits="userSpaceOnUse" x1="-191.4507" y1="146.1743" x2="-152.3396" y2="146.1743">
	<stop  offset="0" style="stop-color:#00DCC4"/>
	<stop  offset="1" style="stop-color:#01AEF7"/>
</linearGradient>
<path style="fill:none;stroke:url(#SVGID_00000049928047922911035580000008516903884822809239_);stroke-width:2;stroke-linecap:round;stroke-linejoin:round;stroke-miterlimit:10;" d="
	M-153.3,177h-29.9c-4,0-7.2-3.2-7.2-7.2v0c0-4,3.3-7.3,7.3-7.3h6.3v-33.4v-13.7h-7.2c-3.5,0-6.4,2.8-6.4,6.4v47.5"/>
<linearGradient id="SVGID_00000131326768882025043530000017386434212978623116_" gradientUnits="userSpaceOnUse" x1="-163.3766" y1="165.4104" x2="-117.6729" y2="165.4104">
	<stop  offset="0" style="stop-color:#00DCC4"/>
	<stop  offset="1" style="stop-color:#01AEF7"/>
</linearGradient>
<polygon style="fill:none;stroke:url(#SVGID_00000131326768882025043530000017386434212978623116_);stroke-width:2;stroke-linecap:round;stroke-linejoin:round;stroke-miterlimit:10;" points="
	-118.7,143.4 -162.4,187.4 -118.7,187.4 "/>
<linearGradient id="SVGID_00000102516954122893211090000001536859749523948709_" gradientUnits="userSpaceOnUse" x1="-145.0724" y1="170.9659" x2="-124.9339" y2="170.9659">
	<stop  offset="0" style="stop-color:#00DCC4"/>
	<stop  offset="1" style="stop-color:#01AEF7"/>
</linearGradient>
<polygon style="fill:none;stroke:url(#SVGID_00000102516954122893211090000001536859749523948709_);stroke-width:2;stroke-linecap:round;stroke-linejoin:round;stroke-miterlimit:10;" points="
	-125.9,161.8 -144.1,180.1 -125.9,180.1 "/>
<g>
	<path d="M-145.3,156.6c-2.1,0-4.2-0.4-6.2-1.1s-3.6-1.8-4.9-3.4c-1.3-1.6-2-3.6-2.1-6l2.6-0.2c0,0.1,0,0.4,0.1,1
		c0.1,0.6,0.2,1.3,0.6,2.1c0.3,0.8,0.9,1.6,1.6,2.4c0.8,0.8,1.8,1.5,3.2,2c1.4,0.5,3.1,0.8,5.3,0.8c2,0,3.5-0.2,4.7-0.7
		c1.2-0.5,2.1-1.1,2.7-1.8c0.6-0.7,1-1.4,1.2-2c0.2-0.7,0.3-1.1,0.3-1.4c0-1.5-0.3-2.7-1.1-3.5s-1.7-1.6-3-2.2
		c-1.3-0.5-2.7-1-4.2-1.4c-1.5-0.4-3-0.8-4.5-1.2c-1.5-0.4-2.9-1-4.2-1.6c-1.3-0.7-2.3-1.6-3-2.7c-0.7-1.1-1.1-2.6-1-4.3
		c0.1-1.7,0.6-3.1,1.7-4.3c1.1-1.2,2.5-2.1,4.3-2.8c1.8-0.6,3.7-1,5.9-1c2.1,0,4.1,0.4,5.8,1.2c1.7,0.8,3.1,1.9,4.1,3.4
		c1,1.5,1.5,3.4,1.5,5.7l-2.6,0.2c0.1-1.7-0.2-3-0.9-4.1c-0.7-1-1.5-1.8-2.5-2.4c-1-0.6-2-1-3.1-1.2c-1.1-0.2-2-0.3-2.7-0.3
		c-2.5,0-4.6,0.5-6.2,1.6c-1.7,1.1-2.5,2.5-2.6,4.1c0,1.4,0.3,2.6,1.1,3.5c0.8,0.9,1.8,1.6,3,2.1c1.2,0.5,2.6,1,4.1,1.3
		c1.5,0.4,3,0.8,4.5,1.2c1.5,0.4,2.9,1,4.1,1.6c1.2,0.7,2.2,1.6,3,2.7c0.7,1.2,1.1,2.6,1,4.5c0,1.7-0.6,3.2-1.7,4.4
		c-1.1,1.2-2.5,2.1-4.2,2.8C-141.3,156.3-143.2,156.6-145.3,156.6z M-146.4,124l-0.1-6.4h2.6l-0.1,6.4H-146.4z M-146.5,162.1
		l0.1-6.3h2.3l0.1,6.3H-146.5z"/>
</g>
<linearGradient id="SVGID_00000100365290841807095820000011486136195124042666_" gradientUnits="userSpaceOnUse" x1="-177.747" y1="141.2483" x2="-127.0803" y2="141.2483">
	<stop  offset="0" style="stop-color:#00DCC4"/>
	<stop  offset="1" style="stop-color:#01AEF7"/>
</linearGradient>
<polyline style="fill:none;stroke:url(#SVGID_00000100365290841807095820000011486136195124042666_);stroke-width:2;stroke-linecap:round;stroke-linejoin:round;stroke-miterlimit:10;" points="
	-176.7,129.8 -128.1,129.8 -128.1,152.7 "/>
<g>
	
		<linearGradient id="SVGID_00000124123057450771205030000017346140061229063841_" gradientUnits="userSpaceOnUse" x1="40.7902" y1="-86.6037" x2="138.7556" y2="-86.6037">
		<stop  offset="0" style="stop-color:#00DCC4"/>
		<stop  offset="1" style="stop-color:#01AEF7"/>
	</linearGradient>
	<path style="fill:url(#SVGID_00000124123057450771205030000017346140061229063841_);" d="M137.8-98.5c-0.6-0.2-1.2-0.1-1.6,0.3
		l-9.9,9.9v-27c0-0.8-0.7-1.5-1.5-1.5h-16.5c-0.4-1-0.8-1.9-1.4-2.7c-1.6-2.4-3.8-4.1-6.5-5.4c-2.1-1-4.5-1.5-7-1.7l0.2-9h-4l0.2,9
		c-2.8,0.1-5.4,0.6-7.8,1.5c-2.8,1-5,2.5-6.7,4.3c-1.1,1.2-1.8,2.5-2.2,4H61.7v-17.5c0-0.8-0.7-1.5-1.5-1.5h-9.5
		c-5.5,0-9.9,4.4-9.9,9.9V-63c0,0.2,0,0.5,0,0.7c0,6.1,4.9,11,11,11h37.8L78.4-40c-0.4,0.4-0.6,1.1-0.3,1.6c0.2,0.6,0.8,0.9,1.4,0.9
		h57.8c0.8,0,1.5-0.7,1.5-1.5v-58.2C138.8-97.8,138.4-98.3,137.8-98.5z M43.8-125.8c0-3.8,3.1-6.9,6.9-6.9h8v59.3h-6.8
		c-3.2,0-6.1,1.3-8.1,3.5V-125.8z M91.4-54.3H51.8c-4.4,0-8-3.6-8-8c0-0.2,0-0.3,0-0.5c0,0,0-0.1,0-0.1c0.3-4.2,3.8-7.5,8.1-7.5h8.3
		c0.8,0,1.5-0.7,1.5-1.5v-41.8h10.9c0,2.7,0.5,4.9,1.6,6.6c1.1,1.8,2.7,3.2,4.7,4.2c2,1,4.2,1.9,6.6,2.6c2.4,0.7,4.8,1.3,7.2,1.9
		c2.4,0.6,4.6,1.3,6.6,2.2c2,0.9,3.6,2,4.7,3.4c1.2,1.4,1.7,3.3,1.7,5.6c0,0.5-0.2,1.2-0.5,2.3c-0.3,1-1,2.1-1.9,3.2
		c-1,1.1-2.4,2-4.2,2.8c-1.8,0.8-4.3,1.2-7.4,1.2c-3.4,0-6.2-0.4-8.3-1.3c-2.1-0.8-3.8-1.9-5-3.1c-1.2-1.3-2-2.5-2.6-3.8
		c-0.5-1.3-0.8-2.4-0.9-3.4c-0.1-0.9-0.1-1.4-0.1-1.6l-4,0.4c0.2,3.9,1.3,7,3.3,9.5c2,2.4,4.6,4.2,7.7,5.3c2.6,0.9,5.3,1.4,8.1,1.6
		l-0.2,8.7h4l-0.2-8.8c2.5-0.2,4.8-0.6,6.9-1.4c2.7-1,4.9-2.5,6.7-4.4c1.7-1.9,2.6-4.2,2.7-7c0.1-2.9-0.5-5.2-1.6-7
		c-1.1-1.8-2.7-3.3-4.7-4.3c-2-1-4.1-1.9-6.5-2.6c-2.4-0.7-4.8-1.3-7.2-1.9c-2.4-0.6-4.6-1.3-6.5-2.1c-2-0.8-3.6-1.9-4.7-3.3
		c-1.2-1.4-1.8-3.2-1.7-5.5c0.1-2.6,1.5-4.8,4.1-6.5c2.6-1.7,5.9-2.6,9.8-2.6c1.2,0,2.6,0.2,4.3,0.5c1.7,0.4,3.3,1,4.9,1.9
		c1.6,0.9,2.9,2.2,3.9,3.8c1,1.6,1.5,3.8,1.4,6.4l4-0.3c0-1.1-0.1-2.2-0.2-3.2h14.2v28.5L92.3-54C92-54.2,91.7-54.3,91.4-54.3z
		 M135.8-40.5H83l52.7-53V-40.5z"/>
	
		<linearGradient id="SVGID_00000146474764390229512000000003065013942455598756_" gradientUnits="userSpaceOnUse" x1="102.1512" y1="-60.7121" x2="129.1491" y2="-60.7121">
		<stop  offset="0" style="stop-color:#00DCC4"/>
		<stop  offset="1" style="stop-color:#01AEF7"/>
	</linearGradient>
	<path style="fill:url(#SVGID_00000146474764390229512000000003065013942455598756_);" d="M102.3-48.1c0.2,0.6,0.8,0.9,1.4,0.9h24
		c0.8,0,1.5-0.7,1.5-1.5v-24.1c0-0.6-0.4-1.2-0.9-1.4c-0.6-0.2-1.2-0.1-1.6,0.3l-24,24.1C102.2-49.3,102-48.6,102.3-48.1z
		 M126.1-69.1v19h-18.9L126.1-69.1z"/>
</g>
<g>
	
		<linearGradient id="SVGID_00000072268013694622615790000007848733583687265924_" gradientUnits="userSpaceOnUse" x1="225.5637" y1="-79.7038" x2="252.749" y2="-79.7038">
		<stop  offset="0" style="stop-color:#00DCC4"/>
		<stop  offset="1" style="stop-color:#01AEF7"/>
	</linearGradient>
	<path style="fill:url(#SVGID_00000072268013694622615790000007848733583687265924_);" d="M238.2-62c0.1,0,0.2,0,0.3,0c0,0,0,0,0,0
		c0,0,0,0,0,0s0,0,0,0c0.1,0,0.2,0,0.3,0c0,0,0,0,0,0c0.1,0,0.2,0,0.3-0.1c0,0,0,0,0.1,0c0.1,0,0.1-0.1,0.2-0.1
		c0.1-0.1,0.2-0.1,0.2-0.2l12.7-12.7c0.6-0.6,0.6-1.6,0-2.2c-0.6-0.6-1.6-0.6-2.2,0l-10,10v-28.5c0-0.9-0.7-1.6-1.6-1.6
		s-1.6,0.7-1.6,1.6v28.5l-8.7-8.7c-0.6-0.6-1.6-0.6-2.2,0c-0.6,0.6-0.6,1.6,0,2.2l11.4,11.4c0,0,0,0,0.1,0.1c0,0,0.1,0,0.1,0.1
		c0.1,0.1,0.2,0.2,0.3,0.2c0,0,0,0,0,0c0,0,0,0,0,0C238-62.1,238.1-62.1,238.2-62C238.2-62,238.2-62,238.2-62z"/>
	
		<linearGradient id="SVGID_00000099631003630724595140000011216902087496637869_" gradientUnits="userSpaceOnUse" x1="210.3889" y1="-80.6667" x2="308.426" y2="-80.6667">
		<stop  offset="0" style="stop-color:#00DCC4"/>
		<stop  offset="1" style="stop-color:#01AEF7"/>
	</linearGradient>
	<path style="fill:url(#SVGID_00000099631003630724595140000011216902087496637869_);" d="M308.3-106.6
		C308.2-106.6,308.2-106.7,308.3-106.6c-0.1-0.2-0.2-0.3-0.3-0.4l-22.9-22.9c-0.1-0.1-0.2-0.2-0.3-0.2c0,0-0.1,0-0.1,0
		c-0.2-0.1-0.4-0.2-0.7-0.2h-37.1c-5.7,0-10.3,4.6-10.3,10.3v12.3c-14.6,1-26.2,13.2-26.2,28.1s11.6,27.1,26.2,28.1v9.9
		c0,5.9,4.8,10.7,10.7,10.7h59.5c0.9,0,1.6-0.7,1.6-1.6v-73.4C308.4-106.2,308.4-106.4,308.3-106.6z M303.1-107.5h-17.5V-125
		L303.1-107.5z M213.5-79.7c0-13.8,11.2-25,25-25s25,11.2,25,25s-11.2,25-25,25S213.5-65.9,213.5-79.7z M247.4-34.1
		c-4.2,0-7.6-3.4-7.6-7.6v-9.9c9-0.4,16.8-5,21.7-11.9c0.1,0,0.2,0,0.2,0h30.5c0.9,0,1.6-0.7,1.6-1.6s-0.7-1.6-1.6-1.6h-28.8
		c1.3-2.5,2.3-5.3,2.8-8.2h30.2c0.9,0,1.6-0.7,1.6-1.6s-0.7-1.6-1.6-1.6h-29.8c0-0.6,0.1-1.2,0.1-1.8c0-2.2-0.3-4.3-0.7-6.4h30
		c0.9,0,1.6-0.7,1.6-1.6s-0.7-1.6-1.6-1.6h-30.5c-0.1,0-0.3,0-0.4,0.1c-3.8-10.5-13.6-18.1-25.3-18.6V-120c0-4,3.2-7.2,7.2-7.2h35.5
		v21.3c0,0.9,0.7,1.6,1.6,1.6h21.3v70.2H247.4z"/>
</g>
<g>
	<polyline class="st25" points="249.1,123 249.1,155.3 261.7,142.6 	"/>
	<line class="st25" x1="237.7" y1="143.9" x2="249.1" y2="155.3"/>
</g>
<path class="st25" d="M248.7,166.1v11c0,5.1,4.1,9.2,9.2,9.2h59.5v-73.4l-22.9-22.9h-37.1c-4.8,0-8.8,3.9-8.8,8.8v13.4"/>
<polygon class="st25" points="317.4,112.9 294.6,90.1 294.6,112.9 "/>
<circle class="st25" cx="249.1" cy="139.1" r="26.6"/>
<line class="st25" x1="306.4" y1="131.2" x2="276" y2="131.2"/>
<line class="st25" x1="306.9" y1="142.5" x2="276.4" y2="142.5"/>
<line class="st25" x1="302.8" y1="153.8" x2="272.3" y2="153.8"/>
<g>
	<polyline class="st25" points="300.4,39.7 323.2,62.5 323.2,44.6 	"/>
	<line class="st25" x1="307.1" y1="62.5" x2="323.2" y2="62.5"/>
</g>
<path class="st25" d="M311.4,78.1v11c0,5.1,4.1,9.2,9.2,9.2h59.5V24.9L357.2,2.1h-37.1c-4.8,0-8.8,3.9-8.8,8.8v13.4"/>
<polygon class="st25" points="380.1,24.9 357.2,2.1 357.2,24.9 "/>
<circle class="st25" cx="311.8" cy="51.1" r="26.6"/>
<line class="st25" x1="369.1" y1="43.2" x2="338.6" y2="43.2"/>
<line class="st25" x1="369.6" y1="54.5" x2="339.1" y2="54.5"/>
<line class="st25" x1="365.4" y1="65.8" x2="334.9" y2="65.8"/>
<image style="overflow:visible;" width="225" height="225" xlink:href="3EFFDFBE.jpg"  transform="matrix(0.4282 0 0 0.4282 133.5678 -43.2702)">
</image>
<g>
	
		<linearGradient id="SVGID_00000090984838984402944440000017696138092677016232_" gradientUnits="userSpaceOnUse" x1="-95.1004" y1="-53.0621" x2="-79.3274" y2="-53.0621">
		<stop  offset="0" style="stop-color:#00DCC4"/>
		<stop  offset="1" style="stop-color:#01AEF7"/>
	</linearGradient>
	<path style="fill:url(#SVGID_00000090984838984402944440000017696138092677016232_);" d="M-89.2-47.4c-0.4,0-0.8-0.1-1-0.4
		l-4.5-4.5c-0.6-0.6-0.6-1.5,0-2.1c0.6-0.6,1.5-0.6,2.1,0l3.4,3.4l7.3-7.3c0.6-0.6,1.5-0.6,2.1,0c0.6,0.6,0.6,1.5,0,2.1l-8.4,8.4
		C-88.4-47.6-88.8-47.4-89.2-47.4z"/>
</g>
<g>
	
		<linearGradient id="SVGID_00000101081953997857068750000012250251063889950105_" gradientUnits="userSpaceOnUse" x1="-120.179" y1="-53.1498" x2="-55.9046" y2="-53.1498">
		<stop  offset="0" style="stop-color:#00DCC4"/>
		<stop  offset="1" style="stop-color:#01AEF7"/>
	</linearGradient>
	<path style="fill:url(#SVGID_00000101081953997857068750000012250251063889950105_);" d="M-82.2-21h-11.7l-0.9-8.7
		c-1.8-0.5-3.5-1.2-5.1-2.1l-6.8,5.5l-8.3-8.3l5.4-6.7c-1-1.6-1.7-3.4-2.3-5.2l-8.5-0.9V-59l8.1-0.8c0.5-2,1.2-3.9,2.2-5.7l-5.1-6.2
		l8.3-8.3l6,4.9c1.9-1.1,3.9-2,6-2.6l0.8-7.6h11.7l0.8,7.5c2.2,0.6,4.2,1.4,6.2,2.6l5.8-4.7l8.3,8.3l-4.8,5.9c1.1,1.9,1.9,4,2.4,6
		l7.7,0.8v11.7l-8,0.8c-0.6,2-1.4,3.8-2.4,5.6l5.2,6.4l-8.3,8.3l-6.6-5.4c-1.7,0.9-3.5,1.6-5.3,2.1L-82.2-21z M-91.2-24h6.4l0.8-8
		l1-0.2c2.2-0.5,4.4-1.3,6.4-2.5l0.9-0.5l6.1,5l4.5-4.5l-4.9-6l0.6-0.9c1.3-2,2.3-4.2,2.9-6.6l0.3-1l7.4-0.8v-6.4l-7.2-0.7l-0.2-1.1
		c-0.5-2.5-1.5-4.8-2.8-7.1l-0.5-0.9l4.5-5.5l-4.5-4.5l-5.4,4.4l-0.9-0.6c-2.2-1.4-4.6-2.4-7.2-3l-1-0.2l-0.7-6.9h-6.4l-0.7,7
		l-1,0.2c-2.5,0.6-4.9,1.6-7,3l-0.9,0.6l-5.6-4.6l-4.5,4.5l4.7,5.7l-0.5,0.9c-1.3,2.1-2.2,4.4-2.6,6.7l-0.2,1.1l-7.6,0.8v6.4
		l7.8,0.8l0.3,1c0.6,2.2,1.5,4.4,2.7,6.3l0.6,0.9l-5.1,6.2l4.5,4.5l6.3-5.1l0.9,0.5c1.9,1.2,4,2,6.2,2.6l1,0.2L-91.2-24z
		 M-87.8-37.6c-8.9,0-16.1-7.2-16.1-16.1c0-8.9,7.2-16.1,16.1-16.1c8.9,0,16.1,7.2,16.1,16.1C-71.7-44.8-78.9-37.6-87.8-37.6z
		 M-87.8-66.9c-7.3,0-13.2,5.9-13.2,13.2s5.9,13.2,13.2,13.2s13.2-5.9,13.2-13.2S-80.6-66.9-87.8-66.9z"/>
</g>
<g>
	
		<linearGradient id="SVGID_00000153705101771020847610000015685208199915552189_" gradientUnits="userSpaceOnUse" x1="-51.385" y1="-8.6954" x2="-6.4817" y2="-8.6954">
		<stop  offset="0" style="stop-color:#00DCC4"/>
		<stop  offset="1" style="stop-color:#01AEF7"/>
	</linearGradient>
	<path style="fill:url(#SVGID_00000153705101771020847610000015685208199915552189_);" d="M-24.5,13.8h-8.8L-34,7.7
		c-1-0.3-2-0.7-3-1.2l-4.7,3.8l-6.2-6.2l3.8-4.6c-0.5-1-1-2-1.3-3.1l-5.9-0.6v-8.8l5.7-0.6c0.3-1.2,0.8-2.3,1.3-3.4l-3.5-4.3
		l6.2-6.2l4.2,3.4c1.1-0.7,2.4-1.2,3.6-1.6l0.5-5.3h8.8l0.5,5.2c1.3,0.4,2.6,0.9,3.7,1.6l4.1-3.3l6.2,6.2l-3.4,4.1
		c0.6,1.2,1.1,2.4,1.5,3.7l5.4,0.5v8.8l-5.6,0.6c-0.4,1.2-0.9,2.3-1.5,3.3l3.6,4.4l-6.2,6.2l-4.6-3.8c-1,0.5-2.1,0.9-3.1,1.2
		L-24.5,13.8z M-30.7,10.8h3.5l0.5-5.4l1-0.2c1.5-0.3,2.9-0.9,4.2-1.7l0.9-0.5l4.1,3.4l2.5-2.5l-3.3-4l0.6-0.9
		c0.9-1.3,1.5-2.8,1.9-4.4l0.3-1l5-0.5v-3.5l-4.8-0.5l-0.2-1.1c-0.3-1.6-1-3.2-1.9-4.7l-0.5-0.9l3-3.7l-2.5-2.5l-3.6,3l-0.9-0.6
		c-1.5-0.9-3.1-1.6-4.8-2l-1-0.2l-0.5-4.6h-3.5l-0.5,4.7l-1,0.2c-1.7,0.4-3.2,1.1-4.6,2l-0.9,0.6l-3.8-3.1l-2.5,2.5l3.1,3.9
		l-0.5,0.9c-0.8,1.4-1.4,2.9-1.8,4.5l-0.2,1.1l-5.1,0.5v3.5l5.3,0.5l0.3,1c0.4,1.5,1,2.9,1.8,4.2l0.6,0.9L-44,3.9l2.5,2.5l4.2-3.5
		l0.9,0.5c1.3,0.8,2.7,1.3,4.1,1.7l1,0.2L-30.7,10.8z M-28.8,2.4c-6.3,0-11.5-5.2-11.5-11.5c0-6.3,5.2-11.5,11.5-11.5
		c6.3,0,11.5,5.2,11.5,11.5C-17.3-2.7-22.5,2.4-28.8,2.4z M-28.8-17.6c-4.7,0-8.6,3.8-8.6,8.6s3.8,8.6,8.6,8.6s8.6-3.8,8.6-8.6
		S-24.1-17.6-28.8-17.6z"/>
</g>
<g>
	
		<linearGradient id="SVGID_00000022526158189525785740000015442752395727611022_" gradientUnits="userSpaceOnUse" x1="-51.888" y1="-44.494" x2="-22.2073" y2="-44.494">
		<stop  offset="0" style="stop-color:#00DCC4"/>
		<stop  offset="1" style="stop-color:#01AEF7"/>
	</linearGradient>
	<path style="fill:url(#SVGID_00000022526158189525785740000015442752395727611022_);" d="M-28.8-34.1c-0.2,0-0.4,0-0.6-0.1
		c-0.5-0.2-0.9-0.8-0.9-1.4V-52h-20.1c-0.8,0-1.5-0.7-1.5-1.5s0.7-1.5,1.5-1.5h21.6c0.8,0,1.5,0.7,1.5,1.5v14.3l2.6-2.6
		c0.6-0.6,1.5-0.6,2.1,0c0.6,0.6,0.6,1.5,0,2.1l-5.1,5.1C-28.1-34.2-28.4-34.1-28.8-34.1z"/>
</g>
<g>
	
		<linearGradient id="SVGID_00000082335260543427447140000009997879461879051649_" gradientUnits="userSpaceOnUse" x1="-35.5432" y1="-38.1637" x2="-27.3811" y2="-38.1637">
		<stop  offset="0" style="stop-color:#00DCC4"/>
		<stop  offset="1" style="stop-color:#01AEF7"/>
	</linearGradient>
	<path style="fill:url(#SVGID_00000082335260543427447140000009997879461879051649_);" d="M-28.9-34.1c-0.4,0-0.8-0.1-1-0.4
		l-5.2-5.2c-0.6-0.6-0.6-1.5,0-2.1c0.6-0.6,1.5-0.6,2.1,0l5.2,5.2c0.6,0.6,0.6,1.5,0,2.1C-28.1-34.2-28.5-34.1-28.9-34.1z"/>
</g>
<g>
	
		<linearGradient id="SVGID_00000062178766688524037780000012318530292554304427_" gradientUnits="userSpaceOnUse" x1="136.0459" y1="179.1889" x2="165.7265" y2="179.1889" gradientTransform="matrix(-1 0 0 -1 71.2468 172.9411)">
		<stop  offset="0" style="stop-color:#00DCC4"/>
		<stop  offset="1" style="stop-color:#01AEF7"/>
	</linearGradient>
	<path style="fill:url(#SVGID_00000062178766688524037780000012318530292554304427_);" d="M-66.3,4.2h-21.6c-0.8,0-1.5-0.7-1.5-1.5
		v-14.3L-92-9c-0.6,0.6-1.5,0.6-2.1,0s-0.6-1.5,0-2.1l5.1-5.1c0.4-0.4,1.1-0.5,1.6-0.3c0.5,0.2,0.9,0.8,0.9,1.4V1.2h20.1
		c0.8,0,1.5,0.7,1.5,1.5S-65.5,4.2-66.3,4.2z"/>
</g>
<g>
	
		<linearGradient id="SVGID_00000131330334930312756400000002875987777851934356_" gradientUnits="userSpaceOnUse" x1="152.3907" y1="185.5193" x2="160.5522" y2="185.5193" gradientTransform="matrix(-1 0 0 -1 71.2468 172.9411)">
		<stop  offset="0" style="stop-color:#00DCC4"/>
		<stop  offset="1" style="stop-color:#01AEF7"/>
	</linearGradient>
	<path style="fill:url(#SVGID_00000131330334930312756400000002875987777851934356_);" d="M-82.6-8.5c-0.4,0-0.8-0.1-1-0.4l-5.2-5.2
		c-0.6-0.6-0.6-1.5,0-2.1c0.6-0.6,1.5-0.6,2.1,0l5.2,5.2c0.6,0.6,0.6,1.5,0,2.1C-81.9-8.6-82.2-8.5-82.6-8.5z"/>
</g>
<linearGradient id="SVGID_00000139977908422761488620000010659588200923976087_" gradientUnits="userSpaceOnUse" x1="-95.114" y1="78.569" x2="-80.203" y2="78.569">
	<stop  offset="0" style="stop-color:#00DCC4"/>
	<stop  offset="1" style="stop-color:#01AEF7"/>
</linearGradient>
<polyline style="fill:none;stroke:url(#SVGID_00000139977908422761488620000010659588200923976087_);stroke-width:2.9411;stroke-miterlimit:10;" points="
	-94.1,77.8 -89.6,82.2 -81.2,73.9 "/>
<linearGradient id="SVGID_00000110439100539511092430000017189083317718092977_" gradientUnits="userSpaceOnUse" x1="-120.6231" y1="77.9614" x2="-56.3496" y2="77.9614">
	<stop  offset="0" style="stop-color:#00DCC4"/>
	<stop  offset="1" style="stop-color:#01AEF7"/>
</linearGradient>
<path style="fill:none;stroke:url(#SVGID_00000110439100539511092430000017189083317718092977_);stroke-width:2.9411;stroke-miterlimit:10;" d="
	M-57.8,82.5v-9l-7.4-0.8c-0.6-2.7-1.6-5.2-3-7.5l4.6-5.7l-6.4-6.4l-5.6,4.6c-2.3-1.5-4.9-2.6-7.7-3.2l-0.7-7.2h-9l-0.7,7.3
	c-2.7,0.6-5.2,1.7-7.5,3.2l-5.8-4.7l-6.4,6.4l4.9,6c-1.3,2.2-2.3,4.6-2.8,7.2l-7.9,0.8v9l8.1,0.8c0.6,2.4,1.6,4.7,2.9,6.7l-5.2,6.4
	l6.4,6.4l6.5-5.3c2,1.2,4.2,2.2,6.6,2.7l0.9,8.4h9l0.8-8.3c2.4-0.5,4.7-1.5,6.8-2.7l6.3,5.2l6.4-6.4l-5-6.1c1.4-2.1,2.4-4.5,3.1-7.1
	L-57.8,82.5z M-88.3,92.1c-8.1,0-14.7-6.6-14.7-14.7s6.6-14.7,14.7-14.7c8.1,0,14.7,6.6,14.7,14.7S-80.2,92.1-88.3,92.1z"/>
<linearGradient id="SVGID_00000097470968359592685600000014190707335702375831_" gradientUnits="userSpaceOnUse" x1="-51.829" y1="122.4159" x2="-6.9267" y2="122.4159">
	<stop  offset="0" style="stop-color:#00DCC4"/>
	<stop  offset="1" style="stop-color:#01AEF7"/>
</linearGradient>
<path style="fill:none;stroke:url(#SVGID_00000097470968359592685600000014190707335702375831_);stroke-width:2.9411;stroke-miterlimit:10;" d="
	M-8.4,125.5v-6.2l-5.1-0.5c-0.4-1.9-1.1-3.6-2.1-5.2l3.2-3.9l-4.4-4.4l-3.8,3.1c-1.6-1-3.3-1.8-5.2-2.2l-0.5-4.9h-6.2l-0.5,5
	c-1.8,0.4-3.6,1.2-5.1,2.2l-4-3.2l-4.4,4.4l3.3,4.1c-0.9,1.5-1.6,3.2-1.9,4.9l-5.4,0.5v6.2l5.6,0.6c0.4,1.7,1.1,3.2,2,4.6l-3.6,4.4
	l4.4,4.4l4.5-3.6c1.4,0.8,2.9,1.5,4.5,1.9l0.6,5.7h6.2l0.6-5.7c1.7-0.4,3.2-1,4.6-1.8l4.3,3.5l4.4-4.4l-3.4-4.2
	c1-1.5,1.7-3.1,2.1-4.8L-8.4,125.5z M-29.2,132.1c-5.5,0-10-4.5-10-10s4.5-10,10-10c5.5,0,10,4.5,10,10S-23.7,132.1-29.2,132.1z"/>
<linearGradient id="SVGID_00000106859050281567785380000002920242277652831368_" gradientUnits="userSpaceOnUse" x1="-52.332" y1="86.6171" x2="-22.652" y2="86.6171">
	<stop  offset="0" style="stop-color:#00DCC4"/>
	<stop  offset="1" style="stop-color:#01AEF7"/>
</linearGradient>
<polyline style="fill:none;stroke:url(#SVGID_00000106859050281567785380000002920242277652831368_);stroke-width:2.9411;stroke-linecap:round;stroke-linejoin:round;stroke-miterlimit:10;" points="
	-50.9,77.7 -29.3,77.7 -29.3,95.6 -24.1,90.4 "/>
<linearGradient id="SVGID_00000119839293418664189690000016151031497983656602_" gradientUnits="userSpaceOnUse" x1="-35.9875" y1="92.9474" x2="-27.826" y2="92.9474">
	<stop  offset="0" style="stop-color:#00DCC4"/>
	<stop  offset="1" style="stop-color:#01AEF7"/>
</linearGradient>
<line style="fill:none;stroke:url(#SVGID_00000119839293418664189690000016151031497983656602_);stroke-width:2.9411;stroke-linecap:round;stroke-linejoin:round;stroke-miterlimit:10;" x1="-34.5" y1="90.3" x2="-29.3" y2="95.6"/>
<linearGradient id="SVGID_00000057843816779857098370000004736826513969356988_" gradientUnits="userSpaceOnUse" x1="136.4906" y1="48.0783" x2="166.1706" y2="48.0783" gradientTransform="matrix(-1 0 0 -1 71.2468 172.9411)">
	<stop  offset="0" style="stop-color:#00DCC4"/>
	<stop  offset="1" style="stop-color:#01AEF7"/>
</linearGradient>
<polyline style="fill:none;stroke:url(#SVGID_00000057843816779857098370000004736826513969356988_);stroke-width:2.9411;stroke-linecap:round;stroke-linejoin:round;stroke-miterlimit:10;" points="
	-66.7,133.8 -88.3,133.8 -88.3,115.9 -93.5,121.1 "/>
<linearGradient id="SVGID_00000087405564198351560140000003869166533836419995_" gradientUnits="userSpaceOnUse" x1="152.8351" y1="54.4086" x2="160.9967" y2="54.4086" gradientTransform="matrix(-1 0 0 -1 71.2468 172.9411)">
	<stop  offset="0" style="stop-color:#00DCC4"/>
	<stop  offset="1" style="stop-color:#01AEF7"/>
</linearGradient>
<line style="fill:none;stroke:url(#SVGID_00000087405564198351560140000003869166533836419995_);stroke-width:2.9411;stroke-linecap:round;stroke-linejoin:round;stroke-miterlimit:10;" x1="-83.1" y1="121.1" x2="-88.3" y2="115.9"/>
<linearGradient id="SVGID_00000106127418691603008530000011104428267725879733_" gradientUnits="userSpaceOnUse" x1="67.9938" y1="-17.872" x2="78.5308" y2="-17.872">
	<stop  offset="0" style="stop-color:#00DCC4"/>
	<stop  offset="1" style="stop-color:#01AEF7"/>
</linearGradient>
<path style="fill:none;stroke:url(#SVGID_00000106127418691603008530000011104428267725879733_);stroke-width:3;stroke-miterlimit:10;" d="
	M77-6.1v-18c0-2.3-1.8-4.1-4.1-4.1H68"/>
<linearGradient id="SVGID_00000030463996489072080690000000460091488400503694_" gradientUnits="userSpaceOnUse" x1="35.5771" y1="-28.8165" x2="69.2438" y2="-28.8165">
	<stop  offset="0" style="stop-color:#00DCC4"/>
	<stop  offset="1" style="stop-color:#01AEF7"/>
</linearGradient>
<circle style="fill:none;stroke:url(#SVGID_00000030463996489072080690000000460091488400503694_);stroke-width:3;stroke-miterlimit:10;" cx="52.4" cy="-28.8" r="15.3"/>
<g>
	
		<linearGradient id="SVGID_00000137842801163983378840000015340484697039727292_" gradientUnits="userSpaceOnUse" x1="46.035" y1="-28.8165" x2="58.7859" y2="-28.8165">
		<stop  offset="0" style="stop-color:#00DCC4"/>
		<stop  offset="1" style="stop-color:#01AEF7"/>
	</linearGradient>
	
		<line style="fill:none;stroke:url(#SVGID_00000137842801163983378840000015340484697039727292_);stroke-width:3;stroke-miterlimit:10;" x1="57.7" y1="-23.5" x2="47.1" y2="-34.1"/>
	
		<linearGradient id="SVGID_00000069362023897376399850000018358699042724360887_" gradientUnits="userSpaceOnUse" x1="46.035" y1="79.7946" x2="58.7859" y2="79.7946" gradientTransform="matrix(1 0 0 -1 0 50.9781)">
		<stop  offset="0" style="stop-color:#00DCC4"/>
		<stop  offset="1" style="stop-color:#01AEF7"/>
	</linearGradient>
	
		<line style="fill:none;stroke:url(#SVGID_00000069362023897376399850000018358699042724360887_);stroke-width:3;stroke-miterlimit:10;" x1="57.7" y1="-34.1" x2="47.1" y2="-23.5"/>
</g>
<linearGradient id="SVGID_00000041263500201159974870000006904896555248641966_" gradientUnits="userSpaceOnUse" x1="115.7227" y1="-17.872" x2="126.2597" y2="-17.872" gradientTransform="matrix(-1 0 0 1 152.7283 0)">
	<stop  offset="0" style="stop-color:#00DCC4"/>
	<stop  offset="1" style="stop-color:#01AEF7"/>
</linearGradient>
<path style="fill:none;stroke:url(#SVGID_00000041263500201159974870000006904896555248641966_);stroke-width:3;stroke-miterlimit:10;" d="
	M28-6.1v-18c0-2.3,1.8-4.1,4.1-4.1H37"/>
<g>
	<g>
		
			<linearGradient id="SVGID_00000046302044570880297310000012088819142128537277_" gradientUnits="userSpaceOnUse" x1="22.7866" y1="24.0572" x2="84.6365" y2="24.0572">
			<stop  offset="0" style="stop-color:#00DCC4"/>
			<stop  offset="1" style="stop-color:#01AEF7"/>
		</linearGradient>
		<path style="fill:url(#SVGID_00000046302044570880297310000012088819142128537277_);" d="M78,19.6h-4.4C73,9,64.3,0.6,53.6,0.6
			S34.2,9,33.7,19.6h-4.2c-3.7,0-6.7,3-6.7,6.7v21.3h3.6V26.2c0-1.7,1.4-3.1,3.1-3.1h4.3c1.3,9.8,9.7,17.4,19.8,17.4
			s18.6-7.6,19.8-17.4H78c1.7,0,3.1,1.4,3.1,3.1v21.3h3.6V26.2C84.6,22.5,81.6,19.6,78,19.6z M53.6,37c-9.1,0-16.4-7.4-16.4-16.4
			c0-9.1,7.4-16.4,16.4-16.4S70,11.5,70,20.6C70,29.6,62.7,37,53.6,37z"/>
		
			<linearGradient id="SVGID_00000009571419207298989280000010132259363253582991_" gradientUnits="userSpaceOnUse" x1="46.0316" y1="20.5535" x2="61.1792" y2="20.5535">
			<stop  offset="0" style="stop-color:#00DCC4"/>
			<stop  offset="1" style="stop-color:#01AEF7"/>
		</linearGradient>
		<polygon style="fill:url(#SVGID_00000009571419207298989280000010132259363253582991_);" points="58.7,13 53.6,18 48.6,13 
			46,15.5 51.1,20.6 46,25.6 48.6,28.1 53.6,23.1 58.7,28.1 61.2,25.6 56.1,20.6 61.2,15.5 		"/>
	</g>
	<g>
		
			<linearGradient id="SVGID_00000116950283704168200510000011378077558587631745_" gradientUnits="userSpaceOnUse" x1="0.828" y1="75.9035" x2="47.9111" y2="75.9035">
			<stop  offset="0" style="stop-color:#00DCC4"/>
			<stop  offset="1" style="stop-color:#01AEF7"/>
		</linearGradient>
		<path style="fill:url(#SVGID_00000116950283704168200510000011378077558587631745_);" d="M29,99.4h-9.3l-0.6-6.3
			c-1.1-0.3-2.1-0.8-3.2-1.3l-4.9,4l-6.5-6.5l4-4.9c-0.6-1-1-2.1-1.4-3.3l-6.2-0.6v-9.3l5.9-0.6c0.3-1.2,0.8-2.4,1.4-3.6l-3.7-4.6
			L11,56l4.4,3.6c1.2-0.7,2.5-1.2,3.8-1.6l0.6-5.6H29l0.6,5.5c1.4,0.4,2.7,0.9,3.9,1.6l4.3-3.5l6.5,6.5l-3.5,4.3
			c0.7,1.2,1.2,2.5,1.5,3.8l5.6,0.6v9.3L42,81.1c-0.4,1.2-0.9,2.4-1.5,3.5l3.8,4.6l-6.5,6.5l-4.8-3.9c-1.1,0.5-2.2,1-3.3,1.3
			L29,99.4z M22.5,96.4h3.7l0.6-5.7l1.1-0.2c1.5-0.3,3-0.9,4.4-1.8l0.9-0.5l4.3,3.5l2.6-2.6l-3.4-4.2l0.6-0.9c0.9-1.4,1.6-2.9,2-4.6
			l0.3-1l5.2-0.5v-3.7l-5.1-0.5l-0.2-1.1c-0.3-1.7-1-3.4-2-4.9L37,66.6l3.1-3.9l-2.6-2.6l-3.8,3.1l-0.9-0.6c-1.5-1-3.2-1.7-5-2.1
			l-1.1-0.2l-0.5-4.9h-3.7L22,60.4L21,60.6c-1.8,0.4-3.4,1.1-4.9,2.1l-0.9,0.6l-3.9-3.2l-2.6,2.6l3.3,4l-0.6,0.9
			c-0.9,1.5-1.5,3.1-1.8,4.7l-0.2,1.1l-5.4,0.5v3.7l5.5,0.6l0.3,1c0.4,1.6,1,3,1.9,4.4l0.6,0.9l-3.6,4.4l2.6,2.6l4.4-3.6l0.9,0.6
			c1.3,0.8,2.8,1.4,4.3,1.8l1.1,0.3L22.5,96.4z M24.5,87.6c-6.6,0-12.1-5.4-12.1-12.1c0-6.6,5.4-12.1,12.1-12.1
			c6.6,0,12.1,5.4,12.1,12.1C36.6,82.2,31.2,87.6,24.5,87.6z M24.5,66.6c-4.9,0-9,4-9,9c0,4.9,4,9,9,9s9-4,9-9
			C33.5,70.6,29.5,66.6,24.5,66.6z"/>
	</g>
	<g>
		
			<linearGradient id="SVGID_00000047051712950210769900000016434258212991417480_" gradientUnits="userSpaceOnUse" x1="59.3482" y1="75.9035" x2="106.4312" y2="75.9035">
			<stop  offset="0" style="stop-color:#00DCC4"/>
			<stop  offset="1" style="stop-color:#01AEF7"/>
		</linearGradient>
		<path style="fill:url(#SVGID_00000047051712950210769900000016434258212991417480_);" d="M87.5,99.4h-9.3l-0.6-6.3
			c-1.1-0.3-2.1-0.8-3.2-1.3l-4.9,4L63,89.3l4-4.9c-0.6-1-1-2.1-1.4-3.3l-6.2-0.6v-9.3l5.9-0.6c0.3-1.2,0.8-2.4,1.4-3.6L63,62.5
			l6.5-6.5l4.4,3.6c1.2-0.7,2.5-1.2,3.8-1.6l0.6-5.6h9.3l0.6,5.5c1.4,0.4,2.7,0.9,3.9,1.6l4.3-3.5l6.5,6.5l-3.5,4.3
			c0.7,1.2,1.2,2.5,1.5,3.8l5.6,0.6v9.3l-5.9,0.6c-0.4,1.2-0.9,2.4-1.5,3.5l3.8,4.6l-6.5,6.5l-4.8-3.9c-1.1,0.5-2.2,1-3.3,1.3
			L87.5,99.4z M81,96.4h3.7l0.6-5.7l1.1-0.2c1.5-0.3,3-0.9,4.4-1.8l0.9-0.5l4.3,3.5l2.6-2.6l-3.4-4.2l0.6-0.9c0.9-1.4,1.6-2.9,2-4.6
			l0.3-1l5.2-0.5v-3.7l-5.1-0.5l-0.2-1.1c-0.3-1.7-1-3.4-2-4.9l-0.6-0.9l3.1-3.9l-2.6-2.6l-3.8,3.1l-0.9-0.6c-1.5-1-3.2-1.7-5-2.1
			l-1.1-0.2l-0.5-4.9H81l-0.5,4.9l-1.1,0.3c-1.8,0.4-3.4,1.1-4.9,2.1l-0.9,0.6l-3.9-3.2l-2.6,2.6l3.3,4l-0.6,0.9
			c-0.9,1.5-1.5,3.1-1.8,4.7l-0.2,1.1l-5.4,0.5v3.7l5.5,0.6l0.3,1c0.4,1.6,1,3,1.9,4.4l0.6,0.9l-3.6,4.4l2.6,2.6l4.4-3.6l0.9,0.6
			c1.3,0.8,2.8,1.4,4.3,1.8l1.1,0.3L81,96.4z M83,87.6c-6.6,0-12.1-5.4-12.1-12.1c0-6.6,5.4-12.1,12.1-12.1
			c6.6,0,12.1,5.4,12.1,12.1C95.1,82.2,89.7,87.6,83,87.6z M83,66.6c-4.9,0-9,4-9,9c0,4.9,4,9,9,9c4.9,0,9-4,9-9
			C92,70.6,88,66.6,83,66.6z"/>
	</g>
</g>
</svg>
