<?xml version="1.0" encoding="utf-8"?>
<!-- Generator: Adobe Illustrator 27.5.0, SVG Export Plug-In . SVG Version: 6.00 Build 0)  -->
<svg version="1.1" id="Layer_1" xmlns="http://www.w3.org/2000/svg" xmlns:xlink="http://www.w3.org/1999/xlink" x="0px" y="0px"
	 viewBox="0 0 126.6 98.6" style="enable-background:new 0 0 126.6 98.6;" xml:space="preserve">
<style type="text/css">
	.st0{fill:#02BBF8;}
	.st1{fill:none;stroke:#02BBF8;stroke-width:5;stroke-linecap:round;stroke-linejoin:round;stroke-miterlimit:10;}
	.st2{fill:url(#SVGID_1_);}
	.st3{fill:url(#SVGID_00000061429291433454425760000011080228962830576035_);}
	.st4{fill:none;stroke:#02BBF8;stroke-width:2.5041;stroke-linecap:round;stroke-linejoin:round;stroke-miterlimit:10;}
	.st5{fill:none;stroke:#02BBF8;stroke-width:2.7646;stroke-linecap:round;stroke-linejoin:round;stroke-miterlimit:10;}
	.st6{fill:none;stroke:#02BBF8;stroke-width:2.6868;stroke-linecap:round;stroke-linejoin:round;stroke-miterlimit:10;}
	.st7{fill:url(#SVGID_00000134956381730872011360000017006196127040041897_);}
	.st8{fill:url(#SVGID_00000126291866072040225530000001654564775750138524_);}
	
		.st9{fill:none;stroke:url(#SVGID_00000122715063454975247810000001964531529773781920_);stroke-width:3;stroke-linecap:round;stroke-linejoin:round;stroke-miterlimit:10;}
	
		.st10{fill:none;stroke:url(#SVGID_00000173868871869338235010000001258216615330775216_);stroke-width:3;stroke-linecap:round;stroke-linejoin:round;stroke-miterlimit:10;}
	
		.st11{fill:none;stroke:url(#SVGID_00000088853912743338598260000001703260943969667478_);stroke-width:3;stroke-linecap:round;stroke-linejoin:round;stroke-miterlimit:10;}
	
		.st12{fill:none;stroke:url(#SVGID_00000046319591470386467990000005499941239888518314_);stroke-width:3;stroke-linecap:round;stroke-linejoin:round;stroke-miterlimit:10;}
	.st13{fill:none;stroke:#01AEF7;stroke-width:3;stroke-linecap:round;stroke-linejoin:round;stroke-miterlimit:10;}
	.st14{fill:url(#SVGID_00000143585842706834079370000013172558792683783816_);}
	.st15{fill:url(#SVGID_00000064333719884462294390000006690131991989030062_);}
	.st16{fill:url(#SVGID_00000169531571599180651480000004084071736864578710_);}
	.st17{fill:url(#SVGID_00000074416312304868651230000016918734060145971108_);}
	.st18{fill:#01AEF7;}
</style>
<g>
	<path class="st0" d="M-51.3,163.9c24.8,0,45,20.2,45,45c0,24.8-20.2,45-45,45s-45-20.2-45-45C-96.3,184-76.2,163.9-51.3,163.9
		 M-51.3,158.9c-27.6,0-50,22.4-50,50c0,27.6,22.4,50,50,50c27.6,0,50-22.4,50-50C-1.3,181.2-23.7,158.9-51.3,158.9L-51.3,158.9z"/>
</g>
<g>
	<line class="st1" x1="-51.3" y1="229.8" x2="-51.3" y2="178.1"/>
	<polyline class="st1" points="-69.2,195.9 -51.3,178.1 -33.5,195.9 	"/>
</g>
<image style="overflow:visible;" width="250" height="253" xlink:href="E8320048.jpg"  transform="matrix(1 0 0 1 -543.7347 -32.6597)">
</image>
<g>
	<linearGradient id="SVGID_1_" gradientUnits="userSpaceOnUse" x1="179.4035" y1="58.8177" x2="199.9191" y2="58.8177">
		<stop  offset="0" style="stop-color:#00DCC4"/>
		<stop  offset="1" style="stop-color:#01AEF7"/>
	</linearGradient>
	<path class="st2" d="M198,55.1c-0.5,0-0.9,0.3-1.1,0.7c-0.6,1.3-1.5,2-2.3,2.4c1.1-3.4,1-8.4-4.2-11.8c-0.4-0.2-0.9-0.3-1.3,0
		c-0.4,0.2-0.6,0.6-0.6,1.1c0,1.8-3,4.5-4.6,5.9c-0.6,0.5-1,0.9-1.4,1.2c-1.4,1.4-3.8,5.2-3,9.4c0.9,4.6,4.8,7.6,9.9,7.6
		c5.2,0,9.3-3.3,10.2-8.2c0.4-2.1,0.3-5.2-0.7-7.4C198.9,55.4,198.4,55.1,198,55.1z M197.3,62.8c-0.7,3.8-3.8,6.2-7.8,6.2
		c-4,0-6.9-2.1-7.5-5.6c-0.6-3,1.1-6,2.3-7.2c0.3-0.3,0.7-0.7,1.2-1.1c1.7-1.4,4-3.4,5-5.6c4.2,4,1.1,9.5,0.9,9.8
		c-0.2,0.4-0.2,0.8,0,1.2c0.2,0.4,0.6,0.6,1,0.7c0.1,0,2.8,0.2,5-1.9C197.5,60.5,197.5,61.8,197.3,62.8z"/>
	
		<linearGradient id="SVGID_00000018206187385871226540000007990240135082885256_" gradientUnits="userSpaceOnUse" x1="153.7281" y1="49.2997" x2="222.6919" y2="49.2997">
		<stop  offset="0" style="stop-color:#00DCC4"/>
		<stop  offset="1" style="stop-color:#01AEF7"/>
	</linearGradient>
	<path style="fill:url(#SVGID_00000018206187385871226540000007990240135082885256_);" d="M221.9,20.1l-23.1-7.7
		c0.1-0.5,0.1-1,0.1-1.5c0-0.5-0.1-1-0.1-1.5l23.1-7.7c0.6-0.2,1-0.9,0.8-1.5c-0.2-0.6-0.9-1-1.5-0.8l-23,7.6
		c-1.5-3.4-4.9-5.8-8.9-5.8c-3.3,0-6.3,1.7-8,4.3l-26.1-4.4c-0.3-0.1-0.7,0-1,0.3c-0.3,0.2-0.4,0.6-0.4,0.9v17.1
		c0,0.4,0.2,0.7,0.4,0.9c0.2,0.2,0.5,0.3,0.8,0.3c0.1,0,0.1,0,0.2,0l26.1-4.4c0.9,1.4,2.2,2.5,3.6,3.2c-7.9,1.9-13.8,9-13.8,17.4
		c0,0.1,0,0.1,0,0.2v52.6c0,5.2,4.2,9.4,9.4,9.4h17c5.2,0,9.4-4.2,9.4-9.4V37c0,0,0,0,0,0c0-8.4-5.7-15.4-13.5-17.4
		c2.1-1,3.7-2.7,4.6-4.8l23,7.6c0.1,0,0.3,0.1,0.4,0.1c0.5,0,1-0.3,1.1-0.8C222.8,21,222.5,20.3,221.9,20.1z M156.1,18.1V3.8l24,4
		c-0.3,1-0.5,2.1-0.5,3.2c0,1.1,0.2,2.2,0.5,3.2L156.1,18.1z M197.5,97h-17c-4,0-7.2-3.2-7.2-7.2V38.2h31.4v51.6
		C204.7,93.7,201.5,97,197.5,97z M204.4,35.7h-30.9c0.6-8,7.3-14.3,15.4-14.3C197.1,21.5,203.8,27.8,204.4,35.7z M189.2,18.1
		c-4,0-7.2-3.2-7.2-7.2s3.2-7.2,7.2-7.2s7.2,3.2,7.2,7.2S193.2,18.1,189.2,18.1z"/>
</g>
<g>
	<path class="st4" d="M-281.5-64.2h-19.1c-5.2,0-9.3-4.2-9.3-9.3V-133h37.8v59.4C-272.1-68.4-276.3-64.2-281.5-64.2z"/>
	<path class="st5" d="M-291.1-151.8c-10.4,0-18.8,8.4-18.8,18.8h37.6C-272.3-143.4-280.7-151.8-291.1-151.8z"/>
	<path class="st5" d="M-287.1-107.2c0,0,5.2-8.7-3.1-14.1c0.1,3.5-5.5,7.3-7.1,9c-1.6,1.7-3.7,5.5-3,9.3c0.8,4.2,4.3,7.4,9.8,7.4
		c5.5,0,9.2-3.5,10.1-8.1c0.4-2.2,0.3-5.4-0.7-7.6C-283.2-106.9-287.1-107.2-287.1-107.2z"/>
	<g>
		<circle class="st5" cx="-290.8" cy="-162.3" r="9.5"/>
		<polyline class="st6" points="-299.4,-157.7 -329.4,-152.6 -329.4,-171.9 -299.4,-166.9 		"/>
		<g>
			<line class="st6" x1="-254.5" y1="-150.7" x2="-280.7" y2="-159.3"/>
			<line class="st6" x1="-280.7" y1="-165.2" x2="-254.5" y2="-173.9"/>
		</g>
	</g>
</g>
<g>
	<g>
		
			<linearGradient id="SVGID_00000043415145077948713980000005247049532300300983_" gradientUnits="userSpaceOnUse" x1="-82.228" y1="-115.1227" x2="-9.4636" y2="-115.1227">
			<stop  offset="0" style="stop-color:#00DCC4"/>
			<stop  offset="1" style="stop-color:#01AEF7"/>
		</linearGradient>
		<path style="fill:url(#SVGID_00000043415145077948713980000005247049532300300983_);" d="M-45.8-78.7c-20.1,0-36.4-16.3-36.4-36.4
			c0-20.1,16.3-36.4,36.4-36.4s36.4,16.3,36.4,36.4C-9.5-95.1-25.8-78.7-45.8-78.7z M-45.8-147.9c-18.1,0-32.8,14.7-32.8,32.8
			s14.7,32.8,32.8,32.8s32.8-14.7,32.8-32.8S-27.8-147.9-45.8-147.9z"/>
	</g>
	<g>
		
			<linearGradient id="SVGID_00000151532949199804649350000017315119085464274835_" gradientUnits="userSpaceOnUse" x1="-69.1647" y1="-121.2118" x2="-22.5269" y2="-121.2118">
			<stop  offset="0" style="stop-color:#00DCC4"/>
			<stop  offset="1" style="stop-color:#01AEF7"/>
		</linearGradient>
		<path style="fill:url(#SVGID_00000151532949199804649350000017315119085464274835_);" d="M-22.5-102.4h-46.6l23.3-37.7
			L-22.5-102.4z M-62.7-106H-29l-16.9-27.2L-62.7-106z"/>
	</g>
</g>
<linearGradient id="SVGID_00000130624851023765012720000009320287728218771620_" gradientUnits="userSpaceOnUse" x1="-232.0697" y1="42.2181" x2="-111.4569" y2="42.2181">
	<stop  offset="0" style="stop-color:#00DCC4"/>
	<stop  offset="1" style="stop-color:#01AEF7"/>
</linearGradient>
<path style="fill:none;stroke:url(#SVGID_00000130624851023765012720000009320287728218771620_);stroke-width:3;stroke-linecap:round;stroke-linejoin:round;stroke-miterlimit:10;" d="
	M-230.3,82h87.9c7.5,0,13.7-6.1,13.7-13.7V32.9c0-7.7,6.3-14,14-14h1.8c0,0-0.2-16.4-15.6-16.4s-14.9,15.3-14.9,15.3v29.8
	c0,10.9-8.8,19.7-19.7,19.7h-55.3c-6.8,0-12.4,5.7-12.1,12.5C-230.5,81.2-230.4,82.1-230.3,82z"/>
<linearGradient id="SVGID_00000150800608916362139810000003244629965277573782_" gradientUnits="userSpaceOnUse" x1="-232.4569" y1="31.2197" x2="-142.01" y2="31.2197">
	<stop  offset="0" style="stop-color:#00DCC4"/>
	<stop  offset="1" style="stop-color:#01AEF7"/>
</linearGradient>
<path style="fill:none;stroke:url(#SVGID_00000150800608916362139810000003244629965277573782_);stroke-width:3;stroke-linecap:round;stroke-linejoin:round;stroke-miterlimit:10;" d="
	M-221.2,67.3c-6.1-7.6-9.8-17.3-9.8-27.8c0-24.5,19.9-44.4,44.4-44.4c20.7,0,38,14.1,43,33.2"/>
<linearGradient id="SVGID_00000120520255196379048940000001219659971308841887_" gradientUnits="userSpaceOnUse" x1="-217.3458" y1="32.4341" x2="-155.6791" y2="32.4341">
	<stop  offset="0" style="stop-color:#00DCC4"/>
	<stop  offset="1" style="stop-color:#01AEF7"/>
</linearGradient>
<path style="fill:none;stroke:url(#SVGID_00000120520255196379048940000001219659971308841887_);stroke-width:3;stroke-linecap:round;stroke-linejoin:round;stroke-miterlimit:10;" d="
	M-161.4,54.7c2.7-4.4,4.2-9.6,4.2-15.1c0-16.2-13.1-29.3-29.3-29.3c-16.2,0-29.3,13.1-29.3,29.3c0,5.5,1.5,10.7,4.2,15.1H-161.4z"/>
<linearGradient id="SVGID_00000113312634225871168120000005325460713074031290_" gradientUnits="userSpaceOnUse" x1="-198.7532" y1="33.8403" x2="-184.1977" y2="33.8403">
	<stop  offset="0" style="stop-color:#00DCC4"/>
	<stop  offset="1" style="stop-color:#01AEF7"/>
</linearGradient>
<line style="fill:none;stroke:url(#SVGID_00000113312634225871168120000005325460713074031290_);stroke-width:3;stroke-linecap:round;stroke-linejoin:round;stroke-miterlimit:10;" x1="-185.7" y1="39.6" x2="-197.3" y2="28.1"/>
<path class="st13" d="M-127.3,2.1c0,0-0.4-11.1,11.7-11.3"/>
<g>
	<g>
		
			<linearGradient id="SVGID_00000060019735725133168940000014499481627158503604_" gradientUnits="userSpaceOnUse" x1="0.4058" y1="55.4092" x2="126.6427" y2="55.4092">
			<stop  offset="0" style="stop-color:#00DCC4"/>
			<stop  offset="1" style="stop-color:#01AEF7"/>
		</linearGradient>
		<path style="fill:url(#SVGID_00000060019735725133168940000014499481627158503604_);" d="M2.2,98.6c-0.2,0-0.4,0-0.5-0.1
			c-1.1-0.4-1.1-1.5-1.2-3.6c-0.1-3.9,1.3-7.5,4-10.3c2.7-2.8,6.3-4.3,10.2-4.3h57.9c10.6,0,19.2-8.6,19.2-19.2V29.8
			c0-0.3-0.2-7.8,4.8-12.9c3-3.1,7.1-4.6,12.3-4.6c17.3,0,17.8,18.5,17.8,18.7c0,0.4-0.2,0.8-0.4,1.1c-0.3,0.3-0.7,0.4-1.1,0.4h-1.9
			c-7.3,0-13.2,5.9-13.2,13.2v37.1c0,8.7-7.1,15.8-15.8,15.8h-92C2.3,98.6,2.2,98.6,2.2,98.6z M3.4,95.6h90.8
			c7.1,0,12.8-5.8,12.8-12.8V45.6c0-8.9,7.3-16.2,16.2-16.2h0.2c-0.5-4-2.8-14.2-14.7-14.2c-4.3,0-7.7,1.2-10.1,3.7
			c-4.1,4.2-4,10.8-4,10.8l0,31.3c0,12.2-10,22.2-22.2,22.2H14.6c-3.1,0-5.9,1.2-8.1,3.4c-2.1,2.2-3.2,5.1-3.1,8.1
			C3.4,95.1,3.4,95.4,3.4,95.6z"/>
	</g>
	<g>
		
			<linearGradient id="SVGID_00000081643935436147155240000010978350106835642779_" gradientUnits="userSpaceOnUse" x1="0" y1="43.8875" x2="94.6284" y2="43.8875">
			<stop  offset="0" style="stop-color:#00DCC4"/>
			<stop  offset="1" style="stop-color:#01AEF7"/>
		</linearGradient>
		<path style="fill:url(#SVGID_00000081643935436147155240000010978350106835642779_);" d="M11.7,83.2c-0.4,0-0.9-0.2-1.2-0.6
			C3.7,74.2,0,63.5,0,52.6C0,26.1,21.6,4.5,48.1,4.5c21.9,0,41,14.8,46.5,35.9c0.2,0.8-0.3,1.6-1.1,1.8c-0.8,0.2-1.6-0.3-1.8-1.1
			C86.5,21.4,68.6,7.5,48.1,7.5C23.2,7.5,3,27.8,3,52.6C3,63,6.4,72.7,12.9,80.8c0.5,0.6,0.4,1.6-0.2,2.1
			C12.4,83.1,12.1,83.2,11.7,83.2z"/>
	</g>
	<g>
		
			<linearGradient id="SVGID_00000050631341394093160970000005703800395288490375_" gradientUnits="userSpaceOnUse" x1="15.8335" y1="45.1602" x2="80.3057" y2="45.1602">
			<stop  offset="0" style="stop-color:#00DCC4"/>
			<stop  offset="1" style="stop-color:#01AEF7"/>
		</linearGradient>
		<path style="fill:url(#SVGID_00000050631341394093160970000005703800395288490375_);" d="M74.4,69.9H21.7c-0.5,0-1-0.3-1.3-0.7
			c-3-5-4.6-10.7-4.6-16.6c0-17.8,14.5-32.2,32.2-32.2c17.8,0,32.2,14.5,32.2,32.2c0,5.9-1.6,11.6-4.6,16.6
			C75.4,69.7,74.9,69.9,74.4,69.9z M22.6,66.9h51c2.5-4.4,3.8-9.3,3.8-14.3c0-16.1-13.1-29.2-29.2-29.2c-16.1,0-29.2,13.1-29.2,29.2
			C18.8,57.6,20.1,62.6,22.6,66.9z"/>
	</g>
	<g>
		
			<linearGradient id="SVGID_00000047032549457563359680000002077298968591876502_" gradientUnits="userSpaceOnUse" x1="35.3154" y1="46.6335" x2="50.4233" y2="46.6335">
			<stop  offset="0" style="stop-color:#00DCC4"/>
			<stop  offset="1" style="stop-color:#01AEF7"/>
		</linearGradient>
		<path style="fill:url(#SVGID_00000047032549457563359680000002077298968591876502_);" d="M48.9,54.2c-0.4,0-0.8-0.1-1.1-0.4
			L35.8,41.6c-0.6-0.6-0.6-1.5,0-2.1c0.6-0.6,1.5-0.6,2.1,0L50,51.6c0.6,0.6,0.6,1.5,0,2.1C49.7,54,49.3,54.2,48.9,54.2z"/>
	</g>
	<g>
		<path class="st18" d="M110.1,14.9c-0.8,0-1.5-0.6-1.5-1.4c0-0.2-0.2-5.6,3.5-9.5c2.4-2.5,5.8-3.9,10.2-4c0,0,0,0,0,0
			c0.8,0,1.5,0.7,1.5,1.5c0,0.8-0.6,1.5-1.5,1.5c-3.5,0.1-6.2,1.1-8,3c-2.8,3-2.7,7.3-2.7,7.3C111.7,14.1,111,14.8,110.1,14.9
			C110.2,14.9,110.1,14.9,110.1,14.9z"/>
	</g>
</g>
</svg>
