<?xml version="1.0" encoding="utf-8"?>
<!-- Generator: Adobe Illustrator 27.5.0, SVG Export Plug-In . SVG Version: 6.00 Build 0)  -->
<svg version="1.1" id="Layer_1" xmlns="http://www.w3.org/2000/svg" xmlns:xlink="http://www.w3.org/1999/xlink" x="0px" y="0px"
	 viewBox="0 0 83.7 34.6" style="enable-background:new 0 0 83.7 34.6;" xml:space="preserve">
<style type="text/css">
	.st0{filter:url(#Adobe_OpacityMaskFilter);}
	.st1{fill:#1D1D1B;}
	.st2{mask:url(#SVGID_1_);fill:url(#SVGID_00000095312084347341687950000012051623616060947623_);}
</style>
<g>
	<defs>
		<filter id="Adobe_OpacityMaskFilter" filterUnits="userSpaceOnUse" x="0" y="-12.9" width="93.5" height="45.5">
			
				<feColorMatrix  type="matrix" values="-1 0 0 0 1  0 -1 0 0 1  0 0 -1 0 1  0 0 0 1 0" color-interpolation-filters="sRGB" result="source"/>
		</filter>
	</defs>
	<mask maskUnits="userSpaceOnUse" x="0" y="-12.9" width="93.5" height="45.5" id="SVGID_1_">
		<g class="st0">
			<g>
				<path class="st1" d="M57.3,4.9c-4.6,0-7.9,2.3-8.6,5.9c-0.8,4.4,3.2,5.3,5.9,5.9c1.8,0.4,2.8,0.7,2.7,1.3
					c-0.1,0.6-0.8,1.3-2.5,1.3c-0.9,0-1.5-0.2-1.8-0.5c-0.1-0.2-0.2-0.4-0.1-0.6l0.1-0.6h-5.7L47.2,18c-0.3,1.6,0,2.9,0.9,4
					c1.2,1.4,3.2,2.1,6,2.1c4.9,0,8.2-2.2,8.8-5.9c0.8-4.4-3.2-5.3-5.9-5.9c-1.8-0.4-2.8-0.7-2.7-1.3c0.1-0.7,0.9-1.3,2.3-1.3
					c0.7,0,1.3,0.2,1.5,0.5c0.1,0.2,0.2,0.4,0.1,0.7l-0.1,0.6h5.6l0.2-1c0.3-1.6,0-2.3-0.9-3.4C61.9,5.6,59.9,4.9,57.3,4.9z"/>
				<path class="st1" d="M81.9,7.3c-1.3-1.6-3.4-2.4-6.1-2.4c-5.5,0-9.6,3.6-10.6,9.5v0c-0.5,3,0,5.5,1.4,7.2C68,23.2,70,24,72.7,24
					c5.5,0,9.6-3.6,10.6-9.5C83.8,11.5,83.4,9,81.9,7.3z M70.9,14.5c0.6-3.2,2.1-4.9,4.4-4.9c0.9,0,1.5,0.3,2,0.8
					c0.7,0.8,0.8,2.2,0.5,4c-0.6,3.2-2.1,4.9-4.4,4.9c-0.9,0-1.5-0.3-2-0.8C70.7,17.8,70.5,16.4,70.9,14.5z"/>
				<path class="st1" d="M40.4,4.9c-0.5,0-0.9,0.3-1,0.8l-0.2,0.9c-0.2,1.3-1.3,2.2-2.6,2.2h-0.4c-0.7,0-1.3,0.5-1.4,1.2L32.5,24
					h5.7l2.2-13.3c0-0.2,0.3-1.1,1.4-1.1h5.6l0.8-4.7H40.4z"/>
				<path class="st1" d="M28.8,5h-8.4l-0.9,4.7h5.6c1.1,0,1.3,0.7,1.1,2c-0.1,0-3.5,0-3.5,0c-4.7,0-8.1,2.3-8.8,6
					c-0.3,1.7,0,3.2,1,4.3c1,1.2,2.8,2,4.9,2c0.5,0,3.4,0,4.8,0H25c0.5,0,1-0.4,1.1-0.9l0.4-2.4c0.1-0.6,0.6-1,1.2-1h1.9
					c0.5,0,0.8-0.3,0.9-0.8l1.7-9.9C32.7,6.6,31.3,5,28.8,5z M24.8,19.3c-1.4,0-3.5,0-3.8,0c-0.6,0-1.1-0.1-1.3-0.4
					c-0.2-0.2-0.2-0.5-0.2-0.9c0.1-0.4,0.3-1.5,2.8-1.5l2.9,0L24.8,19.3z"/>
				<path class="st1" d="M11.3,0.1L11.3,0.1L7.1,0H5.5H3C2.1,0,1.3,0.7,1.1,1.6L0.6,4.8h4.1h1.4c0.1,0,0.3,0.1,0.4,0.2l0,0
					c0.1,0.2,0.2,0.4,0.2,0.6L3.5,24h5.7l3.1-18.2c0-0.2,0.3-1.1,1.4-1.1h5.6l0.8-4.7L11.3,0.1z"/>
			</g>
		</g>
	</mask>
	
		<linearGradient id="SVGID_00000042737851635801496860000013702962027008453768_" gradientUnits="userSpaceOnUse" x1="11.9913" y1="44.636" x2="81.5073" y2="-24.8801">
		<stop  offset="0" style="stop-color:#00DFC1"/>
		<stop  offset="1" style="stop-color:#01ADF8"/>
	</linearGradient>
	
		<rect y="-12.9" style="mask:url(#SVGID_1_);fill:url(#SVGID_00000042737851635801496860000013702962027008453768_);" width="93.5" height="45.5"/>
	<g>
		<path class="st1" d="M6,30.2l-0.2,1H4.7l-0.6,3.4H2.9l0.6-3.4H2.3l0.2-1H6z"/>
		<path class="st1" d="M11.6,31.2l-0.1,0.7h1.4l-0.2,0.9h-1.4l-0.1,0.8h1.6l-0.2,1H9.8l0.8-4.3h2.8l-0.2,1H11.6z"/>
		<path class="st1" d="M18.1,31.3c0.2-0.3,0.5-0.6,0.9-0.8c0.4-0.2,0.8-0.3,1.2-0.3c0.5,0,1,0.1,1.3,0.4c0.3,0.3,0.5,0.7,0.5,1.2
			h-1.3c0-0.2-0.1-0.3-0.3-0.4c-0.1-0.1-0.3-0.1-0.5-0.1c-0.3,0-0.5,0.1-0.7,0.3c-0.2,0.2-0.3,0.5-0.4,0.8c-0.1,0.3,0,0.6,0.1,0.8
			c0.1,0.2,0.3,0.3,0.6,0.3c0.2,0,0.3,0,0.5-0.1c0.2-0.1,0.3-0.2,0.4-0.4h1.3c-0.2,0.5-0.5,0.9-0.9,1.2c-0.4,0.3-0.9,0.4-1.4,0.4
			c-0.4,0-0.8-0.1-1.1-0.3c-0.3-0.2-0.5-0.4-0.6-0.8c-0.1-0.3-0.1-0.7-0.1-1.1C17.7,32,17.9,31.6,18.1,31.3z"/>
		<path class="st1" d="M30.3,34.6h-1.2l-1.2-2.4l-0.4,2.4h-1.2l0.8-4.3h1.2l1.2,2.5l0.4-2.5H31L30.3,34.6z"/>
		<path class="st1" d="M36.1,34.3c-0.3-0.2-0.5-0.5-0.7-0.8c-0.1-0.3-0.2-0.7-0.1-1.1c0.1-0.4,0.2-0.8,0.5-1.1
			c0.3-0.3,0.6-0.6,0.9-0.8c0.4-0.2,0.8-0.3,1.2-0.3c0.4,0,0.8,0.1,1.1,0.3c0.3,0.2,0.5,0.5,0.7,0.8c0.1,0.3,0.2,0.7,0.1,1.1
			c-0.1,0.4-0.2,0.8-0.5,1.1c-0.3,0.3-0.6,0.6-0.9,0.8c-0.4,0.2-0.8,0.3-1.2,0.3C36.8,34.6,36.5,34.5,36.1,34.3z M38.2,33.2
			c0.2-0.2,0.4-0.5,0.4-0.8c0.1-0.3,0-0.6-0.1-0.8c-0.1-0.2-0.4-0.3-0.7-0.3c-0.3,0-0.6,0.1-0.8,0.3c-0.2,0.2-0.3,0.5-0.4,0.8
			c-0.1,0.3,0,0.6,0.1,0.8c0.1,0.2,0.4,0.3,0.7,0.3C37.7,33.5,38,33.4,38.2,33.2z"/>
		<path class="st1" d="M45.5,33.7h1.3l-0.2,0.9h-2.6l0.8-4.3h1.2L45.5,33.7z"/>
		<path class="st1" d="M52.4,34.3c-0.3-0.2-0.5-0.5-0.7-0.8c-0.1-0.3-0.2-0.7-0.1-1.1c0.1-0.4,0.2-0.8,0.5-1.1
			c0.3-0.3,0.6-0.6,0.9-0.8c0.4-0.2,0.8-0.3,1.2-0.3c0.4,0,0.8,0.1,1.1,0.3c0.3,0.2,0.5,0.5,0.7,0.8c0.1,0.3,0.2,0.7,0.1,1.1
			c-0.1,0.4-0.2,0.8-0.5,1.1c-0.3,0.3-0.6,0.6-0.9,0.8c-0.4,0.2-0.8,0.3-1.2,0.3C53,34.6,52.7,34.5,52.4,34.3z M54.4,33.2
			c0.2-0.2,0.4-0.5,0.4-0.8c0.1-0.3,0-0.6-0.1-0.8c-0.1-0.2-0.4-0.3-0.7-0.3c-0.3,0-0.6,0.1-0.8,0.3c-0.2,0.2-0.3,0.5-0.4,0.8
			c-0.1,0.3,0,0.6,0.1,0.8c0.1,0.2,0.4,0.3,0.7,0.3C54,33.5,54.2,33.4,54.4,33.2z"/>
		<path class="st1" d="M63.7,31.7c0-0.1-0.1-0.2-0.2-0.3c-0.1-0.1-0.2-0.1-0.4-0.1c-0.3,0-0.6,0.1-0.8,0.3c-0.2,0.2-0.3,0.5-0.4,0.8
			c-0.1,0.4,0,0.7,0.1,0.9c0.2,0.2,0.4,0.3,0.8,0.3c0.4,0,0.8-0.2,1-0.6h-1.2l0.2-0.9H65l-0.2,1.2c-0.1,0.2-0.3,0.4-0.5,0.6
			c-0.2,0.2-0.5,0.4-0.8,0.5c-0.3,0.1-0.6,0.2-1,0.2c-0.4,0-0.8-0.1-1.1-0.3c-0.3-0.2-0.5-0.4-0.6-0.8c-0.1-0.3-0.1-0.7-0.1-1.1
			c0.1-0.4,0.2-0.8,0.5-1.1c0.2-0.3,0.5-0.6,0.9-0.8c0.4-0.2,0.8-0.3,1.2-0.3c0.5,0,1,0.1,1.3,0.4c0.3,0.3,0.5,0.6,0.5,1.1H63.7z"/>
		<path class="st1" d="M71.2,30.2l-0.8,4.3h-1.2l0.8-4.3H71.2z"/>
		<path class="st1" d="M78.2,33.9h-1.5l-0.4,0.7H75l2.3-4.3h1.4l0.8,4.3h-1.3L78.2,33.9z M78.1,33l-0.2-1.4L77.1,33H78.1z"/>
	</g>
</g>
</svg>
