<?xml version="1.0" encoding="utf-8"?>
<!-- Generator: Adobe Illustrator 27.5.0, SVG Export Plug-In . SVG Version: 6.00 Build 0)  -->
<svg version="1.1" id="Layer_1" xmlns="http://www.w3.org/2000/svg" xmlns:xlink="http://www.w3.org/1999/xlink" x="0px" y="0px"
	 viewBox="0 0 100 100" style="enable-background:new 0 0 100 100;" xml:space="preserve">
<style type="text/css">
	.st0{fill:#02BBF8;}
	.st1{fill:none;stroke:#02BBF8;stroke-width:5;stroke-linecap:round;stroke-linejoin:round;stroke-miterlimit:10;}
	.st2{fill:url(#SVGID_1_);}
	.st3{fill:url(#SVGID_00000012439095492331185870000007177181069477761706_);}
	.st4{fill:none;stroke:#02BBF8;stroke-width:2.5041;stroke-linecap:round;stroke-linejoin:round;stroke-miterlimit:10;}
	.st5{fill:none;stroke:#02BBF8;stroke-width:2.7646;stroke-linecap:round;stroke-linejoin:round;stroke-miterlimit:10;}
	.st6{fill:none;stroke:#02BBF8;stroke-width:2.6868;stroke-linecap:round;stroke-linejoin:round;stroke-miterlimit:10;}
	.st7{fill:url(#SVGID_00000071534622890041720770000008920550059442888867_);}
	.st8{fill:url(#SVGID_00000058574126630497432730000002427547458406585242_);}
	
		.st9{fill:none;stroke:url(#SVGID_00000093878662343271143150000014091389347354148785_);stroke-width:3;stroke-linecap:round;stroke-linejoin:round;stroke-miterlimit:10;}
	
		.st10{fill:none;stroke:url(#SVGID_00000148624157987917209340000004622026635050795945_);stroke-width:3;stroke-linecap:round;stroke-linejoin:round;stroke-miterlimit:10;}
	
		.st11{fill:none;stroke:url(#SVGID_00000104706142658311537960000006239174797525361309_);stroke-width:3;stroke-linecap:round;stroke-linejoin:round;stroke-miterlimit:10;}
	
		.st12{fill:none;stroke:url(#SVGID_00000078740439805241616010000009402661659565947038_);stroke-width:3;stroke-linecap:round;stroke-linejoin:round;stroke-miterlimit:10;}
	.st13{fill:none;stroke:#01AEF7;stroke-width:3;stroke-linecap:round;stroke-linejoin:round;stroke-miterlimit:10;}
	.st14{fill:url(#SVGID_00000146478710084276981910000002322977248576940982_);}
	.st15{fill:url(#SVGID_00000101794140806528022120000018045935865239244418_);}
	.st16{fill:url(#SVGID_00000044896901992940102410000007753819522369626019_);}
	.st17{fill:url(#SVGID_00000085960040791454845340000018236232733507768715_);}
	.st18{fill:#01AEF7;}
	
		.st19{fill:none;stroke:url(#SVGID_00000150797637848480181650000012938641997420933016_);stroke-width:2;stroke-linecap:round;stroke-linejoin:round;stroke-miterlimit:10;}
	
		.st20{fill:none;stroke:url(#SVGID_00000070826309732171687300000007657084002541729963_);stroke-width:2;stroke-linecap:round;stroke-linejoin:round;stroke-miterlimit:10;}
	
		.st21{fill:none;stroke:url(#SVGID_00000044174008045896666780000004783374232056547724_);stroke-width:2;stroke-linecap:round;stroke-linejoin:round;stroke-miterlimit:10;}
	
		.st22{fill:none;stroke:url(#SVGID_00000081628536605805811890000017215021836008056503_);stroke-width:2;stroke-linecap:round;stroke-linejoin:round;stroke-miterlimit:10;}
	.st23{fill:url(#SVGID_00000063598723889966340320000018337249078283798199_);}
	.st24{fill:url(#SVGID_00000105417048638637181730000011458079977034586504_);}
</style>
<g>
	<path class="st0" d="M-51.8,163.5c24.8,0,45,20.2,45,45c0,24.8-20.2,45-45,45s-45-20.2-45-45C-96.8,183.7-76.6,163.5-51.8,163.5
		 M-51.8,158.5c-27.6,0-50,22.4-50,50c0,27.6,22.4,50,50,50c27.6,0,50-22.4,50-50C-1.8,180.9-24.2,158.5-51.8,158.5L-51.8,158.5z"/>
</g>
<g>
	<path class="st0" d="M50,5c24.8,0,45,20.2,45,45S74.8,95,50,95S5,74.8,5,50S25.2,5,50,5 M50,0C22.4,0,0,22.4,0,50s22.4,50,50,50
		c27.6,0,50-22.4,50-50S77.6,0,50,0L50,0z"/>
</g>
<g>
	<line class="st1" x1="-51.8" y1="229.5" x2="-51.8" y2="177.7"/>
	<polyline class="st1" points="-69.6,195.5 -51.8,177.7 -34,195.5 	"/>
</g>
<polyline class="st1" points="75.6,33.3 42.2,66.7 24.4,48.8 "/>
<image style="overflow:visible;" width="250" height="253" xlink:href="5CFAF2BF.jpg"  transform="matrix(1 0 0 1 -544.1914 -33.0295)">
</image>
<g>
	<linearGradient id="SVGID_1_" gradientUnits="userSpaceOnUse" x1="56.0283" y1="193.8892" x2="76.3031" y2="193.8892">
		<stop  offset="0" style="stop-color:#00DCC4"/>
		<stop  offset="1" style="stop-color:#01AEF7"/>
	</linearGradient>
	<path class="st2" d="M74.4,190.2c-0.5,0-0.9,0.2-1.1,0.7c-0.6,1.3-1.5,2-2.2,2.4c1.1-3.4,1-8.3-4.1-11.7c-0.4-0.2-0.9-0.3-1.3,0
		c-0.4,0.2-0.6,0.6-0.6,1.1c0,1.8-2.9,4.4-4.5,5.8c-0.5,0.5-1,0.9-1.4,1.2c-1.4,1.4-3.7,5.1-2.9,9.3c0.8,4.5,4.7,7.5,9.8,7.5
		c5.1,0,9.1-3.2,10.1-8.1c0.3-2,0.3-5.1-0.7-7.3C75.3,190.5,74.8,190.2,74.4,190.2z M73.7,197.9C73,201.6,70,204,66,204
		c-4,0-6.8-2.1-7.4-5.5c-0.6-2.9,1.1-5.9,2.3-7.1c0.3-0.3,0.7-0.7,1.2-1.1c1.6-1.4,3.9-3.4,4.9-5.6c4.1,4,1.1,9.4,0.9,9.7
		c-0.2,0.4-0.2,0.8,0,1.2c0.2,0.4,0.6,0.6,1,0.6c0.1,0,2.7,0.2,4.9-1.9C73.9,195.5,73.9,196.9,73.7,197.9z"/>
	
		<linearGradient id="SVGID_00000052076616283165056600000000596440757315138956_" gradientUnits="userSpaceOnUse" x1="30.6544" y1="184.4829" x2="98.8086" y2="184.4829">
		<stop  offset="0" style="stop-color:#00DCC4"/>
		<stop  offset="1" style="stop-color:#01AEF7"/>
	</linearGradient>
	<path style="fill:url(#SVGID_00000052076616283165056600000000596440757315138956_);" d="M98,155.7l-22.9-7.6
		c0.1-0.5,0.1-1,0.1-1.5c0-0.5-0.1-1-0.1-1.5l22.9-7.6c0.6-0.2,1-0.9,0.7-1.5c-0.2-0.6-0.9-1-1.5-0.7l-22.8,7.5
		c-1.5-3.4-4.8-5.8-8.8-5.8c-3.3,0-6.2,1.7-7.9,4.2L32,136.9c-0.3-0.1-0.7,0-1,0.3c-0.3,0.2-0.4,0.6-0.4,0.9V155
		c0,0.3,0.2,0.7,0.4,0.9c0.2,0.2,0.5,0.3,0.8,0.3c0.1,0,0.1,0,0.2,0l25.8-4.3c0.9,1.3,2.1,2.4,3.6,3.2c-7.8,1.9-13.6,8.9-13.6,17.2
		c0,0.1,0,0.1,0,0.2v52c0,5.1,4.2,9.3,9.3,9.3h16.8c5.1,0,9.3-4.2,9.3-9.3v-52.2c0,0,0,0,0,0c0-8.3-5.7-15.2-13.3-17.2
		c2-1,3.7-2.7,4.6-4.8l22.8,7.5c0.1,0,0.2,0.1,0.4,0.1c0.5,0,1-0.3,1.1-0.8C99,156.5,98.6,155.9,98,155.7z M33,153.6v-14.2l23.7,4
		c-0.3,1-0.5,2-0.5,3.1c0,1.1,0.2,2.1,0.5,3.1L33,153.6z M73.9,231.6H57.1c-3.9,0-7.1-3.2-7.1-7.1v-51h31v51
		C81,228.4,77.9,231.6,73.9,231.6z M80.8,171.1H50.3c0.6-7.9,7.2-14.1,15.3-14.1S80.2,163.2,80.8,171.1z M65.7,153.7
		c-3.9,0-7.1-3.2-7.1-7.1s3.2-7.1,7.1-7.1s7.1,3.2,7.1,7.1S69.7,153.7,65.7,153.7z"/>
</g>
<g>
	<path class="st4" d="M-281.9-64.6h-19.1c-5.2,0-9.3-4.2-9.3-9.3v-59.4h37.8V-74C-272.6-68.8-276.8-64.6-281.9-64.6z"/>
	<path class="st5" d="M-291.5-152.2c-10.4,0-18.8,8.4-18.8,18.8h37.6C-272.7-143.8-281.1-152.2-291.5-152.2z"/>
	<path class="st5" d="M-287.6-107.6c0,0,5.2-8.7-3.1-14.1c0.1,3.5-5.5,7.3-7.1,9c-1.6,1.7-3.7,5.5-3,9.3c0.8,4.2,4.3,7.4,9.8,7.4
		c5.5,0,9.2-3.5,10.1-8.1c0.4-2.2,0.3-5.4-0.7-7.6C-283.6-107.3-287.6-107.6-287.6-107.6z"/>
	<g>
		<circle class="st5" cx="-291.3" cy="-162.7" r="9.5"/>
		<polyline class="st6" points="-299.9,-158 -329.9,-153 -329.9,-172.3 -299.9,-167.3 		"/>
		<g>
			<line class="st6" x1="-255" y1="-151" x2="-281.2" y2="-159.7"/>
			<line class="st6" x1="-281.2" y1="-165.6" x2="-255" y2="-174.3"/>
		</g>
	</g>
</g>
<g>
	<g>
		
			<linearGradient id="SVGID_00000149379814256667632710000007657024982164816804_" gradientUnits="userSpaceOnUse" x1="-82.6848" y1="-115.4924" x2="-9.9203" y2="-115.4924">
			<stop  offset="0" style="stop-color:#00DCC4"/>
			<stop  offset="1" style="stop-color:#01AEF7"/>
		</linearGradient>
		<path style="fill:url(#SVGID_00000149379814256667632710000007657024982164816804_);" d="M-46.3-79.1c-20.1,0-36.4-16.3-36.4-36.4
			c0-20.1,16.3-36.4,36.4-36.4s36.4,16.3,36.4,36.4C-9.9-95.4-26.2-79.1-46.3-79.1z M-46.3-148.3c-18.1,0-32.8,14.7-32.8,32.8
			s14.7,32.8,32.8,32.8s32.8-14.7,32.8-32.8S-28.2-148.3-46.3-148.3z"/>
	</g>
	<g>
		
			<linearGradient id="SVGID_00000136409941670569986790000014030100326911736971_" gradientUnits="userSpaceOnUse" x1="-69.6214" y1="-121.5816" x2="-22.9837" y2="-121.5816">
			<stop  offset="0" style="stop-color:#00DCC4"/>
			<stop  offset="1" style="stop-color:#01AEF7"/>
		</linearGradient>
		<path style="fill:url(#SVGID_00000136409941670569986790000014030100326911736971_);" d="M-23-102.8h-46.6l23.3-37.7L-23-102.8z
			 M-63.2-106.3h33.7l-16.9-27.2L-63.2-106.3z"/>
	</g>
</g>
<linearGradient id="SVGID_00000065052818213359598950000006763638343293236879_" gradientUnits="userSpaceOnUse" x1="-232.5264" y1="41.8483" x2="-111.9137" y2="41.8483">
	<stop  offset="0" style="stop-color:#00DCC4"/>
	<stop  offset="1" style="stop-color:#01AEF7"/>
</linearGradient>
<path style="fill:none;stroke:url(#SVGID_00000065052818213359598950000006763638343293236879_);stroke-width:3;stroke-linecap:round;stroke-linejoin:round;stroke-miterlimit:10;" d="
	M-230.7,81.6h87.9c7.5,0,13.7-6.1,13.7-13.7V32.5c0-7.7,6.3-14,14-14h1.8c0,0-0.2-16.4-15.6-16.4s-14.9,15.3-14.9,15.3v29.8
	c0,10.9-8.8,19.7-19.7,19.7h-55.3c-6.8,0-12.4,5.7-12.1,12.5C-231,80.9-230.9,81.8-230.7,81.6z"/>
<linearGradient id="SVGID_00000010275737925499320250000009901833894829067907_" gradientUnits="userSpaceOnUse" x1="-232.9137" y1="30.85" x2="-142.4667" y2="30.85">
	<stop  offset="0" style="stop-color:#00DCC4"/>
	<stop  offset="1" style="stop-color:#01AEF7"/>
</linearGradient>
<path style="fill:none;stroke:url(#SVGID_00000010275737925499320250000009901833894829067907_);stroke-width:3;stroke-linecap:round;stroke-linejoin:round;stroke-miterlimit:10;" d="
	M-221.7,67c-6.1-7.6-9.8-17.3-9.8-27.8c0-24.5,19.9-44.4,44.4-44.4c20.7,0,38,14.1,43,33.2"/>
<linearGradient id="SVGID_00000148658120653870997910000000403637178060771487_" gradientUnits="userSpaceOnUse" x1="-217.8026" y1="32.0644" x2="-156.1359" y2="32.0644">
	<stop  offset="0" style="stop-color:#00DCC4"/>
	<stop  offset="1" style="stop-color:#01AEF7"/>
</linearGradient>
<path style="fill:none;stroke:url(#SVGID_00000148658120653870997910000000403637178060771487_);stroke-width:3;stroke-linecap:round;stroke-linejoin:round;stroke-miterlimit:10;" d="
	M-161.8,54.3c2.7-4.4,4.2-9.6,4.2-15.1c0-16.2-13.1-29.3-29.3-29.3c-16.2,0-29.3,13.1-29.3,29.3c0,5.5,1.5,10.7,4.2,15.1H-161.8z"/>
<linearGradient id="SVGID_00000093896474672298765740000005975605609580761736_" gradientUnits="userSpaceOnUse" x1="-199.2099" y1="33.4705" x2="-184.6544" y2="33.4705">
	<stop  offset="0" style="stop-color:#00DCC4"/>
	<stop  offset="1" style="stop-color:#01AEF7"/>
</linearGradient>
<line style="fill:none;stroke:url(#SVGID_00000093896474672298765740000005975605609580761736_);stroke-width:3;stroke-linecap:round;stroke-linejoin:round;stroke-miterlimit:10;" x1="-186.2" y1="39.2" x2="-197.7" y2="27.7"/>
<path class="st13" d="M-127.7,1.7c0,0-0.4-11.1,11.7-11.3"/>
<g>
	<g>
		
			<linearGradient id="SVGID_00000175318811368403873780000007917470926707026831_" gradientUnits="userSpaceOnUse" x1="-151.8287" y1="55.0394" x2="-25.5918" y2="55.0394">
			<stop  offset="0" style="stop-color:#00DCC4"/>
			<stop  offset="1" style="stop-color:#01AEF7"/>
		</linearGradient>
		<path style="fill:url(#SVGID_00000175318811368403873780000007917470926707026831_);" d="M-150.1,98.2c-0.2,0-0.4,0-0.5-0.1
			c-1.1-0.4-1.1-1.5-1.2-3.6c-0.1-3.9,1.3-7.5,4-10.3c2.7-2.8,6.3-4.3,10.2-4.3h57.9c10.6,0,19.2-8.6,19.2-19.2V29.4
			c0-0.3-0.2-7.8,4.8-12.9c3-3.1,7.1-4.6,12.3-4.6c17.3,0,17.8,18.5,17.8,18.7c0,0.4-0.2,0.8-0.4,1.1c-0.3,0.3-0.7,0.4-1.1,0.4H-29
			c-7.3,0-13.2,5.9-13.2,13.2v37.1c0,8.7-7.1,15.8-15.8,15.8h-92C-150,98.2-150,98.2-150.1,98.2z M-148.8,95.2h90.8
			c7.1,0,12.8-5.8,12.8-12.8V45.3c0-8.9,7.3-16.2,16.2-16.2h0.2c-0.5-4-2.8-14.2-14.7-14.2c-4.3,0-7.7,1.2-10.1,3.7
			c-4.1,4.2-4,10.8-4,10.8l0,31.3c0,12.2-10,22.2-22.2,22.2h-57.9c-3.1,0-5.9,1.2-8.1,3.4c-2.1,2.2-3.2,5.1-3.1,8.1
			C-148.8,94.7-148.8,95-148.8,95.2z"/>
	</g>
	<g>
		
			<linearGradient id="SVGID_00000172421821549127574500000011404403035867300507_" gradientUnits="userSpaceOnUse" x1="-152.2345" y1="43.5177" x2="-57.6061" y2="43.5177">
			<stop  offset="0" style="stop-color:#00DCC4"/>
			<stop  offset="1" style="stop-color:#01AEF7"/>
		</linearGradient>
		<path style="fill:url(#SVGID_00000172421821549127574500000011404403035867300507_);" d="M-140.5,82.9c-0.4,0-0.9-0.2-1.2-0.6
			c-6.8-8.5-10.6-19.2-10.6-30.1c0-26.5,21.6-48.1,48.1-48.1c21.9,0,41,14.8,46.5,35.9c0.2,0.8-0.3,1.6-1.1,1.8
			c-0.8,0.2-1.6-0.3-1.8-1.1C-65.7,21-83.7,7.2-104.2,7.2c-24.9,0-45.1,20.2-45.1,45.1c0,10.4,3.4,20.1,9.9,28.2
			c0.5,0.6,0.4,1.6-0.2,2.1C-139.8,82.8-140.2,82.9-140.5,82.9z"/>
	</g>
	<g>
		
			<linearGradient id="SVGID_00000006697720408352301160000008990955196558551996_" gradientUnits="userSpaceOnUse" x1="-136.401" y1="44.7904" x2="-71.9288" y2="44.7904">
			<stop  offset="0" style="stop-color:#00DCC4"/>
			<stop  offset="1" style="stop-color:#01AEF7"/>
		</linearGradient>
		<path style="fill:url(#SVGID_00000006697720408352301160000008990955196558551996_);" d="M-77.8,69.6h-52.7c-0.5,0-1-0.3-1.3-0.7
			c-3-5-4.6-10.7-4.6-16.6c0-17.8,14.5-32.2,32.2-32.2c17.8,0,32.2,14.5,32.2,32.2c0,5.9-1.6,11.6-4.6,16.6
			C-76.8,69.3-77.3,69.6-77.8,69.6z M-129.6,66.6h51c2.5-4.4,3.8-9.3,3.8-14.3C-74.9,36.1-88,23-104.2,23
			c-16.1,0-29.2,13.1-29.2,29.2C-133.4,57.3-132.1,62.2-129.6,66.6z"/>
	</g>
	<g>
		
			<linearGradient id="SVGID_00000000186493435779174620000012820135332284665012_" gradientUnits="userSpaceOnUse" x1="-116.9191" y1="46.2638" x2="-101.8112" y2="46.2638">
			<stop  offset="0" style="stop-color:#00DCC4"/>
			<stop  offset="1" style="stop-color:#01AEF7"/>
		</linearGradient>
		<path style="fill:url(#SVGID_00000000186493435779174620000012820135332284665012_);" d="M-103.3,53.8c-0.4,0-0.8-0.1-1.1-0.4
			l-12.1-12.1c-0.6-0.6-0.6-1.5,0-2.1c0.6-0.6,1.5-0.6,2.1,0l12.1,12.1c0.6,0.6,0.6,1.5,0,2.1C-102.5,53.7-102.9,53.8-103.3,53.8z"
			/>
	</g>
	<g>
		<path class="st18" d="M-42.1,14.5c-0.8,0-1.5-0.6-1.5-1.4c0-0.2-0.2-5.6,3.5-9.5c2.4-2.5,5.8-3.9,10.2-4c0,0,0,0,0,0
			c0.8,0,1.5,0.7,1.5,1.5c0,0.8-0.6,1.5-1.5,1.5c-3.5,0.1-6.2,1.1-8,3c-2.8,3-2.7,7.3-2.7,7.3C-40.6,13.8-41.2,14.5-42.1,14.5
			C-42.1,14.5-42.1,14.5-42.1,14.5z"/>
	</g>
</g>
<image style="overflow:visible;" width="225" height="225" xlink:href="5CFAF2BD.jpg"  transform="matrix(0.4472 0 0 0.4472 -318.284 115.7668)">
</image>
<linearGradient id="SVGID_00000034051746258283270330000000642601995285813139_" gradientUnits="userSpaceOnUse" x1="-200.8581" y1="146.1743" x2="-161.747" y2="146.1743">
	<stop  offset="0" style="stop-color:#00DCC4"/>
	<stop  offset="1" style="stop-color:#01AEF7"/>
</linearGradient>
<path style="fill:none;stroke:url(#SVGID_00000034051746258283270330000000642601995285813139_);stroke-width:2;stroke-linecap:round;stroke-linejoin:round;stroke-miterlimit:10;" d="
	M-162.7,177h-29.9c-4,0-7.2-3.2-7.2-7.2v0c0-4,3.3-7.3,7.3-7.3h6.3v-33.4v-13.7h-7.2c-3.5,0-6.4,2.8-6.4,6.4v47.5"/>
<linearGradient id="SVGID_00000150816349952523977900000005882536981610938753_" gradientUnits="userSpaceOnUse" x1="-172.784" y1="165.4104" x2="-127.0803" y2="165.4104">
	<stop  offset="0" style="stop-color:#00DCC4"/>
	<stop  offset="1" style="stop-color:#01AEF7"/>
</linearGradient>
<polygon style="fill:none;stroke:url(#SVGID_00000150816349952523977900000005882536981610938753_);stroke-width:2;stroke-linecap:round;stroke-linejoin:round;stroke-miterlimit:10;" points="
	-128.1,143.4 -171.8,187.4 -128.1,187.4 "/>
<linearGradient id="SVGID_00000107574453328391456120000002354921423924433033_" gradientUnits="userSpaceOnUse" x1="-154.4798" y1="170.9659" x2="-134.3413" y2="170.9659">
	<stop  offset="0" style="stop-color:#00DCC4"/>
	<stop  offset="1" style="stop-color:#01AEF7"/>
</linearGradient>
<polygon style="fill:none;stroke:url(#SVGID_00000107574453328391456120000002354921423924433033_);stroke-width:2;stroke-linecap:round;stroke-linejoin:round;stroke-miterlimit:10;" points="
	-135.3,161.8 -153.5,180.1 -135.3,180.1 "/>
<g>
	<path d="M-154.7,156.6c-2.1,0-4.2-0.4-6.2-1.1s-3.6-1.8-4.9-3.4c-1.3-1.6-2-3.6-2.1-6l2.6-0.2c0,0.1,0,0.4,0.1,1
		c0.1,0.6,0.2,1.3,0.6,2.1c0.3,0.8,0.9,1.6,1.6,2.4c0.8,0.8,1.8,1.5,3.2,2c1.4,0.5,3.1,0.8,5.3,0.8c2,0,3.5-0.2,4.7-0.7
		c1.2-0.5,2.1-1.1,2.7-1.8c0.6-0.7,1-1.4,1.2-2c0.2-0.7,0.3-1.1,0.3-1.4c0-1.5-0.3-2.7-1.1-3.5s-1.7-1.6-3-2.2
		c-1.3-0.5-2.7-1-4.2-1.4c-1.5-0.4-3-0.8-4.5-1.2c-1.5-0.4-2.9-1-4.2-1.6c-1.3-0.7-2.3-1.6-3-2.7c-0.7-1.1-1.1-2.6-1-4.3
		c0.1-1.7,0.6-3.1,1.7-4.3c1.1-1.2,2.5-2.1,4.3-2.8c1.8-0.6,3.7-1,5.9-1c2.1,0,4.1,0.4,5.8,1.2c1.7,0.8,3.1,1.9,4.1,3.4
		c1,1.5,1.5,3.4,1.5,5.7l-2.6,0.2c0.1-1.7-0.2-3-0.9-4.1c-0.7-1-1.5-1.8-2.5-2.4c-1-0.6-2-1-3.1-1.2c-1.1-0.2-2-0.3-2.7-0.3
		c-2.5,0-4.6,0.5-6.2,1.6c-1.7,1.1-2.5,2.5-2.6,4.1c0,1.4,0.3,2.6,1.1,3.5c0.8,0.9,1.8,1.6,3,2.1c1.2,0.5,2.6,1,4.1,1.3
		c1.5,0.4,3,0.8,4.5,1.2c1.5,0.4,2.9,1,4.1,1.6c1.2,0.7,2.2,1.6,3,2.7c0.7,1.2,1.1,2.6,1,4.5c0,1.7-0.6,3.2-1.7,4.4
		c-1.1,1.2-2.5,2.1-4.2,2.8C-150.8,156.3-152.7,156.6-154.7,156.6z M-155.8,124l-0.1-6.4h2.6l-0.1,6.4H-155.8z M-155.9,162.1
		l0.1-6.3h2.3l0.1,6.3H-155.9z"/>
</g>
<linearGradient id="SVGID_00000013171501303336013970000001403248554883014564_" gradientUnits="userSpaceOnUse" x1="-187.1544" y1="141.2483" x2="-136.4877" y2="141.2483">
	<stop  offset="0" style="stop-color:#00DCC4"/>
	<stop  offset="1" style="stop-color:#01AEF7"/>
</linearGradient>
<polyline style="fill:none;stroke:url(#SVGID_00000013171501303336013970000001403248554883014564_);stroke-width:2;stroke-linecap:round;stroke-linejoin:round;stroke-miterlimit:10;" points="
	-186.2,129.8 -137.5,129.8 -137.5,152.7 "/>
<g>
	
		<linearGradient id="SVGID_00000100366078314580941190000006683891125287811477_" gradientUnits="userSpaceOnUse" x1="31.3828" y1="-86.6037" x2="129.3481" y2="-86.6037">
		<stop  offset="0" style="stop-color:#00DCC4"/>
		<stop  offset="1" style="stop-color:#01AEF7"/>
	</linearGradient>
	<path style="fill:url(#SVGID_00000100366078314580941190000006683891125287811477_);" d="M128.4-98.5c-0.6-0.2-1.2-0.1-1.6,0.3
		l-9.9,9.9v-27c0-0.8-0.7-1.5-1.5-1.5H98.9c-0.4-1-0.8-1.9-1.4-2.7c-1.6-2.4-3.8-4.1-6.5-5.4c-2.1-1-4.5-1.5-7-1.7l0.2-9h-4l0.2,9
		c-2.8,0.1-5.4,0.6-7.8,1.5c-2.8,1-5,2.5-6.7,4.3c-1.1,1.2-1.8,2.5-2.2,4H52.3v-17.5c0-0.8-0.7-1.5-1.5-1.5h-9.5
		c-5.5,0-9.9,4.4-9.9,9.9V-63c0,0.2,0,0.5,0,0.7c0,6.1,4.9,11,11,11h37.8L69-40c-0.4,0.4-0.6,1.1-0.3,1.6c0.2,0.6,0.8,0.9,1.4,0.9
		h57.8c0.8,0,1.5-0.7,1.5-1.5v-58.2C129.3-97.8,129-98.3,128.4-98.5z M34.4-125.8c0-3.8,3.1-6.9,6.9-6.9h8v59.3h-6.8
		c-3.2,0-6.1,1.3-8.1,3.5V-125.8z M82-54.3H42.4c-4.4,0-8-3.6-8-8c0-0.2,0-0.3,0-0.5c0,0,0-0.1,0-0.1c0.3-4.2,3.8-7.5,8.1-7.5h8.3
		c0.8,0,1.5-0.7,1.5-1.5v-41.8h10.9c0,2.7,0.5,4.9,1.6,6.6c1.1,1.8,2.7,3.2,4.7,4.2c2,1,4.2,1.9,6.6,2.6c2.4,0.7,4.8,1.3,7.2,1.9
		c2.4,0.6,4.6,1.3,6.6,2.2c2,0.9,3.6,2,4.7,3.4c1.2,1.4,1.7,3.3,1.7,5.6c0,0.5-0.2,1.2-0.5,2.3c-0.3,1-1,2.1-1.9,3.2
		c-1,1.1-2.4,2-4.2,2.8c-1.8,0.8-4.3,1.2-7.4,1.2c-3.4,0-6.2-0.4-8.3-1.3c-2.1-0.8-3.8-1.9-5-3.1c-1.2-1.3-2-2.5-2.6-3.8
		c-0.5-1.3-0.8-2.4-0.9-3.4c-0.1-0.9-0.1-1.4-0.1-1.6l-4,0.4c0.2,3.9,1.3,7,3.3,9.5c2,2.4,4.6,4.2,7.7,5.3c2.6,0.9,5.3,1.4,8.1,1.6
		l-0.2,8.7h4l-0.2-8.8c2.5-0.2,4.8-0.6,6.9-1.4c2.7-1,4.9-2.5,6.7-4.4c1.7-1.9,2.6-4.2,2.7-7c0.1-2.9-0.5-5.2-1.6-7
		c-1.1-1.8-2.7-3.3-4.7-4.3c-2-1-4.1-1.9-6.5-2.6c-2.4-0.7-4.8-1.3-7.2-1.9c-2.4-0.6-4.6-1.3-6.5-2.1c-2-0.8-3.6-1.9-4.7-3.3
		c-1.2-1.4-1.8-3.2-1.7-5.5c0.1-2.6,1.5-4.8,4.1-6.5c2.6-1.7,5.9-2.6,9.8-2.6c1.2,0,2.6,0.2,4.3,0.5c1.7,0.4,3.3,1,4.9,1.9
		c1.6,0.9,2.9,2.2,3.9,3.8c1,1.6,1.5,3.8,1.4,6.4l4-0.3c0-1.1-0.1-2.2-0.2-3.2h14.2v28.5L82.9-54C82.6-54.2,82.3-54.3,82-54.3z
		 M126.3-40.5H73.6l52.7-53V-40.5z"/>
	
		<linearGradient id="SVGID_00000135665459032445802070000005927335196756171197_" gradientUnits="userSpaceOnUse" x1="92.7438" y1="-60.7121" x2="119.7417" y2="-60.7121">
		<stop  offset="0" style="stop-color:#00DCC4"/>
		<stop  offset="1" style="stop-color:#01AEF7"/>
	</linearGradient>
	<path style="fill:url(#SVGID_00000135665459032445802070000005927335196756171197_);" d="M92.9-48.1c0.2,0.6,0.8,0.9,1.4,0.9h24
		c0.8,0,1.5-0.7,1.5-1.5v-24.1c0-0.6-0.4-1.2-0.9-1.4c-0.6-0.2-1.2-0.1-1.6,0.3l-24,24.1C92.8-49.3,92.6-48.6,92.9-48.1z
		 M116.7-69.1v19H97.8L116.7-69.1z"/>
</g>
</svg>
