<?xml version="1.0" encoding="utf-8"?>
<!-- Generator: Adobe Illustrator 27.5.0, SVG Export Plug-In . SVG Version: 6.00 Build 0)  -->
<svg version="1.1" id="Layer_1" xmlns="http://www.w3.org/2000/svg" xmlns:xlink="http://www.w3.org/1999/xlink" x="0px" y="0px"
	 viewBox="0 0 99.9 100" style="enable-background:new 0 0 99.9 100;" xml:space="preserve">
<style type="text/css">
	.st0{fill:#02BBF8;}
	.st1{fill:none;stroke:#02BBF8;stroke-width:5;stroke-linecap:round;stroke-linejoin:round;stroke-miterlimit:10;}
	.st2{fill:url(#SVGID_1_);}
	.st3{fill:url(#SVGID_00000096745999348934877310000009240833599649895357_);}
	.st4{fill:none;stroke:#02BBF8;stroke-width:2.5041;stroke-linecap:round;stroke-linejoin:round;stroke-miterlimit:10;}
	.st5{fill:none;stroke:#02BBF8;stroke-width:2.7646;stroke-linecap:round;stroke-linejoin:round;stroke-miterlimit:10;}
	.st6{fill:none;stroke:#02BBF8;stroke-width:2.6868;stroke-linecap:round;stroke-linejoin:round;stroke-miterlimit:10;}
	.st7{fill:url(#SVGID_00000158727850598641666950000006471125861988536501_);}
	.st8{fill:url(#SVGID_00000047020495582443329990000013260636540268150686_);}
	
		.st9{fill:none;stroke:url(#SVGID_00000026157323229791464650000008639804916882227102_);stroke-width:3;stroke-linecap:round;stroke-linejoin:round;stroke-miterlimit:10;}
	
		.st10{fill:none;stroke:url(#SVGID_00000085944891900342370580000006968048227158783874_);stroke-width:3;stroke-linecap:round;stroke-linejoin:round;stroke-miterlimit:10;}
	
		.st11{fill:none;stroke:url(#SVGID_00000129182059109123209140000005574892960467800228_);stroke-width:3;stroke-linecap:round;stroke-linejoin:round;stroke-miterlimit:10;}
	
		.st12{fill:none;stroke:url(#SVGID_00000017514093188695660770000007042849451101099946_);stroke-width:3;stroke-linecap:round;stroke-linejoin:round;stroke-miterlimit:10;}
	.st13{fill:none;stroke:#01AEF7;stroke-width:3;stroke-linecap:round;stroke-linejoin:round;stroke-miterlimit:10;}
	.st14{fill:url(#SVGID_00000170989926993561023290000005023245620311621818_);}
	.st15{fill:url(#SVGID_00000165944990649516136550000002400054047397887911_);}
	.st16{fill:url(#SVGID_00000019637113601826475430000018032863373282159527_);}
	
		.st17{fill:none;stroke:url(#SVGID_00000065069884223136339380000017567577430914464398_);stroke-width:2;stroke-linecap:round;stroke-linejoin:round;stroke-miterlimit:10;}
	
		.st18{fill:none;stroke:url(#SVGID_00000178909729796404004190000003804104972144513686_);stroke-width:2;stroke-linecap:round;stroke-linejoin:round;stroke-miterlimit:10;}
	
		.st19{fill:none;stroke:url(#SVGID_00000093141664622542574150000015574946162382537124_);stroke-width:2;stroke-linecap:round;stroke-linejoin:round;stroke-miterlimit:10;}
	
		.st20{fill:none;stroke:url(#SVGID_00000005957147369571529560000000882994421125563282_);stroke-width:2;stroke-linecap:round;stroke-linejoin:round;stroke-miterlimit:10;}
	.st21{fill:url(#SVGID_00000019645367668060350580000007628637248047126176_);}
	.st22{fill:url(#SVGID_00000136410497526152367270000010160772111554548125_);}
	.st23{fill:url(#SVGID_00000027603809675280756090000006505978621521126021_);}
	.st24{fill:url(#SVGID_00000093899116826404778200000014848934991919193739_);}
	.st25{fill:none;stroke:#02BBF8;stroke-width:3.1188;stroke-linecap:round;stroke-linejoin:round;stroke-miterlimit:10;}
	.st26{fill:url(#SVGID_00000170966269828973436240000015789343613571007373_);}
	.st27{fill:url(#SVGID_00000029043926045063695790000011696640651023950995_);}
	.st28{fill:url(#SVGID_00000104707111856775802040000016312868008367477911_);}
	.st29{fill:url(#SVGID_00000132795310321410976610000004381117239278029218_);}
	.st30{fill:url(#SVGID_00000134223193428494912910000001275362481920112289_);}
	.st31{fill:url(#SVGID_00000179636372140659549860000003098649071925531023_);}
	.st32{fill:url(#SVGID_00000165929651064705422480000014123949630333919374_);}
	
		.st33{fill:none;stroke:url(#SVGID_00000000222755959779986710000000686968819822080425_);stroke-width:2.9411;stroke-miterlimit:10;}
	
		.st34{fill:none;stroke:url(#SVGID_00000153663594038398773740000016079891224577065351_);stroke-width:2.9411;stroke-miterlimit:10;}
	
		.st35{fill:none;stroke:url(#SVGID_00000165207865379319889410000013657346940930317233_);stroke-width:2.9411;stroke-miterlimit:10;}
	
		.st36{fill:none;stroke:url(#SVGID_00000150810619771135949960000003592893095857715606_);stroke-width:2.9411;stroke-linecap:round;stroke-linejoin:round;stroke-miterlimit:10;}
	
		.st37{fill:none;stroke:url(#SVGID_00000059307171965322473080000005728788604611495334_);stroke-width:2.9411;stroke-linecap:round;stroke-linejoin:round;stroke-miterlimit:10;}
	
		.st38{fill:none;stroke:url(#SVGID_00000132772304360585796280000014132904257284417157_);stroke-width:2.9411;stroke-linecap:round;stroke-linejoin:round;stroke-miterlimit:10;}
	
		.st39{fill:none;stroke:url(#SVGID_00000077295186257247179490000011839464465213164477_);stroke-width:2.9411;stroke-linecap:round;stroke-linejoin:round;stroke-miterlimit:10;}
	.st40{fill:none;stroke:url(#SVGID_00000075147850466744510650000001589657057866591114_);stroke-width:3;stroke-miterlimit:10;}
	.st41{fill:none;stroke:url(#SVGID_00000065761732954817227850000010025059442262774692_);stroke-width:3;stroke-miterlimit:10;}
	.st42{fill:none;stroke:url(#SVGID_00000042697766868148413960000004004055104987508159_);stroke-width:3;stroke-miterlimit:10;}
	.st43{fill:none;stroke:url(#SVGID_00000044157729090749034510000008985093455442291348_);stroke-width:3;stroke-miterlimit:10;}
	.st44{fill:none;stroke:url(#SVGID_00000093165283487793255830000012817999325630148502_);stroke-width:3;stroke-miterlimit:10;}
	.st45{fill:url(#SVGID_00000065776575434752789330000001070431110762502825_);}
	.st46{fill:url(#SVGID_00000007402190229720219770000016970477381123925656_);}
	.st47{fill:url(#SVGID_00000031887760270437713770000007510969259175803822_);}
	.st48{fill:url(#SVGID_00000144312551487900985670000004615948771654236337_);}
	.st49{fill:url(#SVGID_00000103235202350206306510000009819072677653510079_);}
	.st50{fill:url(#SVGID_00000057858803452282627600000008092783922923441343_);}
	.st51{fill:url(#SVGID_00000152959788575523241850000002286278950775453063_);}
	
		.st52{fill:none;stroke:url(#SVGID_00000113342635395699230250000008463291395652664712_);stroke-width:3;stroke-linecap:round;stroke-linejoin:round;stroke-miterlimit:10;}
	
		.st53{fill:none;stroke:url(#SVGID_00000003089213007593247020000006347638483930903459_);stroke-width:3;stroke-linecap:round;stroke-linejoin:round;stroke-miterlimit:10;}
	
		.st54{fill:none;stroke:url(#SVGID_00000072260665226820971770000008241196416412886189_);stroke-width:3;stroke-linecap:round;stroke-linejoin:round;stroke-miterlimit:10;}
	
		.st55{fill:none;stroke:url(#SVGID_00000011726770130021760590000007491086962982946490_);stroke-width:3;stroke-linecap:round;stroke-linejoin:round;stroke-miterlimit:10;}
	
		.st56{fill:none;stroke:url(#SVGID_00000047744716089935306310000007193817898632593036_);stroke-width:3;stroke-linecap:round;stroke-linejoin:round;stroke-miterlimit:10;}
	
		.st57{fill:none;stroke:url(#SVGID_00000011000300898843680490000006502619476714052488_);stroke-width:2.8668;stroke-linecap:round;stroke-linejoin:round;stroke-miterlimit:10;}
	
		.st58{fill:none;stroke:url(#SVGID_00000165232977898741027090000005961135805145191603_);stroke-width:2.8668;stroke-linecap:round;stroke-linejoin:round;stroke-miterlimit:10;}
	
		.st59{fill:none;stroke:url(#SVGID_00000173141635080646521080000004559103086582683050_);stroke-width:2.8668;stroke-linecap:round;stroke-linejoin:round;stroke-miterlimit:10;}
</style>
<g>
	<path class="st0" d="M-42.4,163.5c24.8,0,45,20.2,45,45c0,24.8-20.2,45-45,45s-45-20.2-45-45C-87.4,183.7-67.2,163.5-42.4,163.5
		 M-42.4,158.5c-27.6,0-50,22.4-50,50c0,27.6,22.4,50,50,50c27.6,0,50-22.4,50-50C7.6,180.9-14.8,158.5-42.4,158.5L-42.4,158.5z"/>
</g>
<g>
	<path class="st0" d="M218.5,5c24.8,0,45,20.2,45,45s-20.2,45-45,45s-45-20.2-45-45S193.7,5,218.5,5 M218.5,0c-27.6,0-50,22.4-50,50
		s22.4,50,50,50c27.6,0,50-22.4,50-50S246.1,0,218.5,0L218.5,0z"/>
</g>
<g>
	<line class="st1" x1="-42.4" y1="229.5" x2="-42.4" y2="177.7"/>
	<polyline class="st1" points="-60.2,195.5 -42.4,177.7 -24.6,195.5 	"/>
</g>
<polyline class="st1" points="244.1,33.3 210.8,66.7 192.9,48.8 "/>
<image style="overflow:visible;" width="250" height="253" xlink:href="160FAE89.jpg"  transform="matrix(1 0 0 1 -534.784 -33.0295)">
</image>
<g>
	<linearGradient id="SVGID_1_" gradientUnits="userSpaceOnUse" x1="65.4357" y1="193.8892" x2="85.7105" y2="193.8892">
		<stop  offset="0" style="stop-color:#00DCC4"/>
		<stop  offset="1" style="stop-color:#01AEF7"/>
	</linearGradient>
	<path class="st2" d="M83.8,190.2c-0.5,0-0.9,0.2-1.1,0.7c-0.6,1.3-1.5,2-2.2,2.4c1.1-3.4,1-8.3-4.1-11.7c-0.4-0.2-0.9-0.3-1.3,0
		c-0.4,0.2-0.6,0.6-0.6,1.1c0,1.8-2.9,4.4-4.5,5.8c-0.5,0.5-1,0.9-1.4,1.2c-1.4,1.4-3.7,5.1-2.9,9.3c0.8,4.5,4.7,7.5,9.8,7.5
		c5.1,0,9.1-3.2,10.1-8.1c0.3-2,0.3-5.1-0.7-7.3C84.7,190.5,84.2,190.2,83.8,190.2z M83.1,197.9c-0.7,3.7-3.7,6.1-7.7,6.1
		c-4,0-6.8-2.1-7.4-5.5c-0.6-2.9,1.1-5.9,2.3-7.1c0.3-0.3,0.7-0.7,1.2-1.1c1.6-1.4,3.9-3.4,4.9-5.6c4.1,4,1.1,9.4,0.9,9.7
		c-0.2,0.4-0.2,0.8,0,1.2c0.2,0.4,0.6,0.6,1,0.6c0.1,0,2.7,0.2,4.9-1.9C83.3,195.5,83.3,196.9,83.1,197.9z"/>
	
		<linearGradient id="SVGID_00000167386197233445556870000015733828640811571382_" gradientUnits="userSpaceOnUse" x1="40.0618" y1="184.4829" x2="108.216" y2="184.4829">
		<stop  offset="0" style="stop-color:#00DCC4"/>
		<stop  offset="1" style="stop-color:#01AEF7"/>
	</linearGradient>
	<path style="fill:url(#SVGID_00000167386197233445556870000015733828640811571382_);" d="M107.4,155.7l-22.9-7.6
		c0.1-0.5,0.1-1,0.1-1.5c0-0.5-0.1-1-0.1-1.5l22.9-7.6c0.6-0.2,1-0.9,0.7-1.5c-0.2-0.6-0.9-1-1.5-0.7l-22.8,7.5
		c-1.5-3.4-4.8-5.8-8.8-5.8c-3.3,0-6.2,1.7-7.9,4.2l-25.8-4.3c-0.3-0.1-0.7,0-1,0.3c-0.3,0.2-0.4,0.6-0.4,0.9V155
		c0,0.3,0.2,0.7,0.4,0.9c0.2,0.2,0.5,0.3,0.8,0.3c0.1,0,0.1,0,0.2,0l25.8-4.3c0.9,1.3,2.1,2.4,3.6,3.2c-7.8,1.9-13.6,8.9-13.6,17.2
		c0,0.1,0,0.1,0,0.2v52c0,5.1,4.2,9.3,9.3,9.3h16.8c5.1,0,9.3-4.2,9.3-9.3v-52.2c0,0,0,0,0,0c0-8.3-5.7-15.2-13.3-17.2
		c2-1,3.7-2.7,4.6-4.8l22.8,7.5c0.1,0,0.2,0.1,0.4,0.1c0.5,0,1-0.3,1.1-0.8C108.4,156.5,108,155.9,107.4,155.7z M42.4,153.6v-14.2
		l23.7,4c-0.3,1-0.5,2-0.5,3.1c0,1.1,0.2,2.1,0.5,3.1L42.4,153.6z M83.3,231.6H66.5c-3.9,0-7.1-3.2-7.1-7.1v-51h31v51
		C90.5,228.4,87.3,231.6,83.3,231.6z M90.2,171.1H59.7c0.6-7.9,7.2-14.1,15.3-14.1S89.6,163.2,90.2,171.1z M75.1,153.7
		c-3.9,0-7.1-3.2-7.1-7.1s3.2-7.1,7.1-7.1c3.9,0,7.1,3.2,7.1,7.1S79.1,153.7,75.1,153.7z"/>
</g>
<g>
	<path class="st4" d="M-272.5-64.6h-19.1c-5.2,0-9.3-4.2-9.3-9.3v-59.4h37.8V-74C-263.2-68.8-267.4-64.6-272.5-64.6z"/>
	<path class="st5" d="M-282.1-152.2c-10.4,0-18.8,8.4-18.8,18.8h37.6C-263.3-143.8-271.7-152.2-282.1-152.2z"/>
	<path class="st5" d="M-278.2-107.6c0,0,5.2-8.7-3.1-14.1c0.1,3.5-5.5,7.3-7.1,9c-1.6,1.7-3.7,5.5-3,9.3c0.8,4.2,4.3,7.4,9.8,7.4
		c5.5,0,9.2-3.5,10.1-8.1c0.4-2.2,0.3-5.4-0.7-7.6C-274.2-107.3-278.2-107.6-278.2-107.6z"/>
	<g>
		<circle class="st5" cx="-281.9" cy="-162.7" r="9.5"/>
		<polyline class="st6" points="-290.5,-158 -320.5,-153 -320.5,-172.3 -290.5,-167.3 		"/>
		<g>
			<line class="st6" x1="-245.6" y1="-151" x2="-271.8" y2="-159.7"/>
			<line class="st6" x1="-271.8" y1="-165.6" x2="-245.6" y2="-174.3"/>
		</g>
	</g>
</g>
<g>
	<g>
		
			<linearGradient id="SVGID_00000099632093281402087620000004706337733166146737_" gradientUnits="userSpaceOnUse" x1="-73.2774" y1="-115.4924" x2="-0.5129" y2="-115.4924">
			<stop  offset="0" style="stop-color:#00DCC4"/>
			<stop  offset="1" style="stop-color:#01AEF7"/>
		</linearGradient>
		<path style="fill:url(#SVGID_00000099632093281402087620000004706337733166146737_);" d="M-36.9-79.1c-20.1,0-36.4-16.3-36.4-36.4
			c0-20.1,16.3-36.4,36.4-36.4s36.4,16.3,36.4,36.4C-0.5-95.4-16.8-79.1-36.9-79.1z M-36.9-148.3c-18.1,0-32.8,14.7-32.8,32.8
			S-55-82.7-36.9-82.7s32.8-14.7,32.8-32.8S-18.8-148.3-36.9-148.3z"/>
	</g>
	<g>
		
			<linearGradient id="SVGID_00000114063094321561093080000006607440123612006574_" gradientUnits="userSpaceOnUse" x1="-60.214" y1="-121.5816" x2="-13.5763" y2="-121.5816">
			<stop  offset="0" style="stop-color:#00DCC4"/>
			<stop  offset="1" style="stop-color:#01AEF7"/>
		</linearGradient>
		<path style="fill:url(#SVGID_00000114063094321561093080000006607440123612006574_);" d="M-13.6-102.8h-46.6l23.3-37.7
			L-13.6-102.8z M-53.8-106.3H-20l-16.9-27.2L-53.8-106.3z"/>
	</g>
</g>
<linearGradient id="SVGID_00000010294319471026647930000005200727484521565118_" gradientUnits="userSpaceOnUse" x1="-223.119" y1="41.8483" x2="-102.5062" y2="41.8483">
	<stop  offset="0" style="stop-color:#00DCC4"/>
	<stop  offset="1" style="stop-color:#01AEF7"/>
</linearGradient>
<path style="fill:none;stroke:url(#SVGID_00000010294319471026647930000005200727484521565118_);stroke-width:3;stroke-linecap:round;stroke-linejoin:round;stroke-miterlimit:10;" d="
	M-221.3,81.6h87.9c7.5,0,13.7-6.1,13.7-13.7V32.5c0-7.7,6.3-14,14-14h1.8c0,0-0.2-16.4-15.6-16.4s-14.9,15.3-14.9,15.3v29.8
	c0,10.9-8.8,19.7-19.7,19.7h-55.3c-6.8,0-12.4,5.7-12.1,12.5C-221.6,80.9-221.5,81.8-221.3,81.6z"/>
<linearGradient id="SVGID_00000108268962902752333860000006645815921615702926_" gradientUnits="userSpaceOnUse" x1="-223.5062" y1="30.85" x2="-133.0593" y2="30.85">
	<stop  offset="0" style="stop-color:#00DCC4"/>
	<stop  offset="1" style="stop-color:#01AEF7"/>
</linearGradient>
<path style="fill:none;stroke:url(#SVGID_00000108268962902752333860000006645815921615702926_);stroke-width:3;stroke-linecap:round;stroke-linejoin:round;stroke-miterlimit:10;" d="
	M-212.2,67c-6.1-7.6-9.8-17.3-9.8-27.8c0-24.5,19.9-44.4,44.4-44.4c20.7,0,38,14.1,43,33.2"/>
<linearGradient id="SVGID_00000003105080290279216680000005052274320537429128_" gradientUnits="userSpaceOnUse" x1="-208.3951" y1="32.0644" x2="-146.7285" y2="32.0644">
	<stop  offset="0" style="stop-color:#00DCC4"/>
	<stop  offset="1" style="stop-color:#01AEF7"/>
</linearGradient>
<path style="fill:none;stroke:url(#SVGID_00000003105080290279216680000005052274320537429128_);stroke-width:3;stroke-linecap:round;stroke-linejoin:round;stroke-miterlimit:10;" d="
	M-152.4,54.3c2.7-4.4,4.2-9.6,4.2-15.1c0-16.2-13.1-29.3-29.3-29.3c-16.2,0-29.3,13.1-29.3,29.3c0,5.5,1.5,10.7,4.2,15.1H-152.4z"/>
<linearGradient id="SVGID_00000140701937699526811320000017622902581314178747_" gradientUnits="userSpaceOnUse" x1="-189.8025" y1="33.4705" x2="-175.247" y2="33.4705">
	<stop  offset="0" style="stop-color:#00DCC4"/>
	<stop  offset="1" style="stop-color:#01AEF7"/>
</linearGradient>
<line style="fill:none;stroke:url(#SVGID_00000140701937699526811320000017622902581314178747_);stroke-width:3;stroke-linecap:round;stroke-linejoin:round;stroke-miterlimit:10;" x1="-176.7" y1="39.2" x2="-188.3" y2="27.7"/>
<path class="st13" d="M-118.3,1.7c0,0-0.4-11.1,11.7-11.3"/>
<g>
	
		<linearGradient id="SVGID_00000072265319815720217440000014869372448470456252_" gradientUnits="userSpaceOnUse" x1="-197.2656" y1="-85.6925" x2="-132.7935" y2="-85.6925">
		<stop  offset="0" style="stop-color:#00DCC4"/>
		<stop  offset="1" style="stop-color:#01AEF7"/>
	</linearGradient>
	<path style="fill:url(#SVGID_00000072265319815720217440000014869372448470456252_);" d="M-138.7-60.9h-52.7c-0.5,0-1-0.3-1.3-0.7
		c-3-5-4.6-10.7-4.6-16.6c0-17.8,14.5-32.2,32.2-32.2c17.8,0,32.2,14.5,32.2,32.2c0,5.9-1.6,11.6-4.6,16.6
		C-137.7-61.2-138.2-60.9-138.7-60.9z M-190.5-63.9h51c2.5-4.4,3.8-9.3,3.8-14.3c0-16.1-13.1-29.2-29.2-29.2
		c-16.1,0-29.2,13.1-29.2,29.2C-194.3-73.2-193-68.3-190.5-63.9z"/>
</g>
<linearGradient id="SVGID_00000111914202795806172150000002639164848980907711_" gradientUnits="userSpaceOnUse" x1="-175.4305" y1="-86.3626" x2="-146.0925" y2="-86.3626">
	<stop  offset="0" style="stop-color:#00DCC4"/>
	<stop  offset="1" style="stop-color:#01AEF7"/>
</linearGradient>
<path style="fill:url(#SVGID_00000111914202795806172150000002639164848980907711_);" d="M-146.5-95.6c-0.6-0.6-1.5-0.6-2.1,0
	l-15.4,15.4l-8.8-8.8c-0.6-0.6-1.5-0.6-2.1,0c-0.6,0.6-0.6,1.5,0,2.1l9.8,9.8c0.3,0.3,0.7,0.4,1.1,0.4c0,0,0.1,0,0.1,0
	c0,0,0.1,0,0.1,0c0.4,0,0.8-0.1,1.1-0.4l16.4-16.4C-145.9-94.1-145.9-95-146.5-95.6z"/>
<linearGradient id="SVGID_00000011031623692819940570000015988651828525773744_" gradientUnits="userSpaceOnUse" x1="-213.0991" y1="-81.5555" x2="-86.4564" y2="-81.5555">
	<stop  offset="0" style="stop-color:#00DCC4"/>
	<stop  offset="1" style="stop-color:#01AEF7"/>
</linearGradient>
<path style="fill:url(#SVGID_00000011031623692819940570000015988651828525773744_);" d="M-101.4-118.4c0.1-1.4,0.6-4.3,2.7-6.4
	c1.8-1.9,4.5-2.9,8-3c0.8,0,1.5-0.7,1.5-1.5c0-0.8-0.7-1.5-1.5-1.5c0,0,0,0,0,0c-4.3,0.1-7.8,1.4-10.2,4c-2.7,2.8-3.3,6.4-3.5,8.3
	c-5.1,0-9.1,1.6-12.1,4.6c-5,5.2-4.9,12.7-4.8,12.9v2.7c-7.7-16.8-24.7-28-43.7-28c-26.5,0-48.1,21.6-48.1,48.1
	c0,10.3,3.3,20.4,9.4,28.6c-1.9,0.7-3.6,1.9-5,3.3c-2.7,2.8-4.1,6.4-4,10.3c0.1,2.1,0.1,3.2,1.2,3.6c0.2,0.1,0.4,0.1,0.5,0.1
	c0.1,0,0.1,0,0.2,0h92c8.7,0,15.8-7.1,15.8-15.8v-37.1c0-7.3,5.9-13.2,13.2-13.2h1.9c0.4,0,0.8-0.2,1.1-0.4c0.3-0.3,0.4-0.7,0.4-1.1
	C-86.5-100.1-86.9-116.6-101.4-118.4z M-210.1-78.2c0-24.9,20.2-45.1,45.1-45.1c20.5,0,38.4,13.8,43.6,33.6c0,0.1,0,0.1,0.1,0.2
	v19.7c0,10.6-8.6,19.2-19.2,19.2h-57.9c-0.7,0-1.4,0.1-2,0.2C-206.8-58.5-210.1-68-210.1-78.2z M-89.8-101.4
	c-8.9,0-16.2,7.3-16.2,16.2v37.1c0,7.1-5.8,12.8-12.8,12.8h-90.8c0-0.2,0-0.5,0-0.8c-0.1-3,1-5.9,3.1-8.1c2.1-2.2,5-3.4,8.1-3.4
	h57.9c12.2,0,22.2-10,22.2-22.2l0-31.3c0-0.1-0.1-6.6,4-10.8c2.4-2.5,5.8-3.7,10.1-3.7c11.8,0,14.2,10.3,14.7,14.2H-89.8z"/>
<image style="overflow:visible;" width="225" height="225" xlink:href="160FAE8B.jpg"  transform="matrix(0.4472 0 0 0.4472 -308.8766 115.7668)">
</image>
<linearGradient id="SVGID_00000016041635492332542430000016503220902000313750_" gradientUnits="userSpaceOnUse" x1="-191.4507" y1="146.1743" x2="-152.3396" y2="146.1743">
	<stop  offset="0" style="stop-color:#00DCC4"/>
	<stop  offset="1" style="stop-color:#01AEF7"/>
</linearGradient>
<path style="fill:none;stroke:url(#SVGID_00000016041635492332542430000016503220902000313750_);stroke-width:2;stroke-linecap:round;stroke-linejoin:round;stroke-miterlimit:10;" d="
	M-153.3,177h-29.9c-4,0-7.2-3.2-7.2-7.2v0c0-4,3.3-7.3,7.3-7.3h6.3v-33.4v-13.7h-7.2c-3.5,0-6.4,2.8-6.4,6.4v47.5"/>
<linearGradient id="SVGID_00000177452903531483279480000014592967453629542064_" gradientUnits="userSpaceOnUse" x1="-163.3766" y1="165.4104" x2="-117.6729" y2="165.4104">
	<stop  offset="0" style="stop-color:#00DCC4"/>
	<stop  offset="1" style="stop-color:#01AEF7"/>
</linearGradient>
<polygon style="fill:none;stroke:url(#SVGID_00000177452903531483279480000014592967453629542064_);stroke-width:2;stroke-linecap:round;stroke-linejoin:round;stroke-miterlimit:10;" points="
	-118.7,143.4 -162.4,187.4 -118.7,187.4 "/>
<linearGradient id="SVGID_00000014612576376686169180000004662232603358838683_" gradientUnits="userSpaceOnUse" x1="-145.0724" y1="170.9659" x2="-124.9339" y2="170.9659">
	<stop  offset="0" style="stop-color:#00DCC4"/>
	<stop  offset="1" style="stop-color:#01AEF7"/>
</linearGradient>
<polygon style="fill:none;stroke:url(#SVGID_00000014612576376686169180000004662232603358838683_);stroke-width:2;stroke-linecap:round;stroke-linejoin:round;stroke-miterlimit:10;" points="
	-125.9,161.8 -144.1,180.1 -125.9,180.1 "/>
<g>
	<path d="M-145.3,156.6c-2.1,0-4.2-0.4-6.2-1.1s-3.6-1.8-4.9-3.4c-1.3-1.6-2-3.6-2.1-6l2.6-0.2c0,0.1,0,0.4,0.1,1
		c0.1,0.6,0.2,1.3,0.6,2.1c0.3,0.8,0.9,1.6,1.6,2.4c0.8,0.8,1.8,1.5,3.2,2c1.4,0.5,3.1,0.8,5.3,0.8c2,0,3.5-0.2,4.7-0.7
		c1.2-0.5,2.1-1.1,2.7-1.8c0.6-0.7,1-1.4,1.2-2c0.2-0.7,0.3-1.1,0.3-1.4c0-1.5-0.3-2.7-1.1-3.5s-1.7-1.6-3-2.2
		c-1.3-0.5-2.7-1-4.2-1.4c-1.5-0.4-3-0.8-4.5-1.2c-1.5-0.4-2.9-1-4.2-1.6c-1.3-0.7-2.3-1.6-3-2.7c-0.7-1.1-1.1-2.6-1-4.3
		c0.1-1.7,0.6-3.1,1.7-4.3c1.1-1.2,2.5-2.1,4.3-2.8c1.8-0.6,3.7-1,5.9-1c2.1,0,4.1,0.4,5.8,1.2c1.7,0.8,3.1,1.9,4.1,3.4
		c1,1.5,1.5,3.4,1.5,5.7l-2.6,0.2c0.1-1.7-0.2-3-0.9-4.1c-0.7-1-1.5-1.8-2.5-2.4c-1-0.6-2-1-3.1-1.2c-1.1-0.2-2-0.3-2.7-0.3
		c-2.5,0-4.6,0.5-6.2,1.6c-1.7,1.1-2.5,2.5-2.6,4.1c0,1.4,0.3,2.6,1.1,3.5c0.8,0.9,1.8,1.6,3,2.1c1.2,0.5,2.6,1,4.1,1.3
		c1.5,0.4,3,0.8,4.5,1.2c1.5,0.4,2.9,1,4.1,1.6c1.2,0.7,2.2,1.6,3,2.7c0.7,1.2,1.1,2.6,1,4.5c0,1.7-0.6,3.2-1.7,4.4
		c-1.1,1.2-2.5,2.1-4.2,2.8C-141.3,156.3-143.2,156.6-145.3,156.6z M-146.4,124l-0.1-6.4h2.6l-0.1,6.4H-146.4z M-146.5,162.1
		l0.1-6.3h2.3l0.1,6.3H-146.5z"/>
</g>
<linearGradient id="SVGID_00000026163993707584095730000011529213357885216386_" gradientUnits="userSpaceOnUse" x1="-177.747" y1="141.2483" x2="-127.0803" y2="141.2483">
	<stop  offset="0" style="stop-color:#00DCC4"/>
	<stop  offset="1" style="stop-color:#01AEF7"/>
</linearGradient>
<polyline style="fill:none;stroke:url(#SVGID_00000026163993707584095730000011529213357885216386_);stroke-width:2;stroke-linecap:round;stroke-linejoin:round;stroke-miterlimit:10;" points="
	-176.7,129.8 -128.1,129.8 -128.1,152.7 "/>
<g>
	
		<linearGradient id="SVGID_00000046300668678232540630000004318016511053005711_" gradientUnits="userSpaceOnUse" x1="40.7902" y1="-86.6037" x2="138.7556" y2="-86.6037">
		<stop  offset="0" style="stop-color:#00DCC4"/>
		<stop  offset="1" style="stop-color:#01AEF7"/>
	</linearGradient>
	<path style="fill:url(#SVGID_00000046300668678232540630000004318016511053005711_);" d="M137.8-98.5c-0.6-0.2-1.2-0.1-1.6,0.3
		l-9.9,9.9v-27c0-0.8-0.7-1.5-1.5-1.5h-16.5c-0.4-1-0.8-1.9-1.4-2.7c-1.6-2.4-3.8-4.1-6.5-5.4c-2.1-1-4.5-1.5-7-1.7l0.2-9h-4l0.2,9
		c-2.8,0.1-5.4,0.6-7.8,1.5c-2.8,1-5,2.5-6.7,4.3c-1.1,1.2-1.8,2.5-2.2,4H61.7v-17.5c0-0.8-0.7-1.5-1.5-1.5h-9.5
		c-5.5,0-9.9,4.4-9.9,9.9V-63c0,0.2,0,0.5,0,0.7c0,6.1,4.9,11,11,11h37.8L78.4-40c-0.4,0.4-0.6,1.1-0.3,1.6c0.2,0.6,0.8,0.9,1.4,0.9
		h57.8c0.8,0,1.5-0.7,1.5-1.5v-58.2C138.8-97.8,138.4-98.3,137.8-98.5z M43.8-125.8c0-3.8,3.1-6.9,6.9-6.9h8v59.3h-6.8
		c-3.2,0-6.1,1.3-8.1,3.5V-125.8z M91.4-54.3H51.8c-4.4,0-8-3.6-8-8c0-0.2,0-0.3,0-0.5c0,0,0-0.1,0-0.1c0.3-4.2,3.8-7.5,8.1-7.5h8.3
		c0.8,0,1.5-0.7,1.5-1.5v-41.8h10.9c0,2.7,0.5,4.9,1.6,6.6c1.1,1.8,2.7,3.2,4.7,4.2c2,1,4.2,1.9,6.6,2.6c2.4,0.7,4.8,1.3,7.2,1.9
		c2.4,0.6,4.6,1.3,6.6,2.2c2,0.9,3.6,2,4.7,3.4c1.2,1.4,1.7,3.3,1.7,5.6c0,0.5-0.2,1.2-0.5,2.3c-0.3,1-1,2.1-1.9,3.2
		c-1,1.1-2.4,2-4.2,2.8c-1.8,0.8-4.3,1.2-7.4,1.2c-3.4,0-6.2-0.4-8.3-1.3c-2.1-0.8-3.8-1.9-5-3.1c-1.2-1.3-2-2.5-2.6-3.8
		c-0.5-1.3-0.8-2.4-0.9-3.4c-0.1-0.9-0.1-1.4-0.1-1.6l-4,0.4c0.2,3.9,1.3,7,3.3,9.5c2,2.4,4.6,4.2,7.7,5.3c2.6,0.9,5.3,1.4,8.1,1.6
		l-0.2,8.7h4l-0.2-8.8c2.5-0.2,4.8-0.6,6.9-1.4c2.7-1,4.9-2.5,6.7-4.4c1.7-1.9,2.6-4.2,2.7-7c0.1-2.9-0.5-5.2-1.6-7
		c-1.1-1.8-2.7-3.3-4.7-4.3c-2-1-4.1-1.9-6.5-2.6c-2.4-0.7-4.8-1.3-7.2-1.9c-2.4-0.6-4.6-1.3-6.5-2.1c-2-0.8-3.6-1.9-4.7-3.3
		c-1.2-1.4-1.8-3.2-1.7-5.5c0.1-2.6,1.5-4.8,4.1-6.5c2.6-1.7,5.9-2.6,9.8-2.6c1.2,0,2.6,0.2,4.3,0.5c1.7,0.4,3.3,1,4.9,1.9
		c1.6,0.9,2.9,2.2,3.9,3.8c1,1.6,1.5,3.8,1.4,6.4l4-0.3c0-1.1-0.1-2.2-0.2-3.2h14.2v28.5L92.3-54C92-54.2,91.7-54.3,91.4-54.3z
		 M135.8-40.5H83l52.7-53V-40.5z"/>
	
		<linearGradient id="SVGID_00000040565348191461750650000007414549888243252915_" gradientUnits="userSpaceOnUse" x1="102.1512" y1="-60.7121" x2="129.1491" y2="-60.7121">
		<stop  offset="0" style="stop-color:#00DCC4"/>
		<stop  offset="1" style="stop-color:#01AEF7"/>
	</linearGradient>
	<path style="fill:url(#SVGID_00000040565348191461750650000007414549888243252915_);" d="M102.3-48.1c0.2,0.6,0.8,0.9,1.4,0.9h24
		c0.8,0,1.5-0.7,1.5-1.5v-24.1c0-0.6-0.4-1.2-0.9-1.4c-0.6-0.2-1.2-0.1-1.6,0.3l-24,24.1C102.2-49.3,102-48.6,102.3-48.1z
		 M126.1-69.1v19h-18.9L126.1-69.1z"/>
</g>
<g>
	
		<linearGradient id="SVGID_00000144324739748564677810000007596733240451199131_" gradientUnits="userSpaceOnUse" x1="225.5637" y1="-79.7038" x2="252.749" y2="-79.7038">
		<stop  offset="0" style="stop-color:#00DCC4"/>
		<stop  offset="1" style="stop-color:#01AEF7"/>
	</linearGradient>
	<path style="fill:url(#SVGID_00000144324739748564677810000007596733240451199131_);" d="M238.2-62c0.1,0,0.2,0,0.3,0c0,0,0,0,0,0
		c0,0,0,0,0,0s0,0,0,0c0.1,0,0.2,0,0.3,0c0,0,0,0,0,0c0.1,0,0.2,0,0.3-0.1c0,0,0,0,0.1,0c0.1,0,0.1-0.1,0.2-0.1
		c0.1-0.1,0.2-0.1,0.2-0.2l12.7-12.7c0.6-0.6,0.6-1.6,0-2.2c-0.6-0.6-1.6-0.6-2.2,0l-10,10v-28.5c0-0.9-0.7-1.6-1.6-1.6
		s-1.6,0.7-1.6,1.6v28.5l-8.7-8.7c-0.6-0.6-1.6-0.6-2.2,0c-0.6,0.6-0.6,1.6,0,2.2l11.4,11.4c0,0,0,0,0.1,0.1c0,0,0.1,0,0.1,0.1
		c0.1,0.1,0.2,0.2,0.3,0.2c0,0,0,0,0,0c0,0,0,0,0,0C238-62.1,238.1-62.1,238.2-62C238.2-62,238.2-62,238.2-62z"/>
	
		<linearGradient id="SVGID_00000038412667156278407380000000287736124747819161_" gradientUnits="userSpaceOnUse" x1="210.3889" y1="-80.6667" x2="308.426" y2="-80.6667">
		<stop  offset="0" style="stop-color:#00DCC4"/>
		<stop  offset="1" style="stop-color:#01AEF7"/>
	</linearGradient>
	<path style="fill:url(#SVGID_00000038412667156278407380000000287736124747819161_);" d="M308.3-106.6
		C308.2-106.6,308.2-106.7,308.3-106.6c-0.1-0.2-0.2-0.3-0.3-0.4l-22.9-22.9c-0.1-0.1-0.2-0.2-0.3-0.2c0,0-0.1,0-0.1,0
		c-0.2-0.1-0.4-0.2-0.7-0.2h-37.1c-5.7,0-10.3,4.6-10.3,10.3v12.3c-14.6,1-26.2,13.2-26.2,28.1s11.6,27.1,26.2,28.1v9.9
		c0,5.9,4.8,10.7,10.7,10.7h59.5c0.9,0,1.6-0.7,1.6-1.6v-73.4C308.4-106.2,308.4-106.4,308.3-106.6z M303.1-107.5h-17.5V-125
		L303.1-107.5z M213.5-79.7c0-13.8,11.2-25,25-25s25,11.2,25,25s-11.2,25-25,25S213.5-65.9,213.5-79.7z M247.4-34.1
		c-4.2,0-7.6-3.4-7.6-7.6v-9.9c9-0.4,16.8-5,21.7-11.9c0.1,0,0.2,0,0.2,0h30.5c0.9,0,1.6-0.7,1.6-1.6s-0.7-1.6-1.6-1.6h-28.8
		c1.3-2.5,2.3-5.3,2.8-8.2h30.2c0.9,0,1.6-0.7,1.6-1.6s-0.7-1.6-1.6-1.6h-29.8c0-0.6,0.1-1.2,0.1-1.8c0-2.2-0.3-4.3-0.7-6.4h30
		c0.9,0,1.6-0.7,1.6-1.6s-0.7-1.6-1.6-1.6h-30.5c-0.1,0-0.3,0-0.4,0.1c-3.8-10.5-13.6-18.1-25.3-18.6V-120c0-4,3.2-7.2,7.2-7.2h35.5
		v21.3c0,0.9,0.7,1.6,1.6,1.6h21.3v70.2H247.4z"/>
</g>
<g>
	<polyline class="st25" points="249.1,123 249.1,155.3 261.7,142.6 	"/>
	<line class="st25" x1="237.7" y1="143.9" x2="249.1" y2="155.3"/>
</g>
<path class="st25" d="M248.7,166.1v11c0,5.1,4.1,9.2,9.2,9.2h59.5v-73.4l-22.9-22.9h-37.1c-4.8,0-8.8,3.9-8.8,8.8v13.4"/>
<polygon class="st25" points="317.4,112.9 294.6,90.1 294.6,112.9 "/>
<circle class="st25" cx="249.1" cy="139.1" r="26.6"/>
<line class="st25" x1="306.4" y1="131.2" x2="276" y2="131.2"/>
<line class="st25" x1="306.9" y1="142.5" x2="276.4" y2="142.5"/>
<line class="st25" x1="302.8" y1="153.8" x2="272.3" y2="153.8"/>
<g>
	<polyline class="st25" points="300.4,39.7 323.2,62.5 323.2,44.6 	"/>
	<line class="st25" x1="307.1" y1="62.5" x2="323.2" y2="62.5"/>
</g>
<path class="st25" d="M311.4,78.1v11c0,5.1,4.1,9.2,9.2,9.2h59.5V24.9L357.2,2.1h-37.1c-4.8,0-8.8,3.9-8.8,8.8v13.4"/>
<polygon class="st25" points="380.1,24.9 357.2,2.1 357.2,24.9 "/>
<circle class="st25" cx="311.8" cy="51.1" r="26.6"/>
<line class="st25" x1="369.1" y1="43.2" x2="338.6" y2="43.2"/>
<line class="st25" x1="369.6" y1="54.5" x2="339.1" y2="54.5"/>
<line class="st25" x1="365.4" y1="65.8" x2="334.9" y2="65.8"/>
<image style="overflow:visible;" width="225" height="225" xlink:href="160FAE8E.jpg"  transform="matrix(0.4282 0 0 0.4282 133.5678 -43.2702)">
</image>
<g>
	
		<linearGradient id="SVGID_00000065072401530246982460000005200080404630155412_" gradientUnits="userSpaceOnUse" x1="-95.1004" y1="-53.0621" x2="-79.3274" y2="-53.0621">
		<stop  offset="0" style="stop-color:#00DCC4"/>
		<stop  offset="1" style="stop-color:#01AEF7"/>
	</linearGradient>
	<path style="fill:url(#SVGID_00000065072401530246982460000005200080404630155412_);" d="M-89.2-47.4c-0.4,0-0.8-0.1-1-0.4
		l-4.5-4.5c-0.6-0.6-0.6-1.5,0-2.1c0.6-0.6,1.5-0.6,2.1,0l3.4,3.4l7.3-7.3c0.6-0.6,1.5-0.6,2.1,0c0.6,0.6,0.6,1.5,0,2.1l-8.4,8.4
		C-88.4-47.6-88.8-47.4-89.2-47.4z"/>
</g>
<g>
	
		<linearGradient id="SVGID_00000121973650803144526780000011766856465614691982_" gradientUnits="userSpaceOnUse" x1="-120.179" y1="-53.1498" x2="-55.9046" y2="-53.1498">
		<stop  offset="0" style="stop-color:#00DCC4"/>
		<stop  offset="1" style="stop-color:#01AEF7"/>
	</linearGradient>
	<path style="fill:url(#SVGID_00000121973650803144526780000011766856465614691982_);" d="M-82.2-21h-11.7l-0.9-8.7
		c-1.8-0.5-3.5-1.2-5.1-2.1l-6.8,5.5l-8.3-8.3l5.4-6.7c-1-1.6-1.7-3.4-2.3-5.2l-8.5-0.9V-59l8.1-0.8c0.5-2,1.2-3.9,2.2-5.7l-5.1-6.2
		l8.3-8.3l6,4.9c1.9-1.1,3.9-2,6-2.6l0.8-7.6h11.7l0.8,7.5c2.2,0.6,4.2,1.4,6.2,2.6l5.8-4.7l8.3,8.3l-4.8,5.9c1.1,1.9,1.9,4,2.4,6
		l7.7,0.8v11.7l-8,0.8c-0.6,2-1.4,3.8-2.4,5.6l5.2,6.4l-8.3,8.3l-6.6-5.4c-1.7,0.9-3.5,1.6-5.3,2.1L-82.2-21z M-91.2-24h6.4l0.8-8
		l1-0.2c2.2-0.5,4.4-1.3,6.4-2.5l0.9-0.5l6.1,5l4.5-4.5l-4.9-6l0.6-0.9c1.3-2,2.3-4.2,2.9-6.6l0.3-1l7.4-0.8v-6.4l-7.2-0.7l-0.2-1.1
		c-0.5-2.5-1.5-4.8-2.8-7.1l-0.5-0.9l4.5-5.5l-4.5-4.5l-5.4,4.4l-0.9-0.6c-2.2-1.4-4.6-2.4-7.2-3l-1-0.2l-0.7-6.9h-6.4l-0.7,7
		l-1,0.2c-2.5,0.6-4.9,1.6-7,3l-0.9,0.6l-5.6-4.6l-4.5,4.5l4.7,5.7l-0.5,0.9c-1.3,2.1-2.2,4.4-2.6,6.7l-0.2,1.1l-7.6,0.8v6.4
		l7.8,0.8l0.3,1c0.6,2.2,1.5,4.4,2.7,6.3l0.6,0.9l-5.1,6.2l4.5,4.5l6.3-5.1l0.9,0.5c1.9,1.2,4,2,6.2,2.6l1,0.2L-91.2-24z
		 M-87.8-37.6c-8.9,0-16.1-7.2-16.1-16.1c0-8.9,7.2-16.1,16.1-16.1c8.9,0,16.1,7.2,16.1,16.1C-71.7-44.8-78.9-37.6-87.8-37.6z
		 M-87.8-66.9c-7.3,0-13.2,5.9-13.2,13.2s5.9,13.2,13.2,13.2s13.2-5.9,13.2-13.2S-80.6-66.9-87.8-66.9z"/>
</g>
<g>
	
		<linearGradient id="SVGID_00000099636182920030356660000003088138338507803071_" gradientUnits="userSpaceOnUse" x1="-51.385" y1="-8.6954" x2="-6.4817" y2="-8.6954">
		<stop  offset="0" style="stop-color:#00DCC4"/>
		<stop  offset="1" style="stop-color:#01AEF7"/>
	</linearGradient>
	<path style="fill:url(#SVGID_00000099636182920030356660000003088138338507803071_);" d="M-24.5,13.8h-8.8L-34,7.7
		c-1-0.3-2-0.7-3-1.2l-4.7,3.8l-6.2-6.2l3.8-4.6c-0.5-1-1-2-1.3-3.1l-5.9-0.6v-8.8l5.7-0.6c0.3-1.2,0.8-2.3,1.3-3.4l-3.5-4.3
		l6.2-6.2l4.2,3.4c1.1-0.7,2.4-1.2,3.6-1.6l0.5-5.3h8.8l0.5,5.2c1.3,0.4,2.6,0.9,3.7,1.6l4.1-3.3l6.2,6.2l-3.4,4.1
		c0.6,1.2,1.1,2.4,1.5,3.7l5.4,0.5v8.8l-5.6,0.6c-0.4,1.2-0.9,2.3-1.5,3.3l3.6,4.4l-6.2,6.2l-4.6-3.8c-1,0.5-2.1,0.9-3.1,1.2
		L-24.5,13.8z M-30.7,10.8h3.5l0.5-5.4l1-0.2c1.5-0.3,2.9-0.9,4.2-1.7l0.9-0.5l4.1,3.4l2.5-2.5l-3.3-4l0.6-0.9
		c0.9-1.3,1.5-2.8,1.9-4.4l0.3-1l5-0.5v-3.5l-4.8-0.5l-0.2-1.1c-0.3-1.6-1-3.2-1.9-4.7l-0.5-0.9l3-3.7l-2.5-2.5l-3.6,3l-0.9-0.6
		c-1.5-0.9-3.1-1.6-4.8-2l-1-0.2l-0.5-4.6h-3.5l-0.5,4.7l-1,0.2c-1.7,0.4-3.2,1.1-4.6,2l-0.9,0.6l-3.8-3.1l-2.5,2.5l3.1,3.9
		l-0.5,0.9c-0.8,1.4-1.4,2.9-1.8,4.5l-0.2,1.1l-5.1,0.5v3.5l5.3,0.5l0.3,1c0.4,1.5,1,2.9,1.8,4.2l0.6,0.9L-44,3.9l2.5,2.5l4.2-3.5
		l0.9,0.5c1.3,0.8,2.7,1.3,4.1,1.7l1,0.2L-30.7,10.8z M-28.8,2.4c-6.3,0-11.5-5.2-11.5-11.5c0-6.3,5.2-11.5,11.5-11.5
		c6.3,0,11.5,5.2,11.5,11.5C-17.3-2.7-22.5,2.4-28.8,2.4z M-28.8-17.6c-4.7,0-8.6,3.8-8.6,8.6s3.8,8.6,8.6,8.6s8.6-3.8,8.6-8.6
		S-24.1-17.6-28.8-17.6z"/>
</g>
<g>
	
		<linearGradient id="SVGID_00000036230517797760858480000013197711804781539261_" gradientUnits="userSpaceOnUse" x1="-51.888" y1="-44.494" x2="-22.2073" y2="-44.494">
		<stop  offset="0" style="stop-color:#00DCC4"/>
		<stop  offset="1" style="stop-color:#01AEF7"/>
	</linearGradient>
	<path style="fill:url(#SVGID_00000036230517797760858480000013197711804781539261_);" d="M-28.8-34.1c-0.2,0-0.4,0-0.6-0.1
		c-0.5-0.2-0.9-0.8-0.9-1.4V-52h-20.1c-0.8,0-1.5-0.7-1.5-1.5s0.7-1.5,1.5-1.5h21.6c0.8,0,1.5,0.7,1.5,1.5v14.3l2.6-2.6
		c0.6-0.6,1.5-0.6,2.1,0c0.6,0.6,0.6,1.5,0,2.1l-5.1,5.1C-28.1-34.2-28.4-34.1-28.8-34.1z"/>
</g>
<g>
	
		<linearGradient id="SVGID_00000002350024825182589000000015461924342242267029_" gradientUnits="userSpaceOnUse" x1="-35.5432" y1="-38.1637" x2="-27.3811" y2="-38.1637">
		<stop  offset="0" style="stop-color:#00DCC4"/>
		<stop  offset="1" style="stop-color:#01AEF7"/>
	</linearGradient>
	<path style="fill:url(#SVGID_00000002350024825182589000000015461924342242267029_);" d="M-28.9-34.1c-0.4,0-0.8-0.1-1-0.4
		l-5.2-5.2c-0.6-0.6-0.6-1.5,0-2.1c0.6-0.6,1.5-0.6,2.1,0l5.2,5.2c0.6,0.6,0.6,1.5,0,2.1C-28.1-34.2-28.5-34.1-28.9-34.1z"/>
</g>
<g>
	
		<linearGradient id="SVGID_00000065032556322763326970000004466711179069765285_" gradientUnits="userSpaceOnUse" x1="136.0459" y1="179.1889" x2="165.7265" y2="179.1889" gradientTransform="matrix(-1 0 0 -1 71.2468 172.9411)">
		<stop  offset="0" style="stop-color:#00DCC4"/>
		<stop  offset="1" style="stop-color:#01AEF7"/>
	</linearGradient>
	<path style="fill:url(#SVGID_00000065032556322763326970000004466711179069765285_);" d="M-66.3,4.2h-21.6c-0.8,0-1.5-0.7-1.5-1.5
		v-14.3L-92-9c-0.6,0.6-1.5,0.6-2.1,0s-0.6-1.5,0-2.1l5.1-5.1c0.4-0.4,1.1-0.5,1.6-0.3c0.5,0.2,0.9,0.8,0.9,1.4V1.2h20.1
		c0.8,0,1.5,0.7,1.5,1.5S-65.5,4.2-66.3,4.2z"/>
</g>
<g>
	
		<linearGradient id="SVGID_00000174596225465537173830000014354620715797191575_" gradientUnits="userSpaceOnUse" x1="152.3907" y1="185.5193" x2="160.5522" y2="185.5193" gradientTransform="matrix(-1 0 0 -1 71.2468 172.9411)">
		<stop  offset="0" style="stop-color:#00DCC4"/>
		<stop  offset="1" style="stop-color:#01AEF7"/>
	</linearGradient>
	<path style="fill:url(#SVGID_00000174596225465537173830000014354620715797191575_);" d="M-82.6-8.5c-0.4,0-0.8-0.1-1-0.4l-5.2-5.2
		c-0.6-0.6-0.6-1.5,0-2.1c0.6-0.6,1.5-0.6,2.1,0l5.2,5.2c0.6,0.6,0.6,1.5,0,2.1C-81.9-8.6-82.2-8.5-82.6-8.5z"/>
</g>
<linearGradient id="SVGID_00000076566714941548307740000005193950838828804770_" gradientUnits="userSpaceOnUse" x1="-95.114" y1="78.569" x2="-80.203" y2="78.569">
	<stop  offset="0" style="stop-color:#00DCC4"/>
	<stop  offset="1" style="stop-color:#01AEF7"/>
</linearGradient>
<polyline style="fill:none;stroke:url(#SVGID_00000076566714941548307740000005193950838828804770_);stroke-width:2.9411;stroke-miterlimit:10;" points="
	-94.1,77.8 -89.6,82.2 -81.2,73.9 "/>
<linearGradient id="SVGID_00000016064180615411394600000000897302470927287194_" gradientUnits="userSpaceOnUse" x1="-120.6231" y1="77.9614" x2="-56.3496" y2="77.9614">
	<stop  offset="0" style="stop-color:#00DCC4"/>
	<stop  offset="1" style="stop-color:#01AEF7"/>
</linearGradient>
<path style="fill:none;stroke:url(#SVGID_00000016064180615411394600000000897302470927287194_);stroke-width:2.9411;stroke-miterlimit:10;" d="
	M-57.8,82.5v-9l-7.4-0.8c-0.6-2.7-1.6-5.2-3-7.5l4.6-5.7l-6.4-6.4l-5.6,4.6c-2.3-1.5-4.9-2.6-7.7-3.2l-0.7-7.2h-9l-0.7,7.3
	c-2.7,0.6-5.2,1.7-7.5,3.2l-5.8-4.7l-6.4,6.4l4.9,6c-1.3,2.2-2.3,4.6-2.8,7.2l-7.9,0.8v9l8.1,0.8c0.6,2.4,1.6,4.7,2.9,6.7l-5.2,6.4
	l6.4,6.4l6.5-5.3c2,1.2,4.2,2.2,6.6,2.7l0.9,8.4h9l0.8-8.3c2.4-0.5,4.7-1.5,6.8-2.7l6.3,5.2l6.4-6.4l-5-6.1c1.4-2.1,2.4-4.5,3.1-7.1
	L-57.8,82.5z M-88.3,92.1c-8.1,0-14.7-6.6-14.7-14.7s6.6-14.7,14.7-14.7c8.1,0,14.7,6.6,14.7,14.7S-80.2,92.1-88.3,92.1z"/>
<linearGradient id="SVGID_00000016784058716333807550000013200012241302439559_" gradientUnits="userSpaceOnUse" x1="-51.829" y1="122.4159" x2="-6.9267" y2="122.4159">
	<stop  offset="0" style="stop-color:#00DCC4"/>
	<stop  offset="1" style="stop-color:#01AEF7"/>
</linearGradient>
<path style="fill:none;stroke:url(#SVGID_00000016784058716333807550000013200012241302439559_);stroke-width:2.9411;stroke-miterlimit:10;" d="
	M-8.4,125.5v-6.2l-5.1-0.5c-0.4-1.9-1.1-3.6-2.1-5.2l3.2-3.9l-4.4-4.4l-3.8,3.1c-1.6-1-3.3-1.8-5.2-2.2l-0.5-4.9h-6.2l-0.5,5
	c-1.8,0.4-3.6,1.2-5.1,2.2l-4-3.2l-4.4,4.4l3.3,4.1c-0.9,1.5-1.6,3.2-1.9,4.9l-5.4,0.5v6.2l5.6,0.6c0.4,1.7,1.1,3.2,2,4.6l-3.6,4.4
	l4.4,4.4l4.5-3.6c1.4,0.8,2.9,1.5,4.5,1.9l0.6,5.7h6.2l0.6-5.7c1.7-0.4,3.2-1,4.6-1.8l4.3,3.5l4.4-4.4l-3.4-4.2
	c1-1.5,1.7-3.1,2.1-4.8L-8.4,125.5z M-29.2,132.1c-5.5,0-10-4.5-10-10s4.5-10,10-10c5.5,0,10,4.5,10,10S-23.7,132.1-29.2,132.1z"/>
<linearGradient id="SVGID_00000084532176822356125170000017070158484134843557_" gradientUnits="userSpaceOnUse" x1="-52.332" y1="86.6171" x2="-22.652" y2="86.6171">
	<stop  offset="0" style="stop-color:#00DCC4"/>
	<stop  offset="1" style="stop-color:#01AEF7"/>
</linearGradient>
<polyline style="fill:none;stroke:url(#SVGID_00000084532176822356125170000017070158484134843557_);stroke-width:2.9411;stroke-linecap:round;stroke-linejoin:round;stroke-miterlimit:10;" points="
	-50.9,77.7 -29.3,77.7 -29.3,95.6 -24.1,90.4 "/>
<linearGradient id="SVGID_00000083061287613225690250000007587416958263805060_" gradientUnits="userSpaceOnUse" x1="-35.9875" y1="92.9474" x2="-27.826" y2="92.9474">
	<stop  offset="0" style="stop-color:#00DCC4"/>
	<stop  offset="1" style="stop-color:#01AEF7"/>
</linearGradient>
<line style="fill:none;stroke:url(#SVGID_00000083061287613225690250000007587416958263805060_);stroke-width:2.9411;stroke-linecap:round;stroke-linejoin:round;stroke-miterlimit:10;" x1="-34.5" y1="90.3" x2="-29.3" y2="95.6"/>
<linearGradient id="SVGID_00000003825273233535265140000004826001151433847698_" gradientUnits="userSpaceOnUse" x1="136.4906" y1="48.0783" x2="166.1706" y2="48.0783" gradientTransform="matrix(-1 0 0 -1 71.2468 172.9411)">
	<stop  offset="0" style="stop-color:#00DCC4"/>
	<stop  offset="1" style="stop-color:#01AEF7"/>
</linearGradient>
<polyline style="fill:none;stroke:url(#SVGID_00000003825273233535265140000004826001151433847698_);stroke-width:2.9411;stroke-linecap:round;stroke-linejoin:round;stroke-miterlimit:10;" points="
	-66.7,133.8 -88.3,133.8 -88.3,115.9 -93.5,121.1 "/>
<linearGradient id="SVGID_00000038398792473416719900000012480482416923151542_" gradientUnits="userSpaceOnUse" x1="152.8351" y1="54.4086" x2="160.9967" y2="54.4086" gradientTransform="matrix(-1 0 0 -1 71.2468 172.9411)">
	<stop  offset="0" style="stop-color:#00DCC4"/>
	<stop  offset="1" style="stop-color:#01AEF7"/>
</linearGradient>
<line style="fill:none;stroke:url(#SVGID_00000038398792473416719900000012480482416923151542_);stroke-width:2.9411;stroke-linecap:round;stroke-linejoin:round;stroke-miterlimit:10;" x1="-83.1" y1="121.1" x2="-88.3" y2="115.9"/>
<linearGradient id="SVGID_00000183938673108229106330000013779822114935832451_" gradientUnits="userSpaceOnUse" x1="67.9938" y1="-17.872" x2="78.5308" y2="-17.872">
	<stop  offset="0" style="stop-color:#00DCC4"/>
	<stop  offset="1" style="stop-color:#01AEF7"/>
</linearGradient>
<path style="fill:none;stroke:url(#SVGID_00000183938673108229106330000013779822114935832451_);stroke-width:3;stroke-miterlimit:10;" d="
	M77-6.1v-18c0-2.3-1.8-4.1-4.1-4.1H68"/>
<linearGradient id="SVGID_00000067214175899805532030000011695026779700217489_" gradientUnits="userSpaceOnUse" x1="35.5771" y1="-28.8165" x2="69.2438" y2="-28.8165">
	<stop  offset="0" style="stop-color:#00DCC4"/>
	<stop  offset="1" style="stop-color:#01AEF7"/>
</linearGradient>
<circle style="fill:none;stroke:url(#SVGID_00000067214175899805532030000011695026779700217489_);stroke-width:3;stroke-miterlimit:10;" cx="52.4" cy="-28.8" r="15.3"/>
<g>
	
		<linearGradient id="SVGID_00000166647330168008459310000018329698989193292688_" gradientUnits="userSpaceOnUse" x1="46.035" y1="-28.8165" x2="58.7859" y2="-28.8165">
		<stop  offset="0" style="stop-color:#00DCC4"/>
		<stop  offset="1" style="stop-color:#01AEF7"/>
	</linearGradient>
	
		<line style="fill:none;stroke:url(#SVGID_00000166647330168008459310000018329698989193292688_);stroke-width:3;stroke-miterlimit:10;" x1="57.7" y1="-23.5" x2="47.1" y2="-34.1"/>
	
		<linearGradient id="SVGID_00000132810012588280578780000004966121111443168652_" gradientUnits="userSpaceOnUse" x1="46.035" y1="79.7946" x2="58.7859" y2="79.7946" gradientTransform="matrix(1 0 0 -1 0 50.9781)">
		<stop  offset="0" style="stop-color:#00DCC4"/>
		<stop  offset="1" style="stop-color:#01AEF7"/>
	</linearGradient>
	
		<line style="fill:none;stroke:url(#SVGID_00000132810012588280578780000004966121111443168652_);stroke-width:3;stroke-miterlimit:10;" x1="57.7" y1="-34.1" x2="47.1" y2="-23.5"/>
</g>
<linearGradient id="SVGID_00000162334498701869933370000006784523466076810636_" gradientUnits="userSpaceOnUse" x1="115.7227" y1="-17.872" x2="126.2597" y2="-17.872" gradientTransform="matrix(-1 0 0 1 152.7283 0)">
	<stop  offset="0" style="stop-color:#00DCC4"/>
	<stop  offset="1" style="stop-color:#01AEF7"/>
</linearGradient>
<path style="fill:none;stroke:url(#SVGID_00000162334498701869933370000006784523466076810636_);stroke-width:3;stroke-miterlimit:10;" d="
	M28-6.1v-18c0-2.3,1.8-4.1,4.1-4.1H37"/>
<g>
	<g>
		
			<linearGradient id="SVGID_00000044142899135220062630000007918400714289674388_" gradientUnits="userSpaceOnUse" x1="151.082" y1="181.5618" x2="212.9319" y2="181.5618">
			<stop  offset="0" style="stop-color:#00DCC4"/>
			<stop  offset="1" style="stop-color:#01AEF7"/>
		</linearGradient>
		<path style="fill:url(#SVGID_00000044142899135220062630000007918400714289674388_);" d="M206.3,177.1h-4.4
			c-0.5-10.6-9.3-19-19.9-19s-19.4,8.4-19.9,19h-4.2c-3.7,0-6.7,3-6.7,6.7v21.3h3.6v-21.3c0-1.7,1.4-3.1,3.1-3.1h4.3
			c1.3,9.8,9.7,17.4,19.8,17.4c10.2,0,18.6-7.6,19.8-17.4h4.6c1.7,0,3.1,1.4,3.1,3.1v21.3h3.6v-21.3
			C212.9,180,209.9,177.1,206.3,177.1z M181.9,194.5c-9.1,0-16.4-7.4-16.4-16.4c0-9.1,7.4-16.4,16.4-16.4c9.1,0,16.4,7.4,16.4,16.4
			C198.3,187.1,191,194.5,181.9,194.5z"/>
		
			<linearGradient id="SVGID_00000091714038954561976630000003232240693649089466_" gradientUnits="userSpaceOnUse" x1="174.327" y1="178.0581" x2="189.4746" y2="178.0581">
			<stop  offset="0" style="stop-color:#00DCC4"/>
			<stop  offset="1" style="stop-color:#01AEF7"/>
		</linearGradient>
		<polygon style="fill:url(#SVGID_00000091714038954561976630000003232240693649089466_);" points="187,170.5 181.9,175.5 
			176.8,170.5 174.3,173 179.4,178.1 174.3,183.1 176.8,185.6 181.9,180.6 187,185.6 189.5,183.1 184.4,178.1 189.5,173 		"/>
	</g>
	<g>
		
			<linearGradient id="SVGID_00000051344482353991790770000005663557557785876101_" gradientUnits="userSpaceOnUse" x1="129.1234" y1="233.4081" x2="176.2064" y2="233.4081">
			<stop  offset="0" style="stop-color:#00DCC4"/>
			<stop  offset="1" style="stop-color:#01AEF7"/>
		</linearGradient>
		<path style="fill:url(#SVGID_00000051344482353991790770000005663557557785876101_);" d="M157.3,256.9H148l-0.6-6.3
			c-1.1-0.3-2.1-0.8-3.2-1.3l-4.9,4l-6.5-6.5l4-4.9c-0.6-1-1-2.1-1.4-3.3l-6.2-0.6v-9.3l5.9-0.6c0.3-1.2,0.8-2.4,1.4-3.6l-3.7-4.6
			l6.5-6.5l4.4,3.6c1.2-0.7,2.5-1.2,3.8-1.6l0.6-5.6h9.3l0.6,5.5c1.4,0.4,2.7,0.9,3.9,1.6l4.3-3.5l6.5,6.5l-3.5,4.3
			c0.7,1.2,1.2,2.5,1.5,3.8l5.6,0.6v9.3l-5.9,0.6c-0.4,1.2-0.9,2.4-1.5,3.5l3.8,4.6l-6.5,6.5l-4.8-3.9c-1.1,0.5-2.2,1-3.3,1.3
			L157.3,256.9z M150.8,253.9h3.7l0.6-5.7l1.1-0.2c1.5-0.3,3-0.9,4.4-1.8l0.9-0.5l4.3,3.5l2.6-2.6l-3.4-4.2l0.6-0.9
			c0.9-1.4,1.6-2.9,2-4.6l0.3-1l5.2-0.5v-3.7l-5.1-0.5l-0.2-1.1c-0.3-1.7-1-3.4-2-4.9l-0.6-0.9l3.1-3.9l-2.6-2.6l-3.8,3.1l-0.9-0.6
			c-1.5-1-3.2-1.7-5-2.1l-1.1-0.2l-0.5-4.9h-3.7l-0.5,4.9l-1.1,0.3c-1.8,0.4-3.4,1.1-4.9,2.1l-0.9,0.6l-3.9-3.2l-2.6,2.6l3.3,4
			l-0.6,0.9c-0.9,1.5-1.5,3.1-1.8,4.7l-0.2,1.1l-5.4,0.5v3.7l5.5,0.6l0.3,1c0.4,1.6,1,3,1.9,4.4l0.6,0.9l-3.6,4.4l2.6,2.6l4.4-3.6
			l0.9,0.6c1.3,0.8,2.8,1.4,4.3,1.8l1.1,0.3L150.8,253.9z M152.8,245.1c-6.6,0-12.1-5.4-12.1-12.1c0-6.6,5.4-12.1,12.1-12.1
			c6.6,0,12.1,5.4,12.1,12.1C164.9,239.7,159.5,245.1,152.8,245.1z M152.8,224.1c-4.9,0-9,4-9,9s4,9,9,9c4.9,0,9-4,9-9
			S157.8,224.1,152.8,224.1z"/>
	</g>
	<g>
		
			<linearGradient id="SVGID_00000138556111722093986000000014209664649217525439_" gradientUnits="userSpaceOnUse" x1="187.6436" y1="233.4081" x2="234.7266" y2="233.4081">
			<stop  offset="0" style="stop-color:#00DCC4"/>
			<stop  offset="1" style="stop-color:#01AEF7"/>
		</linearGradient>
		<path style="fill:url(#SVGID_00000138556111722093986000000014209664649217525439_);" d="M215.8,256.9h-9.3l-0.6-6.3
			c-1.1-0.3-2.1-0.8-3.2-1.3l-4.9,4l-6.5-6.5l4-4.9c-0.6-1-1-2.1-1.4-3.3l-6.2-0.6v-9.3l5.9-0.6c0.3-1.2,0.8-2.4,1.4-3.6l-3.7-4.6
			l6.5-6.5l4.4,3.6c1.2-0.7,2.5-1.2,3.8-1.6l0.6-5.6h9.3l0.6,5.5c1.4,0.4,2.7,0.9,3.9,1.6l4.3-3.5l6.5,6.5l-3.5,4.3
			c0.7,1.2,1.2,2.5,1.5,3.8l5.6,0.6v9.3l-5.9,0.6c-0.4,1.2-0.9,2.4-1.5,3.5l3.8,4.6l-6.5,6.5l-4.8-3.9c-1.1,0.5-2.2,1-3.3,1.3
			L215.8,256.9z M209.3,253.9h3.7l0.6-5.7l1.1-0.2c1.5-0.3,3-0.9,4.4-1.8l0.9-0.5l4.3,3.5l2.6-2.6l-3.4-4.2l0.6-0.9
			c0.9-1.4,1.6-2.9,2-4.6l0.3-1l5.2-0.5v-3.7l-5.1-0.5l-0.2-1.1c-0.3-1.7-1-3.4-2-4.9l-0.6-0.9l3.1-3.9l-2.6-2.6l-3.8,3.1l-0.9-0.6
			c-1.5-1-3.2-1.7-5-2.1l-1.1-0.2L213,213h-3.7l-0.5,4.9l-1.1,0.3c-1.8,0.4-3.4,1.1-4.9,2.1l-0.9,0.6l-3.9-3.2l-2.6,2.6l3.3,4
			l-0.6,0.9c-0.9,1.5-1.5,3.1-1.8,4.7l-0.2,1.1l-5.4,0.5v3.7l5.5,0.6l0.3,1c0.4,1.6,1,3,1.9,4.4l0.6,0.9l-3.6,4.4l2.6,2.6l4.4-3.6
			l0.9,0.6c1.3,0.8,2.8,1.4,4.3,1.8l1.1,0.3L209.3,253.9z M211.3,245.1c-6.6,0-12.1-5.4-12.1-12.1c0-6.6,5.4-12.1,12.1-12.1
			c6.6,0,12.1,5.4,12.1,12.1C223.4,239.7,218,245.1,211.3,245.1z M211.3,224.1c-4.9,0-9,4-9,9s4,9,9,9s9-4,9-9
			S216.3,224.1,211.3,224.1z"/>
	</g>
</g>
<image style="overflow:visible;" width="225" height="225" xlink:href="160FAE8F.jpg"  transform="matrix(0.4368 0 0 0.4368 169.5863 40.5076)">
</image>
<g>
	
		<linearGradient id="SVGID_00000106866251456106857960000015287840831156011703_" gradientUnits="userSpaceOnUse" x1="7.7042" y1="42.0044" x2="76.4821" y2="42.0044">
		<stop  offset="0" style="stop-color:#00DCC4"/>
		<stop  offset="1" style="stop-color:#01AEF7"/>
	</linearGradient>
	<path style="fill:url(#SVGID_00000106866251456106857960000015287840831156011703_);" d="M42.1,73.4c-17.3,0-31.4-14.1-31.4-31.4
		c0-17.3,14.1-31.4,31.4-31.4c17.3,0,31.4,14.1,31.4,31.4c0,0.8,0.7,1.5,1.5,1.5s1.5-0.7,1.5-1.5c0-19-15.4-34.4-34.4-34.4
		C23.1,7.6,7.7,23,7.7,42c0,19,15.4,34.4,34.4,34.4c0.8,0,1.5-0.7,1.5-1.5S42.9,73.4,42.1,73.4z"/>
	
		<linearGradient id="SVGID_00000042706178358958842410000008352895387963412142_" gradientUnits="userSpaceOnUse" x1="0.7409" y1="50" x2="99.111" y2="50">
		<stop  offset="0" style="stop-color:#00DCC4"/>
		<stop  offset="1" style="stop-color:#01AEF7"/>
	</linearGradient>
	<path style="fill:url(#SVGID_00000042706178358958842410000008352895387963412142_);" d="M97,86.8l-15-15c0.1-0.4,0.2-0.8,0.2-1.3
		c0-1.5-0.6-2.9-1.6-4l-3.1-3.1c3.8-6.3,6-13.6,6-21.5c0-22.8-18.6-41.4-41.4-41.4C19.3,0.7,0.7,19.2,0.7,42s18.6,41.4,41.4,41.4
		c7.7,0,14.9-2.1,21.1-5.8l3.1,3.1c1.1,1.1,2.5,1.6,4,1.6c0.4,0,0.9-0.1,1.3-0.2l15,15c1.4,1.4,3.2,2.2,5.2,2.2s3.8-0.8,5.2-2.2
		s2.2-3.2,2.2-5.2S98.3,88.2,97,86.8z M3.7,42c0-21.1,17.2-38.4,38.4-38.4c21.1,0,38.4,17.2,38.4,38.4S63.2,80.4,42.1,80.4
		C20.9,80.4,3.7,63.2,3.7,42z M68.4,78.6l-2.7-2.7c3.9-2.7,7.2-6,10-9.9l2.6,2.6c0.5,0.5,0.8,1.2,0.8,1.9c0,0.7-0.3,1.4-0.8,1.9
		l-6.2,6.2C71.2,79.6,69.4,79.6,68.4,78.6z M94.8,95.1c-0.8,0.8-1.9,1.3-3.1,1.3s-2.3-0.5-3.1-1.3L74.3,80.7l6.2-6.2l14.4,14.4
		c0.8,0.8,1.3,1.9,1.3,3.1S95.7,94.2,94.8,95.1z"/>
	
		<linearGradient id="SVGID_00000146496014361501792080000004070250504953986479_" gradientUnits="userSpaceOnUse" x1="16.2965" y1="42.7139" x2="69.8053" y2="42.7139">
		<stop  offset="0" style="stop-color:#00DCC4"/>
		<stop  offset="1" style="stop-color:#01AEF7"/>
	</linearGradient>
	<path style="fill:url(#SVGID_00000146496014361501792080000004070250504953986479_);" d="M69.8,56.5c0-0.8-0.7-1.5-1.5-1.5h-3.1V40
		c0-0.8-0.6-1.4-1.4-1.4H53.6c-0.8,0-1.4,0.6-1.4,1.4v15h-2.5V34.6c0-0.8-0.6-1.4-1.4-1.4H37.9c-0.8,0-1.4,0.6-1.4,1.4V55H34V28.8
		c0-0.8-0.6-1.4-1.4-1.4H22.3c-0.8,0-1.4,0.6-1.4,1.4V55h-3.1c-0.8,0-1.5,0.7-1.5,1.5S17,58,17.8,58h50.5
		C69.1,58,69.8,57.4,69.8,56.5z M55,41.5h7.4V55H55V41.5z M39.4,36h7.4v19h-7.4V36z M23.7,30.3h7.4V55h-7.4V30.3z"/>
</g>
<linearGradient id="SVGID_00000052066154519224349190000017102375818555182486_" gradientUnits="userSpaceOnUse" x1="-189.2125" y1="236.1008" x2="-120.4347" y2="236.1008">
	<stop  offset="0" style="stop-color:#00DCC4"/>
	<stop  offset="1" style="stop-color:#01AEF7"/>
</linearGradient>
<path style="fill:none;stroke:url(#SVGID_00000052066154519224349190000017102375818555182486_);stroke-width:3;stroke-linecap:round;stroke-linejoin:round;stroke-miterlimit:10;" d="
	M-154.8,269c-18.2,0-32.9-14.7-32.9-32.9s14.7-32.9,32.9-32.9s32.9,14.7,32.9,32.9"/>
<linearGradient id="SVGID_00000101782359093991255860000010397603840383364017_" gradientUnits="userSpaceOnUse" x1="-211.104" y1="61.1015" x2="-196.4003" y2="61.1015" gradientTransform="matrix(0.7071 -0.7071 0.7071 0.7071 -9.9447 93.1546)">
	<stop  offset="0" style="stop-color:#00DCC4"/>
	<stop  offset="1" style="stop-color:#01AEF7"/>
</linearGradient>
<path style="fill:none;stroke:url(#SVGID_00000101782359093991255860000010397603840383364017_);stroke-width:3;stroke-linecap:round;stroke-linejoin:round;stroke-miterlimit:10;" d="
	M-101,290.2L-101,290.2c-2.3,2.3-6,2.3-8.3,0l-15.5-15.5l8.3-8.3L-101,282C-98.7,284.2-98.7,287.9-101,290.2z"/>
<linearGradient id="SVGID_00000062186230263912986010000010043671612496783803_" gradientUnits="userSpaceOnUse" x1="-196.1754" y1="236.1008" x2="-113.4717" y2="236.1008">
	<stop  offset="0" style="stop-color:#00DCC4"/>
	<stop  offset="1" style="stop-color:#01AEF7"/>
</linearGradient>
<circle style="fill:none;stroke:url(#SVGID_00000062186230263912986010000010043671612496783803_);stroke-width:3;stroke-linecap:round;stroke-linejoin:round;stroke-miterlimit:10;" cx="-154.8" cy="236.1" r="39.9"/>
<linearGradient id="SVGID_00000070824200124747487690000000461569783978803605_" gradientUnits="userSpaceOnUse" x1="-134.8367" y1="266.4321" x2="-114.7961" y2="266.4321">
	<stop  offset="0" style="stop-color:#00DCC4"/>
	<stop  offset="1" style="stop-color:#01AEF7"/>
</linearGradient>
<path style="fill:none;stroke:url(#SVGID_00000070824200124747487690000000461569783978803605_);stroke-width:3;stroke-linecap:round;stroke-linejoin:round;stroke-miterlimit:10;" d="
	M-121.3,257.9l-0.5,0.5c-2.8,4.2-6.5,7.8-10.7,10.7l-0.9,0.9l3.8,3.8c1.6,1.6,4.2,1.6,5.8,0l6.2-6.2c1.6-1.6,1.6-4.2,0-5.8
	L-121.3,257.9z"/>
<linearGradient id="SVGID_00000115486537428878869590000016565042336242365090_" gradientUnits="userSpaceOnUse" x1="-180.6199" y1="250.6193" x2="-127.1114" y2="250.6193">
	<stop  offset="0" style="stop-color:#00DCC4"/>
	<stop  offset="1" style="stop-color:#01AEF7"/>
</linearGradient>
<line style="fill:none;stroke:url(#SVGID_00000115486537428878869590000016565042336242365090_);stroke-width:3;stroke-linecap:round;stroke-linejoin:round;stroke-miterlimit:10;" x1="-128.6" y1="250.6" x2="-179.1" y2="250.6"/>
<linearGradient id="SVGID_00000147215266994631103470000011111210381711633827_" gradientUnits="userSpaceOnUse" x1="-176.046" y1="236.7767" x2="-162.943" y2="236.7767">
	<stop  offset="0" style="stop-color:#00DCC4"/>
	<stop  offset="1" style="stop-color:#01AEF7"/>
</linearGradient>
<rect x="-174.6" y="222.9" style="fill:none;stroke:url(#SVGID_00000147215266994631103470000011111210381711633827_);stroke-width:2.8668;stroke-linecap:round;stroke-linejoin:round;stroke-miterlimit:10;" width="10.2" height="27.7"/>
<linearGradient id="SVGID_00000031903494059300330220000001296488341737964986_" gradientUnits="userSpaceOnUse" x1="-160.4171" y1="239.6465" x2="-147.3141" y2="239.6465">
	<stop  offset="0" style="stop-color:#00DCC4"/>
	<stop  offset="1" style="stop-color:#01AEF7"/>
</linearGradient>
<rect x="-159" y="228.7" style="fill:none;stroke:url(#SVGID_00000031903494059300330220000001296488341737964986_);stroke-width:2.8668;stroke-linecap:round;stroke-linejoin:round;stroke-miterlimit:10;" width="10.2" height="21.9"/>
<linearGradient id="SVGID_00000063608061754125606530000007962263547824119720_" gradientUnits="userSpaceOnUse" x1="-144.7882" y1="242.3813" x2="-131.6852" y2="242.3813">
	<stop  offset="0" style="stop-color:#00DCC4"/>
	<stop  offset="1" style="stop-color:#01AEF7"/>
</linearGradient>
<rect x="-143.4" y="234.1" style="fill:none;stroke:url(#SVGID_00000063608061754125606530000007962263547824119720_);stroke-width:2.8668;stroke-linecap:round;stroke-linejoin:round;stroke-miterlimit:10;" width="10.2" height="16.5"/>
</svg>
