<svg version="1.1" id="Layer_1" xmlns="http://www.w3.org/2000/svg" xmlns:xlink="http://www.w3.org/1999/xlink" x="0px" y="0px"
	 width="100%" viewBox="0 0 1366 550" enable-background="new 0 0 1366 550" xml:space="preserve">
<path fill="#010101" opacity="1.000000" stroke="none" 
	d="
M1012.000000,551.000000 
	C674.710571,551.000000 337.921143,551.000000 1.065862,551.000000 
	C1.065862,367.734497 1.065862,184.468964 1.065862,1.101710 
	C456.333313,1.101710 911.666687,1.101710 1366.976562,1.101710 
	C1366.976562,184.412308 1366.976562,367.706146 1366.976562,551.000000 
	C1248.802124,551.000000 1130.651123,551.000000 1012.000000,551.000000 
M1111.159668,379.389282 
	C1115.434692,381.597565 1119.601807,384.052856 1124.002563,385.972931 
	C1147.913940,396.405304 1173.077637,398.789886 1198.778687,397.001740 
	C1243.326294,393.902435 1282.160156,377.538055 1311.697266,343.648285 
	C1354.097534,295.000031 1369.462524,237.519714 1359.550537,174.230545 
	C1353.489624,135.530411 1330.753174,107.973343 1293.778320,93.393135 
	C1268.431641,83.398239 1241.996582,81.923370 1215.192017,84.893326 
	C1170.890503,89.801933 1133.379028,108.359787 1105.338257,143.181931 
	C1068.329956,189.140091 1054.484619,242.460495 1061.324829,300.660675 
	C1065.238770,333.962830 1081.321045,360.940826 1111.159668,379.389282 
M389.499664,163.164551 
	C397.311737,163.409058 405.158966,163.280212 412.925079,164.012375 
	C419.519409,164.634064 423.636993,168.734406 425.210815,175.323578 
	C426.886383,182.338684 425.672119,189.080490 424.014191,195.999054 
	C403.832458,195.999054 384.013000,196.021820 364.193573,195.992279 
	C346.457397,195.965836 329.025238,198.196533 311.938843,202.971008 
	C261.481476,217.070419 226.436722,253.014587 221.328445,305.435272 
	C218.079956,338.770935 233.595322,369.501007 262.863373,384.834869 
	C279.389954,393.493378 297.158508,397.341400 315.698334,397.454193 
	C344.524200,397.629517 373.351898,397.518372 402.178802,397.500702 
	C413.734741,397.493622 420.026825,392.057678 421.950623,380.658386 
	C423.970886,368.687225 426.007538,356.718109 428.154175,344.769135 
	C430.008698,334.446228 437.946808,327.884766 448.483765,327.839966 
	C457.814819,327.800293 467.146637,327.890472 476.477325,327.820282 
	C486.854187,327.742188 492.243469,322.862915 494.049805,312.561829 
	C502.522034,264.247650 511.122437,215.955887 519.561646,167.635956 
	C521.843140,154.573257 525.117920,141.590195 523.047852,128.095078 
	C520.405334,110.867561 511.790588,98.190239 495.652039,90.958572 
	C486.017609,86.641380 475.814514,85.522446 465.435333,85.512329 
	C421.611816,85.469604 377.788239,85.486382 333.964661,85.494270 
	C332.359772,85.494560 330.754883,85.629272 328.937927,85.710861 
	C324.098145,111.570030 319.312622,137.139160 314.441742,163.164551 
	C339.559753,163.164551 364.029755,163.164551 389.499664,163.164551 
M1001.764587,97.673462 
	C999.211792,96.471977 996.742004,95.033989 994.093811,94.104218 
	C948.819336,78.208603 903.745178,79.526802 859.735168,97.993782 
	C822.281555,113.709633 799.369873,141.999695 792.446777,182.631821 
	C786.989807,214.658829 798.735474,240.113663 826.858154,256.250824 
	C842.013123,264.946960 858.599548,269.676758 875.356934,273.995880 
	C890.944153,278.013367 906.719727,281.488403 921.989502,286.492615 
	C935.616333,290.958344 936.798157,300.165314 926.034546,309.754608 
	C924.920471,310.747131 923.761963,311.765289 922.457336,312.456940 
	C904.947327,321.740234 886.790466,322.300079 868.447754,315.615662 
	C861.194763,312.972565 859.126221,307.722351 860.597168,299.895020 
	C861.136719,297.024139 861.534363,294.126648 862.023438,291.074646 
	C830.663635,291.074646 799.739502,291.074646 768.598633,291.074646 
	C765.010925,307.938599 764.076599,324.542572 769.783020,340.940857 
	C778.622620,366.342499 797.719116,381.177582 822.306396,388.799103 
	C866.129944,402.383484 910.138733,401.147552 953.073303,385.228149 
	C994.544800,369.851288 1020.339417,340.437836 1026.459351,295.690735 
	C1029.603638,272.700836 1024.825073,251.921524 1006.974487,235.618118 
	C997.127502,226.624634 985.647217,220.016754 973.013855,216.228317 
	C953.159607,210.274536 932.933289,205.572769 912.964050,199.985245 
	C905.494263,197.895126 898.055969,195.331161 891.059509,192.019455 
	C884.931641,189.118866 883.679993,184.710464 886.997620,178.820236 
	C889.206421,174.898834 892.265015,170.807159 895.999878,168.508972 
	C910.543884,159.559509 926.174805,158.979721 941.940247,164.971695 
	C948.616333,167.509109 950.934937,172.787247 949.731384,179.930695 
	C949.182983,183.185471 948.575317,186.430267 947.946045,189.951385 
	C978.679199,189.951385 1009.119812,189.951385 1039.993408,189.951385 
	C1040.901978,184.606918 1041.785278,179.240692 1042.729858,173.885300 
	C1045.717041,156.951401 1044.829468,140.835815 1034.204712,126.213661 
	C1025.637451,114.422890 1015.491638,104.626228 1001.764587,97.673462 
M98.898750,121.353394 
	C93.262695,154.470993 87.609886,187.585770 81.994720,220.706909 
	C74.490570,264.970215 67.014870,309.238373 59.528591,353.504700 
	C57.071278,368.034821 54.619095,382.565765 52.175285,397.032837 
	C52.947788,397.274353 53.262932,397.459015 53.578197,397.459229 
	C83.068436,397.479431 112.558868,397.440216 142.048660,397.559326 
	C145.159943,397.571869 145.501877,395.886139 145.892288,393.607635 
	C152.884872,352.799805 159.909149,311.997467 166.925613,271.193726 
	C176.507507,215.471039 186.036102,159.739105 195.703796,104.031303 
	C198.391403,88.544617 205.917572,82.520363 221.754135,82.515213 
	C249.912262,82.506042 278.070374,82.504562 306.228516,82.499931 
	C308.032135,82.499634 309.835785,82.499893 311.833191,82.499893 
	C316.406952,56.531624 320.919128,30.912941 325.512634,4.832589 
	C316.213226,4.832589 307.575195,4.832560 298.937134,4.832594 
	C259.782349,4.832749 220.627502,4.879295 181.472824,4.821302 
	C132.993134,4.749499 84.513496,4.495528 36.034023,4.537300 
	C23.961029,4.547702 16.804665,10.812113 14.625162,22.677465 
	C10.961438,42.623016 7.559634,62.616680 3.975532,83.000198 
	C5.992162,83.000198 7.802617,83.000175 9.613070,83.000206 
	C36.938118,83.000687 64.263168,82.993858 91.588219,83.005882 
	C100.391319,83.009758 104.307632,87.504715 102.995010,96.379654 
	C101.803497,104.435799 100.343719,112.452271 98.898750,121.353394 
M536.631958,343.020905 
	C533.599426,361.004913 530.566895,378.988922 527.491577,397.226959 
	C558.844910,397.226959 589.585266,397.226959 620.458496,397.226959 
	C620.957520,394.554260 621.456848,392.129547 621.859131,389.688782 
	C633.190247,320.944855 644.500427,252.197464 655.843201,183.455460 
	C658.225403,169.018478 666.039246,162.516739 680.800842,162.516113 
	C709.289856,162.514893 737.778809,162.515411 766.267822,162.515198 
	C768.064697,162.515182 769.861572,162.515182 771.845398,162.515182 
	C776.426331,136.502487 780.937073,110.888824 785.435120,85.347000 
	C784.510376,85.057602 784.201599,84.876389 783.892639,84.876236 
	C741.242676,84.856049 698.592590,84.809868 655.942749,84.877678 
	C648.285767,84.889854 642.492615,89.977547 640.992249,97.716934 
	C639.251831,106.694557 637.798401,115.727669 636.074890,124.708786 
	C632.918701,141.156021 624.580811,147.958649 607.708984,147.995895 
	C599.545532,148.013931 591.381897,147.979950 583.218445,148.005173 
	C573.812195,148.034241 568.535156,152.747574 566.973267,162.104248 
	C561.799255,193.100204 556.521606,224.078857 551.324646,255.071014 
	C546.457275,284.098175 541.642029,313.134064 536.631958,343.020905 
M431.101196,513.575195 
	C429.150360,524.844238 427.199524,536.113342 425.205994,547.629211 
	C432.001862,547.629211 438.430817,547.629211 445.160767,547.629211 
	C447.446991,534.901550 449.706421,522.323181 452.187653,508.510010 
	C458.280273,521.126038 463.686432,532.513489 469.325562,543.784302 
	C470.145477,545.423035 471.997253,547.539734 473.512329,547.659790 
	C479.268860,548.116272 485.083221,547.843811 491.217194,547.843811 
	C495.417816,523.977783 499.554810,500.473511 503.777802,476.480438 
	C498.241882,476.480438 493.255310,476.702393 488.299835,476.405121 
	C484.795380,476.194916 483.411102,477.157043 482.855011,480.861877 
	C481.149567,492.223572 478.937042,503.509155 476.896637,514.964905 
	C476.259583,514.656494 476.040894,514.625061 475.987762,514.514282 
	C471.896179,505.982239 467.084290,497.704407 463.934265,488.836426 
	C460.444061,479.010742 454.986084,474.115845 444.330872,476.459167 
	C443.377625,476.668793 442.321808,476.593811 441.340149,476.458527 
	C438.345978,476.045929 437.399170,477.408356 436.935547,480.293396 
	C435.194580,491.127747 433.139008,501.911560 431.101196,513.575195 
M1030.464844,521.514832 
	C1033.014404,521.514832 1035.563843,521.514832 1038.981812,521.514832 
	C1034.068481,528.731079 1028.053589,531.010193 1020.794983,530.393311 
	C1011.706299,529.620850 1006.933289,523.918518 1008.252380,514.823975 
	C1008.835022,510.806885 1010.020447,506.598846 1012.040894,503.121674 
	C1017.786560,493.232910 1028.878418,491.665253 1037.617188,498.977692 
	C1038.290161,499.540771 1039.319824,499.950500 1040.189819,499.961487 
	C1046.656128,500.043060 1053.124023,500.005737 1059.619385,500.005737 
	C1058.574219,486.674896 1052.774536,479.789276 1040.439087,476.799011 
	C1015.217834,470.685120 990.291382,488.579132 987.886536,514.525085 
	C986.415161,530.399414 992.281433,541.428223 1004.805420,546.036804 
	C1025.908447,553.802307 1060.210083,541.313354 1058.547852,507.171234 
	C1046.427246,507.171234 1034.304077,507.171234 1022.046692,507.171234 
	C1021.233215,511.861145 1020.446228,516.398254 1019.559143,521.512451 
	C1023.268494,521.512451 1026.387695,521.512451 1030.464844,521.514832 
M631.423218,477.942657 
	C602.766296,467.437073 571.205383,491.792572 574.114258,522.167847 
	C575.275574,534.295044 583.020691,543.665771 594.691895,547.064575 
	C616.607117,553.446533 641.289001,538.336975 647.088196,514.989197 
	C651.209290,498.397583 646.143066,485.915344 631.423218,477.942657 
M876.453247,548.009094 
	C894.842590,544.686523 907.106323,534.100037 912.545593,516.318237 
	C919.218323,494.504272 907.529297,477.098053 885.252563,475.336548 
	C877.325439,474.709686 869.756042,476.792999 862.798584,480.759003 
	C850.001099,488.054016 842.173218,498.931610 840.181763,513.546997 
	C837.173462,535.624878 852.285400,550.213074 876.453247,548.009094 
M1255.133301,489.632538 
	C1244.760864,508.861481 1234.388428,528.090454 1223.733398,547.843384 
	C1228.623779,547.843384 1232.789795,547.447754 1236.849121,547.937317 
	C1242.739502,548.647583 1246.570190,547.027466 1248.419067,540.987244 
	C1248.988647,539.126404 1251.121216,536.493896 1252.675293,536.396301 
	C1260.268799,535.919495 1267.908691,536.180359 1275.644653,536.180359 
	C1276.161499,539.430176 1276.358521,542.274353 1277.156006,544.938721 
	C1277.503418,546.099854 1279.047607,547.674500 1280.108765,547.722412 
	C1286.067627,547.991333 1292.044800,547.852051 1298.517090,547.852051 
	C1298.179932,545.592590 1297.971313,543.807434 1297.641602,542.044983 
	C1294.096191,523.093689 1290.478149,504.155762 1286.996216,485.192841 
	C1285.401489,476.507904 1285.427246,477.280426 1276.755493,476.289032 
	C1265.906860,475.048828 1258.612671,478.086365 1255.133301,489.632538 
M283.588531,522.984863 
	C285.303131,536.440735 291.953430,544.856567 304.330719,546.985779 
	C310.870972,548.110840 318.058105,548.158020 324.489136,546.676941 
	C337.876556,543.593933 346.864349,534.795410 352.221802,521.478577 
	C346.511261,521.478577 341.535858,521.661743 336.581421,521.418396 
	C332.877625,521.236511 330.187408,522.040161 327.516998,525.061096 
	C323.056335,530.107300 315.397736,531.202820 310.138428,528.489441 
	C305.343781,526.015808 303.020355,519.876587 304.325562,512.770081 
	C304.713379,510.658478 305.257080,508.536896 306.044464,506.544434 
	C308.659119,499.928040 313.169647,495.312775 320.465698,494.278717 
	C327.245239,493.317841 331.911957,496.458221 334.391388,502.264832 
	C341.588623,502.264832 348.359772,502.264832 355.109711,502.264832 
	C355.418213,491.667511 350.315979,483.158508 341.158081,478.789154 
	C333.626404,475.195709 325.631378,474.980164 317.711456,476.515503 
	C296.581146,480.611786 283.371796,498.438171 283.588531,522.984863 
M187.749969,492.565765 
	C195.719070,492.565765 203.688171,492.565765 211.959808,492.565765 
	C212.902466,487.123291 213.787933,482.011047 214.707001,476.704834 
	C199.113937,476.704834 184.198273,476.704834 169.028824,476.704834 
	C164.864761,500.385071 160.734390,523.873779 156.566681,547.574768 
	C172.168671,547.574768 187.069992,547.574768 202.267807,547.574768 
	C203.189499,542.353027 204.073868,537.342773 205.051224,531.805664 
	C196.468063,531.805664 188.213867,531.805664 179.476990,531.805664 
	C180.256546,527.231934 180.942291,523.208679 181.662460,518.983398 
	C189.342178,518.983398 196.637207,518.983398 204.261856,518.983398 
	C205.162354,513.948181 206.025803,509.120117 206.983109,503.767151 
	C199.355988,503.767151 192.107193,503.767151 184.137573,503.767151 
	C185.131409,499.698914 185.978516,496.231293 187.749969,492.565765 
M77.495239,476.483704 
	C64.832771,476.483490 52.169384,476.413788 39.509121,476.581024 
	C38.105217,476.599579 35.759293,477.721436 35.491592,478.756226 
	C34.354237,483.152863 33.835453,487.709534 33.019753,492.636597 
	C39.390850,492.636597 45.172935,492.636597 51.612820,492.636597 
	C48.367748,511.190521 45.201519,529.293640 41.991695,547.646057 
	C48.729076,547.646057 55.184948,547.646057 61.775341,547.646057 
	C62.111160,546.345337 62.526928,545.087219 62.755516,543.796021 
	C65.508713,528.243713 68.360428,512.706848 70.869667,497.114990 
	C71.429291,493.637665 72.445511,492.200043 76.139099,492.451843 
	C80.924950,492.778107 85.749863,492.531494 90.689301,492.531494 
	C91.623100,487.100098 92.487114,482.074615 93.448341,476.483734 
	C88.066231,476.483734 83.279442,476.483734 77.495239,476.483704 
M722.577271,524.975342 
	C721.266235,532.445068 719.955200,539.914795 718.603394,547.617065 
	C732.990356,547.617065 746.756897,547.617065 760.714355,547.617065 
	C761.571350,542.458618 762.395264,537.499817 763.307739,532.007690 
	C755.617432,532.007690 748.695374,532.007690 741.411926,532.007690 
	C744.686401,513.294067 747.877197,495.059143 751.079590,476.757568 
	C744.039368,476.757568 737.628479,476.757568 731.029480,476.757568 
	C728.246216,492.711731 725.505737,508.420929 722.577271,524.975342 
M1136.114868,507.616211 
	C1133.827637,520.857361 1131.540527,534.098572 1129.206299,547.611572 
	C1135.908325,547.611572 1142.343628,547.611572 1149.202393,547.611572 
	C1153.340332,524.126587 1157.477905,500.643463 1161.735718,476.477783 
	C1155.888916,476.477783 1150.614868,476.635040 1145.356445,476.416626 
	C1142.380859,476.293030 1141.381470,477.356842 1140.936646,480.266479 
	C1139.581543,489.130096 1137.866699,497.938721 1136.114868,507.616211 
z"/>
<path fill="#FEFEFE" opacity="1.000000" stroke="none" 
	d="
M1110.845703,379.201294 
	C1081.321045,360.940826 1065.238770,333.962830 1061.324829,300.660675 
	C1054.484619,242.460495 1068.329956,189.140091 1105.338257,143.181931 
	C1133.379028,108.359787 1170.890503,89.801933 1215.192017,84.893326 
	C1241.996582,81.923370 1268.431641,83.398239 1293.778320,93.393135 
	C1330.753174,107.973343 1353.489624,135.530411 1359.550537,174.230545 
	C1369.462524,237.519714 1354.097534,295.000031 1311.697266,343.648285 
	C1282.160156,377.538055 1243.326294,393.902435 1198.778687,397.001740 
	C1173.077637,398.789886 1147.913940,396.405304 1124.002563,385.972931 
	C1119.601807,384.052856 1115.434692,381.597565 1110.845703,379.201294 
M1246.320679,292.800446 
	C1256.996704,277.704041 1262.555054,260.587738 1266.044556,242.669662 
	C1269.343872,225.727264 1271.025513,208.713760 1266.953857,191.667969 
	C1262.959595,174.946930 1251.862793,164.229645 1236.382935,162.103683 
	C1212.034912,158.759781 1191.607300,166.409912 1177.404541,186.450775 
	C1156.264771,216.280121 1149.688354,250.250732 1154.348633,286.037964 
	C1157.246460,308.291687 1172.332886,319.763489 1194.885254,319.829132 
	C1216.492798,319.891998 1233.236572,310.554382 1246.320679,292.800446 
z"/>
<path fill="#FEFEFE" opacity="1.000000" stroke="none" 
	d="
M388.999695,163.164551 
	C364.029755,163.164551 339.559753,163.164551 314.441742,163.164551 
	C319.312622,137.139160 324.098145,111.570030 328.937927,85.710861 
	C330.754883,85.629272 332.359772,85.494560 333.964661,85.494270 
	C377.788239,85.486382 421.611816,85.469604 465.435333,85.512329 
	C475.814514,85.522446 486.017609,86.641380 495.652039,90.958572 
	C511.790588,98.190239 520.405334,110.867561 523.047852,128.095078 
	C525.117920,141.590195 521.843140,154.573257 519.561646,167.635956 
	C511.122437,215.955887 502.522034,264.247650 494.049805,312.561829 
	C492.243469,322.862915 486.854187,327.742188 476.477325,327.820282 
	C467.146637,327.890472 457.814819,327.800293 448.483765,327.839966 
	C437.946808,327.884766 430.008698,334.446228 428.154175,344.769135 
	C426.007538,356.718109 423.970886,368.687225 421.950623,380.658386 
	C420.026825,392.057678 413.734741,397.493622 402.178802,397.500702 
	C373.351898,397.518372 344.524200,397.629517 315.698334,397.454193 
	C297.158508,397.341400 279.389954,393.493378 262.863373,384.834869 
	C233.595322,369.501007 218.079956,338.770935 221.328445,305.435272 
	C226.436722,253.014587 261.481476,217.070419 311.938843,202.971008 
	C329.025238,198.196533 346.457397,195.965836 364.193573,195.992279 
	C384.013000,196.021820 403.832458,195.999054 424.014191,195.999054 
	C425.672119,189.080490 426.886383,182.338684 425.210815,175.323578 
	C423.636993,168.734406 419.519409,164.634064 412.925079,164.012375 
	C405.158966,163.280212 397.311737,163.409058 388.999695,163.164551 
M397.478210,273.831757 
	C382.314728,273.886749 367.143097,273.661438 351.990723,274.099915 
	C342.624237,274.371002 333.484894,276.338043 325.493500,281.778992 
	C317.207275,287.420715 312.612488,299.134583 315.586914,308.095398 
	C318.763641,317.665497 327.221924,318.349518 335.452118,319.167786 
	C335.617157,319.184204 335.785187,319.170654 335.951843,319.170502 
	C357.101501,319.151733 378.251190,319.136200 399.400787,319.092102 
	C399.855133,319.091156 400.308807,318.762390 400.749939,318.591492 
	C403.498444,303.748291 406.234192,288.973938 409.038086,273.831635 
	C405.101471,273.831635 401.785217,273.831635 397.478210,273.831757 
z"/>
<path fill="#FEFEFE" opacity="1.000000" stroke="none" 
	d="
M1002.104858,97.827148 
	C1015.491638,104.626228 1025.637451,114.422890 1034.204712,126.213661 
	C1044.829468,140.835815 1045.717041,156.951401 1042.729858,173.885300 
	C1041.785278,179.240692 1040.901978,184.606918 1039.993408,189.951385 
	C1009.119812,189.951385 978.679199,189.951385 947.946045,189.951385 
	C948.575317,186.430267 949.182983,183.185471 949.731384,179.930695 
	C950.934937,172.787247 948.616333,167.509109 941.940247,164.971695 
	C926.174805,158.979721 910.543884,159.559509 895.999878,168.508972 
	C892.265015,170.807159 889.206421,174.898834 886.997620,178.820236 
	C883.679993,184.710464 884.931641,189.118866 891.059509,192.019455 
	C898.055969,195.331161 905.494263,197.895126 912.964050,199.985245 
	C932.933289,205.572769 953.159607,210.274536 973.013855,216.228317 
	C985.647217,220.016754 997.127502,226.624634 1006.974487,235.618118 
	C1024.825073,251.921524 1029.603638,272.700836 1026.459351,295.690735 
	C1020.339417,340.437836 994.544800,369.851288 953.073303,385.228149 
	C910.138733,401.147552 866.129944,402.383484 822.306396,388.799103 
	C797.719116,381.177582 778.622620,366.342499 769.783020,340.940857 
	C764.076599,324.542572 765.010925,307.938599 768.598633,291.074646 
	C799.739502,291.074646 830.663635,291.074646 862.023438,291.074646 
	C861.534363,294.126648 861.136719,297.024139 860.597168,299.895020 
	C859.126221,307.722351 861.194763,312.972565 868.447754,315.615662 
	C886.790466,322.300079 904.947327,321.740234 922.457336,312.456940 
	C923.761963,311.765289 924.920471,310.747131 926.034546,309.754608 
	C936.798157,300.165314 935.616333,290.958344 921.989502,286.492615 
	C906.719727,281.488403 890.944153,278.013367 875.356934,273.995880 
	C858.599548,269.676758 842.013123,264.946960 826.858154,256.250824 
	C798.735474,240.113663 786.989807,214.658829 792.446777,182.631821 
	C799.369873,141.999695 822.281555,113.709633 859.735168,97.993782 
	C903.745178,79.526802 948.819336,78.208603 994.093811,94.104218 
	C996.742004,95.033989 999.211792,96.471977 1002.104858,97.827148 
z"/>
<path fill="#FEFEFE" opacity="1.000000" stroke="none" 
	d="
M98.950478,120.919815 
	C100.343719,112.452271 101.803497,104.435799 102.995010,96.379654 
	C104.307632,87.504715 100.391319,83.009758 91.588219,83.005882 
	C64.263168,82.993858 36.938118,83.000687 9.613070,83.000206 
	C7.802617,83.000175 5.992162,83.000198 3.975532,83.000198 
	C7.559634,62.616680 10.961438,42.623016 14.625162,22.677465 
	C16.804665,10.812113 23.961029,4.547702 36.034023,4.537300 
	C84.513496,4.495528 132.993134,4.749499 181.472824,4.821302 
	C220.627502,4.879295 259.782349,4.832749 298.937134,4.832594 
	C307.575195,4.832560 316.213226,4.832589 325.512634,4.832589 
	C320.919128,30.912941 316.406952,56.531624 311.833191,82.499893 
	C309.835785,82.499893 308.032135,82.499634 306.228516,82.499931 
	C278.070374,82.504562 249.912262,82.506042 221.754135,82.515213 
	C205.917572,82.520363 198.391403,88.544617 195.703796,104.031303 
	C186.036102,159.739105 176.507507,215.471039 166.925613,271.193726 
	C159.909149,311.997467 152.884872,352.799805 145.892288,393.607635 
	C145.501877,395.886139 145.159943,397.571869 142.048660,397.559326 
	C112.558868,397.440216 83.068436,397.479431 53.578197,397.459229 
	C53.262932,397.459015 52.947788,397.274353 52.175285,397.032837 
	C54.619095,382.565765 57.071278,368.034821 59.528591,353.504700 
	C67.014870,309.238373 74.490570,264.970215 81.994720,220.706909 
	C87.609886,187.585770 93.262695,154.470993 98.950478,120.919815 
z"/>
<path fill="#FEFEFE" opacity="1.000000" stroke="none" 
	d="
M536.717896,342.593506 
	C541.642029,313.134064 546.457275,284.098175 551.324646,255.071014 
	C556.521606,224.078857 561.799255,193.100204 566.973267,162.104248 
	C568.535156,152.747574 573.812195,148.034241 583.218445,148.005173 
	C591.381897,147.979950 599.545532,148.013931 607.708984,147.995895 
	C624.580811,147.958649 632.918701,141.156021 636.074890,124.708786 
	C637.798401,115.727669 639.251831,106.694557 640.992249,97.716934 
	C642.492615,89.977547 648.285767,84.889854 655.942749,84.877678 
	C698.592590,84.809868 741.242676,84.856049 783.892639,84.876236 
	C784.201599,84.876389 784.510376,85.057602 785.435120,85.347000 
	C780.937073,110.888824 776.426331,136.502487 771.845398,162.515182 
	C769.861572,162.515182 768.064697,162.515182 766.267822,162.515198 
	C737.778809,162.515411 709.289856,162.514893 680.800842,162.516113 
	C666.039246,162.516739 658.225403,169.018478 655.843201,183.455460 
	C644.500427,252.197464 633.190247,320.944855 621.859131,389.688782 
	C621.456848,392.129547 620.957520,394.554260 620.458496,397.226959 
	C589.585266,397.226959 558.844910,397.226959 527.491577,397.226959 
	C530.566895,378.988922 533.599426,361.004913 536.717896,342.593506 
z"/>
<path fill="#FBFBFB" opacity="1.000000" stroke="none" 
	d="
M431.151245,513.144775 
	C433.139008,501.911560 435.194580,491.127747 436.935547,480.293396 
	C437.399170,477.408356 438.345978,476.045929 441.340149,476.458527 
	C442.321808,476.593811 443.377625,476.668793 444.330872,476.459167 
	C454.986084,474.115845 460.444061,479.010742 463.934265,488.836426 
	C467.084290,497.704407 471.896179,505.982239 475.987762,514.514282 
	C476.040894,514.625061 476.259583,514.656494 476.896637,514.964905 
	C478.937042,503.509155 481.149567,492.223572 482.855011,480.861877 
	C483.411102,477.157043 484.795380,476.194916 488.299835,476.405121 
	C493.255310,476.702393 498.241882,476.480438 503.777802,476.480438 
	C499.554810,500.473511 495.417816,523.977783 491.217194,547.843811 
	C485.083221,547.843811 479.268860,548.116272 473.512329,547.659790 
	C471.997253,547.539734 470.145477,545.423035 469.325562,543.784302 
	C463.686432,532.513489 458.280273,521.126038 452.187653,508.510010 
	C449.706421,522.323181 447.446991,534.901550 445.160767,547.629211 
	C438.430817,547.629211 432.001862,547.629211 425.205994,547.629211 
	C427.199524,536.113342 429.150360,524.844238 431.151245,513.144775 
z"/>
<path fill="#FBFBFB" opacity="1.000000" stroke="none" 
	d="
M1029.985840,521.513672 
	C1026.387695,521.512451 1023.268494,521.512451 1019.559143,521.512451 
	C1020.446228,516.398254 1021.233215,511.861145 1022.046692,507.171234 
	C1034.304077,507.171234 1046.427246,507.171234 1058.547852,507.171234 
	C1060.210083,541.313354 1025.908447,553.802307 1004.805420,546.036804 
	C992.281433,541.428223 986.415161,530.399414 987.886536,514.525085 
	C990.291382,488.579132 1015.217834,470.685120 1040.439087,476.799011 
	C1052.774536,479.789276 1058.574219,486.674896 1059.619385,500.005737 
	C1053.124023,500.005737 1046.656128,500.043060 1040.189819,499.961487 
	C1039.319824,499.950500 1038.290161,499.540771 1037.617188,498.977692 
	C1028.878418,491.665253 1017.786560,493.232910 1012.040894,503.121674 
	C1010.020447,506.598846 1008.835022,510.806885 1008.252380,514.823975 
	C1006.933289,523.918518 1011.706299,529.620850 1020.794983,530.393311 
	C1028.053589,531.010193 1034.068481,528.731079 1038.981812,521.514832 
	C1035.563843,521.514832 1033.014404,521.514832 1029.985840,521.513672 
z"/>
<path fill="#FCFCFC" opacity="1.000000" stroke="none" 
	d="
M631.786255,478.062561 
	C646.143066,485.915344 651.209290,498.397583 647.088196,514.989197 
	C641.289001,538.336975 616.607117,553.446533 594.691895,547.064575 
	C583.020691,543.665771 575.275574,534.295044 574.114258,522.167847 
	C571.205383,491.792572 602.766296,467.437073 631.786255,478.062561 
M599.971863,527.759216 
	C607.961487,531.462891 615.558350,530.204163 621.400757,524.208618 
	C627.462952,517.987549 629.984741,506.802002 626.206360,500.321533 
	C624.822815,497.948578 622.253418,495.714752 619.710632,494.673920 
	C612.199585,491.599335 603.272522,495.178162 598.566833,502.543213 
	C593.256897,510.854034 593.601562,521.514771 599.971863,527.759216 
z"/>
<path fill="#FBFBFB" opacity="1.000000" stroke="none" 
	d="
M876.030029,548.052124 
	C852.285400,550.213074 837.173462,535.624878 840.181763,513.546997 
	C842.173218,498.931610 850.001099,488.054016 862.798584,480.759003 
	C869.756042,476.792999 877.325439,474.709686 885.252563,475.336548 
	C907.529297,477.098053 919.218323,494.504272 912.545593,516.318237 
	C907.106323,534.100037 894.842590,544.686523 876.030029,548.052124 
M879.585266,493.834839 
	C867.832153,494.772339 860.247559,503.906464 860.510742,516.806152 
	C860.677856,525.000488 865.423096,529.723999 873.599792,529.835449 
	C884.078186,529.978210 891.453308,522.682190 893.473633,510.174652 
	C895.036926,500.496338 890.225525,494.448547 879.585266,493.834839 
z"/>
<path fill="#FBFBFB" opacity="1.000000" stroke="none" 
	d="
M1255.321289,489.313416 
	C1258.612671,478.086365 1265.906860,475.048828 1276.755493,476.289032 
	C1285.427246,477.280426 1285.401489,476.507904 1286.996216,485.192841 
	C1290.478149,504.155762 1294.096191,523.093689 1297.641602,542.044983 
	C1297.971313,543.807434 1298.179932,545.592590 1298.517090,547.852051 
	C1292.044800,547.852051 1286.067627,547.991333 1280.108765,547.722412 
	C1279.047607,547.674500 1277.503418,546.099854 1277.156006,544.938721 
	C1276.358521,542.274353 1276.161499,539.430176 1275.644653,536.180359 
	C1267.908691,536.180359 1260.268799,535.919495 1252.675293,536.396301 
	C1251.121216,536.493896 1248.988647,539.126404 1248.419067,540.987244 
	C1246.570190,547.027466 1242.739502,548.647583 1236.849121,547.937317 
	C1232.789795,547.447754 1228.623779,547.843384 1223.733398,547.843384 
	C1234.388428,528.090454 1244.760864,508.861481 1255.321289,489.313416 
M1264.109497,509.642517 
	C1262.361816,513.239319 1260.614014,516.836182 1258.786255,520.597717 
	C1264.038574,520.597717 1268.479614,520.597717 1273.380005,520.597717 
	C1272.233887,513.421997 1271.141235,506.581329 1269.878052,498.672394 
	C1267.683228,502.863953 1266.078979,505.927643 1264.109497,509.642517 
z"/>
<path fill="#FAFAFA" opacity="1.000000" stroke="none" 
	d="
M283.545898,522.556152 
	C283.371796,498.438171 296.581146,480.611786 317.711456,476.515503 
	C325.631378,474.980164 333.626404,475.195709 341.158081,478.789154 
	C350.315979,483.158508 355.418213,491.667511 355.109711,502.264832 
	C348.359772,502.264832 341.588623,502.264832 334.391388,502.264832 
	C331.911957,496.458221 327.245239,493.317841 320.465698,494.278717 
	C313.169647,495.312775 308.659119,499.928040 306.044464,506.544434 
	C305.257080,508.536896 304.713379,510.658478 304.325562,512.770081 
	C303.020355,519.876587 305.343781,526.015808 310.138428,528.489441 
	C315.397736,531.202820 323.056335,530.107300 327.516998,525.061096 
	C330.187408,522.040161 332.877625,521.236511 336.581421,521.418396 
	C341.535858,521.661743 346.511261,521.478577 352.221802,521.478577 
	C346.864349,534.795410 337.876556,543.593933 324.489136,546.676941 
	C318.058105,548.158020 310.870972,548.110840 304.330719,546.985779 
	C291.953430,544.856567 285.303131,536.440735 283.545898,522.556152 
z"/>
<path fill="#FAFAFA" opacity="1.000000" stroke="none" 
	d="
M187.287781,492.664734 
	C185.978516,496.231293 185.131409,499.698914 184.137573,503.767151 
	C192.107193,503.767151 199.355988,503.767151 206.983109,503.767151 
	C206.025803,509.120117 205.162354,513.948181 204.261856,518.983398 
	C196.637207,518.983398 189.342178,518.983398 181.662460,518.983398 
	C180.942291,523.208679 180.256546,527.231934 179.476990,531.805664 
	C188.213867,531.805664 196.468063,531.805664 205.051224,531.805664 
	C204.073868,537.342773 203.189499,542.353027 202.267807,547.574768 
	C187.069992,547.574768 172.168671,547.574768 156.566681,547.574768 
	C160.734390,523.873779 164.864761,500.385071 169.028824,476.704834 
	C184.198273,476.704834 199.113937,476.704834 214.707001,476.704834 
	C213.787933,482.011047 212.902466,487.123291 211.959808,492.565765 
	C203.688171,492.565765 195.719070,492.565765 187.287781,492.664734 
z"/>
<path fill="#FAFAFA" opacity="1.000000" stroke="none" 
	d="
M77.993942,476.483704 
	C83.279442,476.483734 88.066231,476.483734 93.448341,476.483734 
	C92.487114,482.074615 91.623100,487.100098 90.689301,492.531494 
	C85.749863,492.531494 80.924950,492.778107 76.139099,492.451843 
	C72.445511,492.200043 71.429291,493.637665 70.869667,497.114990 
	C68.360428,512.706848 65.508713,528.243713 62.755516,543.796021 
	C62.526928,545.087219 62.111160,546.345337 61.775341,547.646057 
	C55.184948,547.646057 48.729076,547.646057 41.991695,547.646057 
	C45.201519,529.293640 48.367748,511.190521 51.612820,492.636597 
	C45.172935,492.636597 39.390850,492.636597 33.019753,492.636597 
	C33.835453,487.709534 34.354237,483.152863 35.491592,478.756226 
	C35.759293,477.721436 38.105217,476.599579 39.509121,476.581024 
	C52.169384,476.413788 64.832771,476.483490 77.993942,476.483704 
z"/>
<path fill="#F9F9F9" opacity="1.000000" stroke="none" 
	d="
M722.671265,524.552734 
	C725.505737,508.420929 728.246216,492.711731 731.029480,476.757568 
	C737.628479,476.757568 744.039368,476.757568 751.079590,476.757568 
	C747.877197,495.059143 744.686401,513.294067 741.411926,532.007690 
	C748.695374,532.007690 755.617432,532.007690 763.307739,532.007690 
	C762.395264,537.499817 761.571350,542.458618 760.714355,547.617065 
	C746.756897,547.617065 732.990356,547.617065 718.603394,547.617065 
	C719.955200,539.914795 721.266235,532.445068 722.671265,524.552734 
z"/>
<path fill="#FAFAFA" opacity="1.000000" stroke="none" 
	d="
M1136.203369,507.192505 
	C1137.866699,497.938721 1139.581543,489.130096 1140.936646,480.266479 
	C1141.381470,477.356842 1142.380859,476.293030 1145.356445,476.416626 
	C1150.614868,476.635040 1155.888916,476.477783 1161.735718,476.477783 
	C1157.477905,500.643463 1153.340332,524.126587 1149.202393,547.611572 
	C1142.343628,547.611572 1135.908325,547.611572 1129.206299,547.611572 
	C1131.540527,534.098572 1133.827637,520.857361 1136.203369,507.192505 
z"/>
<path fill="#010101" opacity="1.000000" stroke="none" 
	d="
M1246.128418,293.102844 
	C1233.236572,310.554382 1216.492798,319.891998 1194.885254,319.829132 
	C1172.332886,319.763489 1157.246460,308.291687 1154.348633,286.037964 
	C1149.688354,250.250732 1156.264771,216.280121 1177.404541,186.450775 
	C1191.607300,166.409912 1212.034912,158.759781 1236.382935,162.103683 
	C1251.862793,164.229645 1262.959595,174.946930 1266.953857,191.667969 
	C1271.025513,208.713760 1269.343872,225.727264 1266.044556,242.669662 
	C1262.555054,260.587738 1256.996704,277.704041 1246.128418,293.102844 
z"/>
<path fill="#010101" opacity="1.000000" stroke="none" 
	d="
M397.973602,273.831696 
	C401.785217,273.831635 405.101471,273.831635 409.038086,273.831635 
	C406.234192,288.973938 403.498444,303.748291 400.749939,318.591492 
	C400.308807,318.762390 399.855133,319.091156 399.400787,319.092102 
	C378.251190,319.136200 357.101501,319.151733 335.951843,319.170502 
	C335.785187,319.170654 335.617157,319.184204 335.452118,319.167786 
	C327.221924,318.349518 318.763641,317.665497 315.586914,308.095398 
	C312.612488,299.134583 317.207275,287.420715 325.493500,281.778992 
	C333.484894,276.338043 342.624237,274.371002 351.990723,274.099915 
	C367.143097,273.661438 382.314728,273.886749 397.973602,273.831696 
z"/>
<path fill="#040404" opacity="1.000000" stroke="none" 
	d="
M599.669250,527.519409 
	C593.601562,521.514771 593.256897,510.854034 598.566833,502.543213 
	C603.272522,495.178162 612.199585,491.599335 619.710632,494.673920 
	C622.253418,495.714752 624.822815,497.948578 626.206360,500.321533 
	C629.984741,506.802002 627.462952,517.987549 621.400757,524.208618 
	C615.558350,530.204163 607.961487,531.462891 599.669250,527.519409 
z"/>
<path fill="#040404" opacity="1.000000" stroke="none" 
	d="
M880.023071,493.826294 
	C890.225525,494.448547 895.036926,500.496338 893.473633,510.174652 
	C891.453308,522.682190 884.078186,529.978210 873.599792,529.835449 
	C865.423096,529.723999 860.677856,525.000488 860.510742,516.806152 
	C860.247559,503.906464 867.832153,494.772339 880.023071,493.826294 
z"/>
<path fill="#0E0E0E" opacity="1.000000" stroke="none" 
	d="
M1264.292114,509.316956 
	C1266.078979,505.927643 1267.683228,502.863953 1269.878052,498.672394 
	C1271.141235,506.581329 1272.233887,513.421997 1273.380005,520.597717 
	C1268.479614,520.597717 1264.038574,520.597717 1258.786255,520.597717 
	C1260.614014,516.836182 1262.361816,513.239319 1264.292114,509.316956 
z"/>
</svg>